<svg xmlns="http://www.w3.org/2000/svg" width="165" height="29.422" viewBox="0 0 165 29.422"><defs><style>.a{fill:#da1a32;fill-rule:evenodd;}</style></defs><path class="a" d="M35.7,7.97a8.748,8.748,0,0,1,8.209,4.837,14.432,14.432,0,0,1,1.216,7.138l-.009.2H31.478l0,.49c.04,1.617.427,4.863,4.14,4.863A3.289,3.289,0,0,0,39.1,22.953l.064-.232H44.6l-.023.253a6.583,6.583,0,0,1-1.908,4.109c-1.489,1.547-4.144,2.339-7.122,2.339-1.73,0-5.03-.317-7.162-2.5-1.851-1.9-2.615-4.6-2.615-7.812,0-3.252.8-7.138,4.225-9.477A10.293,10.293,0,0,1,35.7,7.97Zm20.424.079c1.69,0,5.231.277,7.243,2.577A7.568,7.568,0,0,1,64.776,15.3l.042,8.3a24.8,24.8,0,0,0,.371,4.519l.112.557H59.909a15.8,15.8,0,0,1-.2-2.736,6.8,6.8,0,0,1-6.076,3.212c-2.937,0-4.265-.833-5.07-1.586a6.152,6.152,0,0,1-1.77-4.4L46.8,22.9a6.664,6.664,0,0,1,4.3-5.965c2.494-1.11,6.076-1.11,8.047-1.11a7.724,7.724,0,0,0-.282-2.657A2.76,2.76,0,0,0,56.207,11.5a2.723,2.723,0,0,0-2.253,1.11,2.751,2.751,0,0,0-.44,1.51l0,.274H47.677l.017-.365A5.409,5.409,0,0,1,49.97,9.675,10.743,10.743,0,0,1,56.127,8.05Zm55.637,0c1.69,0,5.231.277,7.243,2.577a7.569,7.569,0,0,1,1.407,4.671l.042,8.3a24.8,24.8,0,0,0,.371,4.519l.112.557h-5.392a15.782,15.782,0,0,1-.2-2.736,6.8,6.8,0,0,1-6.076,3.212c-2.937,0-4.265-.833-5.07-1.586a6.153,6.153,0,0,1-1.77-4.4,6.653,6.653,0,0,1,4.305-6.226c2.495-1.11,6.076-1.11,8.048-1.11l0-.522a6.425,6.425,0,0,0-.279-2.135,2.76,2.76,0,0,0-2.656-1.666,2.548,2.548,0,0,0-2.693,2.62l0,.274h-5.834l.017-.365a5.408,5.408,0,0,1,2.276-4.354,10.742,10.742,0,0,1,6.157-1.626ZM158.844.04h6V25.418c0,1.09.067,2.281.141,3.052l.02.2h-6.036l-.161-2.895-.232.406a5.138,5.138,0,0,1-1.82,1.854,7.09,7.09,0,0,1-3.79,1.03h-.154c-5.432,0-8.651-3.688-8.651-9.953,0-6.622,3.662-10.746,8.973-10.746a6.542,6.542,0,0,1,5.664,2.668l.05.068V.04ZM87.683,2.7V8.763h4.829v3.886H87.683V21.69l.017.615c.06,1.464.336,2.359,2.679,2.359l.527-.006c.395-.01.7-.032,1.04-.066l.444-.047v3.847a18.725,18.725,0,0,1-4.627.634c-6,0-6-3.727-6-5.393V4.838L87.683,2.7ZM6.237,0V11.46H17.222V0h6.317V28.669H17.3V16.1H6.237v12.57H0V0Zm94.215,0V28.669H94.5V0ZM72.965,8.565l.121,3.847.106-.231c.766-1.644,2.136-3.78,6.5-3.667l.317.012V13.8c-5.828-.536-6.366,2.292-6.4,4.736l0,10.134H67.653V13.561c0-.846-.127-3.227-.24-4.553l-.041-.443h5.593Zm62.3-.476c3.984,0,5.674,2.379,6.2,3.767l.082.236c.363,1.1.474,2.187.481,5.4V28.669H135.95V15.945a4.152,4.152,0,0,0-.322-1.908,3.107,3.107,0,0,0-2.9-1.705,3.718,3.718,0,0,0-3.1,1.547,5.163,5.163,0,0,0-.72,2.769l0,.284V28.669h-6V11.877c0-.588-.02-1.835-.086-2.859l-.034-.453h5.714l.161,3.014.2-.319a7.062,7.062,0,0,1,6.4-3.17ZM59.145,19.232c-3.823-.317-6.559.872-6.559,3.252a2.781,2.781,0,0,0,2.9,2.855,3.394,3.394,0,0,0,2.535-1.15c1.046-1.269,1.127-2.816,1.127-4.957Zm55.637,0c-3.823-.317-6.559.872-6.559,3.252a2.781,2.781,0,0,0,2.9,2.855,3.394,3.394,0,0,0,2.535-1.15c1.046-1.269,1.127-2.816,1.127-4.957Zm39.837-7.019c-3.984,0-4.426,4.719-4.426,6.741,0,3.331,1.126,6.305,4.1,6.305A4.307,4.307,0,0,0,158.079,23a10.525,10.525,0,0,0,.966-4.719c0-3.925-1.73-6.067-4.426-6.067ZM35.5,11.975c-2.538,0-3.636,2.017-3.81,4.275l-.013.206h7.364l0-.318c-.039-1.227-.4-4.163-3.536-4.163Z"/></svg>