<svg xmlns="http://www.w3.org/2000/svg" width="24" height="24" viewBox="0 0 24 24"><defs><style>.a{fill:none;}</style></defs><path class="a" d="M0,0H24V24H0Z"/><path d="M20,8H17.19a5.985,5.985,0,0,0-1.82-1.96L17,4.41,15.59,3,13.42,5.17A6.065,6.065,0,0,0,12,5a5.918,5.918,0,0,0-1.41.17L8.41,3,7,4.41,8.62,6.04A6.062,6.062,0,0,0,6.81,8H4v2H6.09A6.638,6.638,0,0,0,6,11v1H4v2H6v1a6.638,6.638,0,0,0,.09,1H4v2H6.81a5.989,5.989,0,0,0,10.38,0H20V16H17.91A6.638,6.638,0,0,0,18,15V14h2V12H18V11a6.638,6.638,0,0,0-.09-1H20Zm-4,4v3a4.257,4.257,0,0,1-.07.7l-.1.65-.37.65a3.993,3.993,0,0,1-6.92,0l-.37-.64-.1-.65A4.27,4.27,0,0,1,8,15V11a4.051,4.051,0,0,1,.07-.7l.1-.65L8.54,9A4.1,4.1,0,0,1,9.75,7.69l.57-.39.74-.18A3.787,3.787,0,0,1,12,7a3.865,3.865,0,0,1,.95.12l.68.16.61.42a3.9,3.9,0,0,1,1.21,1.31l.38.65.1.65A4.036,4.036,0,0,1,16,11v1Zm-6,2h4v2H10Zm0-4h4v2H10Z"/></svg>