<svg xmlns="http://www.w3.org/2000/svg" xmlns:xlink="http://www.w3.org/1999/xlink" width="489.623" height="344.134" viewBox="0 0 489.623 344.134"><defs><style>.a{fill:#efe8ff;}.b{fill:url(#a);}.c{fill:#794875;}.aa,.ab,.ac,.ad,.ae,.af,.ag,.ah,.ai,.aj,.c,.cs,.ct,.cu,.cv,.cw,.cx,.cy,.cz,.db,.dc,.dd,.de,.df,.dg,.dh,.di,.dk,.dl,.dm,.dn,.do,.dp,.dq,.dr,.e,.f,.g,.h,.i,.j,.l,.m,.n,.o,.p,.q,.r,.s,.t,.u,.v,.x,.y,.z{fill-rule:evenodd;}.c,.dk,.s{opacity:0.3;}.d{fill:url(#b);}.e{fill:url(#c);}.f{fill:url(#d);}.g{fill:url(#e);}.h{fill:#fffb00;}.i{fill:url(#f);}.j{fill:#401734;}.cv,.cx,.j,.n,.x{opacity:0.5;}.k{fill:url(#g);}.l{fill:url(#h);}.ac,.m,.n{fill:#fbf9fa;}.m{opacity:0.8;}.o{fill:url(#i);}.p{fill:url(#j);}.q{fill:url(#k);}.r{fill:url(#l);}.s{fill:#953345;}.t{fill:url(#m);}.u{fill:url(#n);}.v{fill:url(#o);}.w{fill:url(#p);}.ad,.x{fill:#ac2a41;}.y{fill:url(#q);}.z{fill:url(#r);}.aa{fill:url(#s);}.ab{fill:url(#t);}.ac{opacity:0.18;}.ae{fill:url(#u);}.af{fill:url(#v);}.ag{fill:url(#w);}.ah{fill:url(#x);}.ai{fill:url(#y);}.aj{fill:url(#z);}.ak{fill:url(#aa);}.al{fill:url(#ab);}.am{fill:url(#ac);}.an{fill:url(#ad);}.ao{fill:url(#ae);}.ap{fill:url(#af);}.aq{fill:url(#ag);}.ar{fill:url(#ah);}.as{fill:url(#ai);}.at{fill:url(#aj);}.au{fill:url(#ak);}.av{fill:url(#al);}.aw{fill:url(#am);}.ax{fill:url(#an);}.ay{fill:url(#ao);}.az{fill:url(#ap);}.ba{fill:url(#aq);}.bb{fill:url(#ar);}.bc{fill:url(#as);}.bd{fill:url(#at);}.be{fill:url(#au);}.bf{fill:url(#av);}.bg{fill:url(#aw);}.bh{fill:url(#ax);}.bi{fill:url(#ay);}.bj{fill:url(#az);}.bk{fill:url(#ba);}.bl{fill:url(#bb);}.bm{fill:url(#bc);}.bn{fill:url(#bd);}.bo{fill:url(#be);}.bp{fill:url(#bf);}.bq{fill:url(#bg);}.br{fill:url(#bh);}.bs{fill:url(#bi);}.bt{fill:url(#bj);}.bu{fill:url(#bk);}.bv{fill:url(#bl);}.bw{fill:url(#bm);}.bx{fill:url(#bn);}.by{fill:url(#bo);}.bz{fill:url(#bp);}.ca{fill:url(#bq);}.cb{fill:url(#br);}.cc{fill:url(#bs);}.cd{fill:url(#bt);}.ce{fill:url(#bu);}.cf{fill:url(#bv);}.cg{fill:url(#bw);}.ch{fill:url(#bx);}.ci{fill:url(#by);}.cj{fill:url(#bz);}.ck{fill:url(#ca);}.cl{fill:url(#cb);}.cm{fill:url(#cc);}.cn{fill:url(#cd);}.co{fill:url(#ce);}.cp{fill:url(#cf);}.cq{fill:url(#cg);}.cr{fill:url(#ch);}.cs{fill:url(#ci);}.ct{fill:url(#cj);}.cu{fill:url(#ck);}.cv{fill:#8b1756;}.cw{fill:#fbd99a;}.cx,.dq{fill:#601734;}.cy{fill:url(#cl);}.cz{fill:#fb0e70;}.da{fill:url(#cm);}.db{fill:url(#cn);}.dc{fill:url(#co);}.dd{fill:url(#cp);}.de{fill:url(#cq);}.df,.dj{fill:#fff;}.dg{fill:url(#cr);}.dh{fill:url(#cs);}.di{fill:url(#ct);}.dk{fill:#540041;}.dl{fill:url(#cu);}.dm{fill:url(#cv);}.dn{fill:url(#cw);}.do{fill:#bdafd2;}.dp{fill:url(#cx);}.dq{opacity:0.2;}.dr{fill:url(#cy);}</style><linearGradient id="a" x1="0.53" y1="1.238" x2="0.47" y2="-0.177" gradientUnits="objectBoundingBox"><stop offset="0" stop-color="#603082"/><stop offset="0.994" stop-color="#2a0e51"/></linearGradient><linearGradient id="b" x1="-0.001" y1="0.5" x2="0.999" y2="0.5" xlink:href="#a"/><linearGradient id="c" x1="0.5" y1="1" x2="0.5" y2="0.001" gradientUnits="objectBoundingBox"><stop offset="0.006" stop-color="#2a0e45"/><stop offset="1" stop-color="#561f7d"/></linearGradient><radialGradient id="d" cx="0.5" cy="0.722" r="0.974" gradientTransform="translate(0.249) scale(0.501 1)" gradientUnits="objectBoundingBox"><stop offset="0" stop-color="aqua"/><stop offset="0.994" stop-color="#26a9ff"/></radialGradient><radialGradient id="e" cx="0.649" cy="0.541" r="6.387" gradientTransform="translate(0.62 69.521) scale(0.044 1.327)" gradientUnits="objectBoundingBox"><stop offset="0" stop-color="#ebd7e3"/><stop offset="0.983" stop-color="#bdafd2"/></radialGradient><linearGradient id="f" x1="0.5" y1="1.001" x2="0.5" y2="-0.001" xlink:href="#a"/><radialGradient id="g" cx="0.5" cy="0.504" r="5.645" gradientTransform="translate(0.469) scale(0.063 1)" gradientUnits="objectBoundingBox"><stop offset="0" stop-color="#b3819d"/><stop offset="1" stop-color="#785ca6"/></radialGradient><radialGradient id="h" cx="0.5" cy="0.495" r="11.006" gradientTransform="translate(0.484) scale(0.032 1)" xlink:href="#e"/><linearGradient id="i" x1="-0.002" y1="0.502" x2="1" y2="0.502" gradientUnits="objectBoundingBox"><stop offset="0" stop-color="#ffa700"/><stop offset="1" stop-color="#ffd328"/></linearGradient><linearGradient id="j" x1="7.259" y1="-6.297" x2="8.231" y2="-6.297" gradientUnits="objectBoundingBox"><stop offset="0.002" stop-color="#e03347"/><stop offset="1" stop-color="#ff6e27"/></linearGradient><linearGradient id="k" x1="1.013" y1="0.365" x2="0.013" y2="0.669" gradientUnits="objectBoundingBox"><stop offset="0" stop-color="#ff6e27"/><stop offset="0.998" stop-color="#e03347"/></linearGradient><linearGradient id="l" x1="0" y1="0.501" x2="1" y2="0.501" xlink:href="#i"/><linearGradient id="m" x1="0.424" y1="1.015" x2="0.424" y2="0.037" xlink:href="#i"/><linearGradient id="n" x1="12.212" y1="-2.938" x2="12.212" y2="-4.047" xlink:href="#i"/><linearGradient id="o" y1="0.499" x2="1" y2="0.499" gradientUnits="objectBoundingBox"><stop offset="0" stop-color="#ff8647"/><stop offset="1" stop-color="#ffb934"/></linearGradient><radialGradient id="p" cx="0.505" cy="0.297" r="0.188" gradientTransform="translate(60.042 -0.488) scale(2.657 2.643)" gradientUnits="objectBoundingBox"><stop offset="0" stop-color="#ffef00"/><stop offset="0.009" stop-color="#fcec00"/><stop offset="0.228" stop-color="#b1a500"/><stop offset="0.434" stop-color="#726b00"/><stop offset="0.62" stop-color="#413d00"/><stop offset="0.782" stop-color="#1d1c00"/><stop offset="0.914" stop-color="#080700"/><stop offset="1"/></radialGradient><radialGradient id="q" cx="0.649" cy="0.547" r="3.894" gradientTransform="translate(0.602 30.841) scale(0.073 1.327)" xlink:href="#e"/><linearGradient id="r" x1="0" y1="0.5" x2="1" y2="0.5" xlink:href="#i"/><linearGradient id="s" x1="0.502" y1="0.798" x2="0.498" y2="0.201" gradientUnits="objectBoundingBox"><stop offset="0" stop-color="#ff8a45"/><stop offset="1" stop-color="#ffc81e"/></linearGradient><linearGradient id="t" y1="0.5" x2="1" y2="0.5" gradientUnits="objectBoundingBox"><stop offset="0.002" stop-color="#c93347"/><stop offset="1" stop-color="#ff7527"/></linearGradient><radialGradient id="u" cx="0.499" cy="0.499" r="1.395" gradientTransform="matrix(0.358, 0.068, -0.009, 0.352, 1.492, 0.539)" gradientUnits="objectBoundingBox"><stop offset="0" stop-color="#0097ff"/><stop offset="0.009" stop-color="#0095fc"/><stop offset="0.228" stop-color="#0069b1"/><stop offset="0.434" stop-color="#004372"/><stop offset="0.62" stop-color="#002641"/><stop offset="0.782" stop-color="#00111d"/><stop offset="0.914" stop-color="#000508"/><stop offset="1"/></radialGradient><radialGradient id="v" cx="0.5" cy="0.497" r="1.836" gradientTransform="matrix(0.272, 0.068, -0.005, 0.263, 4.085, 1.372)" gradientUnits="objectBoundingBox"><stop offset="0" stop-color="#ff2a13"/><stop offset="0.009" stop-color="#fc2913"/><stop offset="0.228" stop-color="#b11d0d"/><stop offset="0.434" stop-color="#721308"/><stop offset="0.62" stop-color="#410b05"/><stop offset="0.782" stop-color="#1d0502"/><stop offset="0.914" stop-color="#080101"/><stop offset="1"/></radialGradient><linearGradient id="w" x1="-0.011" y1="0.955" x2="0.993" y2="0.955" xlink:href="#a"/><radialGradient id="x" cx="0.238" cy="0.126" r="2.809" gradientTransform="matrix(0.162, 0.074, -0.012, 0.997, 0.192, -0.015)" gradientUnits="objectBoundingBox"><stop offset="0" stop-color="#6d47d3"/><stop offset="0.994" stop-color="#713592"/></radialGradient><linearGradient id="y" x1="-0.012" y1="0.755" x2="0.989" y2="0.755" xlink:href="#a"/><radialGradient id="z" cx="0.503" cy="0.455" r="2.516" gradientTransform="matrix(0.141, 0.074, -0.01, 0.997, 0.427, -0.034)" xlink:href="#x"/><linearGradient id="aa" x1="0.059" y1="1.098" x2="0.963" y2="1.111" gradientUnits="objectBoundingBox"><stop offset="0.019" stop-color="#ff4c06"/><stop offset="0.168" stop-color="#ff0e59"/><stop offset="0.538" stop-color="#ff12c3"/><stop offset="1" stop-color="#00b3ff"/></linearGradient><linearGradient id="ab" x1="0.016" y1="1.158" x2="0.993" y2="1.173" xlink:href="#aa"/><linearGradient id="ac" x1="-0.018" y1="1.205" x2="1.015" y2="1.221" xlink:href="#aa"/><linearGradient id="ad" x1="-0.057" y1="1.287" x2="1.04" y2="1.306" xlink:href="#aa"/><linearGradient id="ae" x1="-0.096" y1="1.297" x2="1.056" y2="1.315" xlink:href="#aa"/><linearGradient id="af" x1="-1.832" y1="6.988" x2="32.974" y2="7.082" xlink:href="#aa"/><linearGradient id="ag" x1="-4.58" y1="7.492" x2="37.036" y2="7.598" xlink:href="#aa"/><linearGradient id="ah" x1="0.669" y1="5.616" x2="23.459" y2="5.685" xlink:href="#aa"/><linearGradient id="ai" x1="-23.778" y1="15.6" x2="103.846" y2="15.843" xlink:href="#aa"/><linearGradient id="aj" x1="-2.467" y1="4.921" x2="26.539" y2="4.987" xlink:href="#aa"/><linearGradient id="ak" x1="-5.434" y1="5.873" x2="32.853" y2="5.957" xlink:href="#aa"/><linearGradient id="al" x1="-48.749" y1="1.659" x2="2.988" y2="1.729" xlink:href="#aa"/><linearGradient id="am" x1="-75.725" y1="2.508" x2="7.506" y2="2.614" xlink:href="#aa"/><linearGradient id="an" x1="-31.464" y1="1.134" x2="0.441" y2="1.18" xlink:href="#aa"/><linearGradient id="ao" x1="-45.343" y1="1.728" x2="6.395" y2="1.787" xlink:href="#aa"/><linearGradient id="ap" x1="-39.541" y1="1.42" x2="3.967" y2="1.47" xlink:href="#aa"/><linearGradient id="aq" x1="-117.834" y1="3.836" x2="18.905" y2="3.988" xlink:href="#aa"/><linearGradient id="ar" x1="-73.94" y1="2.112" x2="13.071" y2="2.183" xlink:href="#aa"/><linearGradient id="as" x1="-106.241" y1="3.382" x2="21.375" y2="3.503" xlink:href="#aa"/><linearGradient id="at" x1="-50.63" y1="1.551" x2="7.378" y2="1.601" xlink:href="#aa"/><linearGradient id="au" x1="-168.724" y1="5.412" x2="43.958" y2="5.599" xlink:href="#aa"/><linearGradient id="av" x1="-74.18" y1="1.857" x2="16.977" y2="1.913" xlink:href="#aa"/><linearGradient id="aw" x1="-80.562" y1="2.085" x2="20.19" y2="2.147" xlink:href="#aa"/><linearGradient id="ax" x1="-104.19" y1="2.751" x2="32.539" y2="2.832" xlink:href="#aa"/><linearGradient id="ay" x1="-144.169" y1="3.982" x2="47.265" y2="4.103" xlink:href="#aa"/><linearGradient id="az" x1="-67.357" y1="1.953" x2="19.658" y2="2.007" xlink:href="#aa"/><linearGradient id="ba" x1="-113.719" y1="2.641" x2="45.798" y2="2.71" xlink:href="#aa"/><linearGradient id="bb" x1="-226.583" y1="19.415" x2="92.431" y2="20.023" xlink:href="#aa"/><linearGradient id="bc" x1="-105.977" y1="2.222" x2="41.268" y2="2.278" xlink:href="#aa"/><linearGradient id="bd" x1="-213.271" y1="4.819" x2="105.769" y2="4.947" xlink:href="#aa"/><linearGradient id="be" x1="-183.674" y1="2.381" x2="89.772" y2="2.437" xlink:href="#aa"/><linearGradient id="bf" x1="-213.781" y1="3.303" x2="105.256" y2="3.387" xlink:href="#aa"/><linearGradient id="bg" x1="-9.629" y1="5.318" x2="33.879" y2="5.399" xlink:href="#aa"/><linearGradient id="bh" x1="-3.897" y1="4.459" x2="28.008" y2="4.52" xlink:href="#aa"/><linearGradient id="bi" x1="-8.619" y1="5.887" x2="39.239" y2="5.974" xlink:href="#aa"/><linearGradient id="bj" x1="-12.685" y1="5.013" x2="36.4" y2="5.092" xlink:href="#aa"/><linearGradient id="bk" x1="-138.917" y1="23.283" x2="339.668" y2="23.688" xlink:href="#aa"/><linearGradient id="bl" x1="-8.506" y1="4.22" x2="30.563" y2="4.282" xlink:href="#aa"/><linearGradient id="bm" x1="-24.708" y1="6.452" x2="51.867" y2="6.562" xlink:href="#aa"/><linearGradient id="bn" x1="-11.557" y1="3.934" x2="35.135" y2="3.993" xlink:href="#aa"/><linearGradient id="bo" x1="-16.811" y1="5.163" x2="41.199" y2="5.248" xlink:href="#aa"/><linearGradient id="bp" x1="-22.257" y1="4.457" x2="41.553" y2="4.533" xlink:href="#aa"/><linearGradient id="bq" x1="-14.776" y1="3.623" x2="31.916" y2="3.681" xlink:href="#aa"/><linearGradient id="br" x1="-32.207" y1="4.839" x2="51.026" y2="4.926" xlink:href="#aa"/><linearGradient id="bs" x1="-142.572" y1="124.872" x2="240.316" y2="127.302" xlink:href="#aa"/><linearGradient id="bt" x1="-43.427" y1="6.164" x2="62.925" y2="6.28" xlink:href="#aa"/><linearGradient id="bu" x1="-176.712" y1="37.788" x2="206.104" y2="38.598" xlink:href="#aa"/><linearGradient id="bv" x1="-34.242" y1="3.532" x2="45.523" y2="3.596" xlink:href="#aa"/><linearGradient id="bw" x1="-40.797" y1="4.026" x2="50.364" y2="4.102" xlink:href="#aa"/><linearGradient id="bx" x1="-62.387" y1="4.333" x2="65.241" y2="4.42" xlink:href="#aa"/><linearGradient id="by" x1="-79.814" y1="5.318" x2="79.728" y2="5.428" xlink:href="#aa"/><linearGradient id="bz" x1="-79.291" y1="3.627" x2="67.974" y2="3.703" xlink:href="#aa"/><linearGradient id="ca" x1="-208.766" y1="50.197" x2="174.16" y2="51.412" xlink:href="#aa"/><linearGradient id="cb" x1="-67.587" y1="3.031" x2="60.035" y2="3.091" xlink:href="#aa"/><linearGradient id="cc" x1="-187.29" y1="4.947" x2="131.782" y2="5.062" xlink:href="#aa"/><linearGradient id="cd" x1="-159.786" y1="3.966" x2="113.628" y2="4.056" xlink:href="#aa"/><linearGradient id="ce" x1="-241.718" y1="44.224" x2="141.122" y2="45.439" xlink:href="#aa"/><linearGradient id="cf" x1="-201.121" y1="2.734" x2="117.915" y2="2.796" xlink:href="#aa"/><linearGradient id="cg" x1="-241.526" y1="3.128" x2="141.312" y2="3.202" xlink:href="#aa"/><linearGradient id="ch" x1="-0.012" y1="1.053" x2="0.991" y2="1.053" xlink:href="#aa"/><linearGradient id="ci" x1="0.447" y1="0.815" x2="0.28" y2="-0.197" xlink:href="#t"/><linearGradient id="cj" x1="0.412" y1="0.833" x2="0.412" y2="-0.141" xlink:href="#t"/><linearGradient id="ck" x1="-0.53" y1="1.595" x2="-0.638" y2="0.943" xlink:href="#i"/><radialGradient id="cl" cx="0.5" cy="0.503" r="6.661" gradientTransform="translate(0.473) scale(0.053 1)" gradientUnits="objectBoundingBox"><stop offset="0" stop-color="#6d47fe"/><stop offset="0.994" stop-color="#713592"/></radialGradient><linearGradient id="cm" x1="0.5" y1="0.999" x2="0.5" y2="0.001" gradientUnits="objectBoundingBox"><stop offset="0" stop-color="#83a8ff"/><stop offset="0.212" stop-color="#8e7bbb"/><stop offset="1" stop-color="#ebd7e3"/></linearGradient><radialGradient id="cn" cx="0.497" cy="0.5" r="0.781" gradientTransform="translate(0.246) scale(0.508 1)" xlink:href="#e"/><radialGradient id="co" cx="0.499" cy="0.499" r="0.793" gradientTransform="translate(0.251) scale(0.498 1)" xlink:href="#e"/><radialGradient id="cp" cx="0.503" cy="0.498" r="0.78" gradientTransform="translate(0.246) scale(0.508 1)" gradientUnits="objectBoundingBox"><stop offset="0" stop-color="#5178fe"/><stop offset="0.994" stop-color="#713592"/></radialGradient><radialGradient id="cq" cx="0.499" cy="0.499" r="0.788" gradientTransform="translate(0.249) scale(0.502 1)" xlink:href="#cp"/><linearGradient id="cr" x1="0.643" y1="1.145" x2="0.643" y2="0.063" xlink:href="#t"/><linearGradient id="cs" x1="0.602" y1="1.152" x2="0.602" y2="0.144" xlink:href="#t"/><linearGradient id="ct" x1="0.675" y1="1.237" x2="0.675" y2="0.164" xlink:href="#i"/><radialGradient id="cu" cx="0.51" cy="0.531" r="0.489" gradientTransform="matrix(0.687, 0.635, -0.564, 0.773, 1.135, 0.36)" xlink:href="#g"/><radialGradient id="cv" cx="0.51" cy="0.52" r="0.498" gradientTransform="matrix(0.673, 0.635, -0.553, 0.773, 1.135, 0.376)" xlink:href="#e"/><linearGradient id="cw" x1="-3.185" y1="19.875" x2="-3.185" y2="18.798" gradientUnits="objectBoundingBox"><stop offset="0" stop-color="#683b55"/><stop offset="0.189" stop-color="#4f2d40"/><stop offset="0.55" stop-color="#24151e"/><stop offset="0.832" stop-color="#0a0608"/><stop offset="1"/></linearGradient><radialGradient id="cx" cx="0.501" cy="0.504" r="0.465" gradientTransform="translate(-0.086) scale(1.172 1)" xlink:href="#g"/><radialGradient id="cy" cx="0.501" cy="0.5" r="0.557" gradientTransform="translate(0.089) scale(0.822 1)" xlink:href="#g"/></defs><g transform="translate(-4.4 7.834)"><rect class="a" width="6" height="6" transform="translate(143.2 5.9)"/><rect class="a" width="6" height="6" transform="translate(154.4 5.9)"/><rect class="a" width="6" height="6" transform="translate(188.2 5.9)"/><rect class="a" width="6" height="6" transform="translate(199.4 5.9)"/><rect class="a" width="6" height="6" transform="translate(210.7 5.9)"/><rect class="a" width="6" height="6" transform="translate(143.2 16)"/><rect class="a" width="6" height="6" transform="translate(154.4 16)"/><rect class="a" width="6" height="6" transform="translate(165.7 16)"/><rect class="a" width="6" height="6" transform="translate(176.9 16)"/><rect class="a" width="6" height="6" transform="translate(188.2 16)"/><rect class="a" width="6" height="6" transform="translate(199.4 16)"/><rect class="a" width="6" height="6" transform="translate(210.7 16)"/><rect class="a" width="6" height="6" transform="translate(143.2 26)"/><rect class="a" width="6" height="6" transform="translate(154.4 26)"/><rect class="a" width="6" height="6" transform="translate(165.7 26)"/><rect class="a" width="6" height="6" transform="translate(176.9 26)"/><rect class="a" width="6" height="6" transform="translate(188.2 26)"/><rect class="a" width="6" height="6" transform="translate(199.4 26)"/><rect class="a" width="6" height="6" transform="translate(210.7 26)"/><rect class="a" width="6" height="6" transform="translate(143.2 36.1)"/><rect class="a" width="6" height="6" transform="translate(154.4 36.1)"/><rect class="a" width="6" height="6" transform="translate(165.7 36.1)"/><rect class="a" width="6" height="6" transform="translate(176.9 36.1)"/><rect class="a" width="6" height="6" transform="translate(188.2 36.1)"/><rect class="a" width="6" height="6" transform="translate(199.4 36.1)"/><rect class="a" width="6" height="6" transform="translate(210.7 36.1)"/><rect class="a" width="6" height="6" transform="translate(143.2 46.2)"/><rect class="a" width="6" height="6" transform="translate(154.4 46.2)"/><rect class="a" width="6" height="6" transform="translate(165.7 46.2)"/><rect class="a" width="6" height="6" transform="translate(176.9 46.2)"/><rect class="a" width="6" height="6" transform="translate(188.2 46.2)"/><rect class="a" width="6" height="6" transform="translate(199.4 46.2)"/><rect class="a" width="6" height="6" transform="translate(210.7 46.2)"/><rect class="a" width="6" height="6" transform="translate(143.2 56.3)"/><rect class="a" width="6" height="6" transform="translate(154.4 56.3)"/><rect class="a" width="6" height="6" transform="translate(165.7 56.3)"/><rect class="a" width="6" height="6" transform="translate(176.9 56.3)"/><rect class="a" width="6" height="6" transform="translate(188.2 56.3)"/><rect class="a" width="6" height="6" transform="translate(131.9 66.3)"/><rect class="a" width="6" height="6" transform="translate(143.2 66.3)"/><rect class="a" width="6" height="6" transform="translate(154.4 66.3)"/><rect class="a" width="6" height="6" transform="translate(165.7 66.3)"/><rect class="a" width="6" height="6" transform="translate(176.9 66.3)"/><rect class="a" width="6" height="6" transform="translate(188.2 66.3)"/><rect class="a" width="6" height="6" transform="translate(199.4 66.3)"/><rect class="a" width="6" height="6" transform="translate(210.7 66.3)"/><rect class="a" width="6" height="6" transform="translate(131.9 76.4)"/><rect class="a" width="6" height="6" transform="translate(143.2 76.4)"/><rect class="a" width="6" height="6" transform="translate(154.4 76.4)"/><rect class="a" width="6" height="6" transform="translate(165.7 76.4)"/><rect class="a" width="6" height="6" transform="translate(176.9 76.4)"/><rect class="a" width="6" height="6" transform="translate(143.2 86.5)"/><rect class="a" width="6" height="6" transform="translate(154.4 86.5)"/><rect class="a" width="6" height="6" transform="translate(165.7 86.5)"/><rect class="a" width="6" height="6" transform="translate(176.9 86.5)"/><rect class="a" width="6" height="6" transform="translate(220.9 5.9)"/><rect class="a" width="6" height="6" transform="translate(220.9 16)"/><rect class="a" width="6" height="6" transform="translate(232.1 16)"/><rect class="a" width="6" height="6" transform="translate(220.9 26)"/><rect class="a" width="6" height="6" transform="translate(232.1 26)"/><rect class="a" width="6" height="6" transform="translate(220.9 36.1)"/><rect class="a" width="6" height="6" transform="translate(232.1 36.1)"/><rect class="a" width="6" height="6" transform="translate(243.4 36.1)"/><rect class="a" width="6" height="6" transform="translate(254.6 36.1)"/><rect class="a" width="6" height="6" transform="translate(265.9 36.1)"/><rect class="a" width="6" height="6" transform="translate(277.1 36.1)"/><rect class="a" width="6" height="6" transform="translate(220.9 46.2)"/><rect class="a" width="6" height="6" transform="translate(232.1 46.2)"/><rect class="a" width="6" height="6" transform="translate(243.4 46.2)"/><rect class="a" width="6" height="6" transform="translate(254.6 46.2)"/><rect class="a" width="6" height="6" transform="translate(265.9 46.2)"/><rect class="a" width="6" height="6" transform="translate(277.1 46.2)"/><rect class="a" width="6" height="6" transform="translate(220.9 56.3)"/><rect class="a" width="6" height="6" transform="translate(232.1 56.3)"/><rect class="a" width="6" height="6" transform="translate(243.4 56.3)"/><rect class="a" width="6" height="6" transform="translate(254.6 56.3)"/><rect class="a" width="6" height="6" transform="translate(220.9 66.3)"/><rect class="a" width="6" height="6" transform="translate(232.1 66.3)"/><rect class="a" width="6" height="6" transform="translate(243.4 66.3)"/><rect class="a" width="6" height="6" transform="translate(254.6 66.3)"/><rect class="a" width="6" height="6" transform="translate(265.9 66.3)"/><rect class="a" width="6" height="6" transform="translate(277.1 66.3)"/><rect class="a" width="6" height="6" transform="translate(220.9 76.4)"/><rect class="a" width="6" height="6" transform="translate(232.1 76.4)"/><rect class="a" width="6" height="6" transform="translate(243.4 76.4)"/><rect class="a" width="6" height="6" transform="translate(220.9 86.5)"/><rect class="a" width="6" height="6" transform="translate(232.1 86.5)"/><rect class="a" width="6" height="6" transform="translate(243.4 86.5)"/><rect class="a" width="6" height="6" transform="translate(41.1 0.1)"/><rect class="a" width="6" height="6" transform="translate(143.2 96.6)"/><rect class="a" width="6" height="6" transform="translate(154.4 96.6)"/><rect class="a" width="6" height="6" transform="translate(98.2 5.9)"/><rect class="a" width="6" height="6" transform="translate(109.4 5.9)"/><rect class="a" width="6" height="6" transform="translate(98.2 16)"/><rect class="a" width="6" height="6" transform="translate(109.4 16)"/><rect class="a" width="6" height="6" transform="translate(98.2 26)"/><rect class="a" width="6" height="6" transform="translate(109.4 26)"/><rect class="a" width="6" height="6" transform="translate(98.2 36.1)"/><rect class="a" width="6" height="6" transform="translate(109.4 36.1)"/><rect class="a" width="6" height="6" transform="translate(98.2 46.2)"/><rect class="a" width="6" height="6" transform="translate(109.4 46.2)"/><rect class="a" width="6" height="6" transform="translate(98.2 56.3)"/><rect class="a" width="6" height="6" transform="translate(109.4 56.3)"/><rect class="a" width="6" height="6" transform="translate(98.2 66.3)"/><rect class="a" width="6" height="6" transform="translate(109.4 66.3)"/><rect class="a" width="6" height="6" transform="translate(120.7 66.3)"/><rect class="a" width="6" height="6" transform="translate(98.2 76.4)"/><rect class="a" width="6" height="6" transform="translate(109.4 76.4)"/><rect class="a" width="6" height="6" transform="translate(120.7 76.4)"/><rect class="a" width="6" height="6" transform="translate(86.9 5.9)"/><rect class="a" width="6" height="6" transform="translate(86.9 16)"/><rect class="a" width="6" height="6" transform="translate(64.4 26)"/><rect class="a" width="6" height="6" transform="translate(75.7 26)"/><rect class="a" width="6" height="6" transform="translate(86.9 26)"/><rect class="a" width="6" height="6" transform="translate(38.1 268.6)"/><rect class="a" width="6" height="6" transform="translate(10.8 236.9)"/><rect class="a" width="6" height="6" transform="translate(49.4 268.6)"/><rect class="a" width="6" height="6" transform="translate(38.1 278.7)"/><rect class="a" width="6" height="6" transform="translate(49.4 278.7)"/><rect class="a" width="6" height="6" transform="translate(38.1 288.7)"/><rect class="a" width="6" height="6" transform="translate(49.4 288.7)"/><rect class="a" width="6" height="6" transform="translate(26.9 268.6)"/><rect class="a" width="6" height="6" transform="translate(26.9 278.7)"/><rect class="a" width="6" height="6" transform="translate(4.4 288.7)"/><rect class="a" width="6" height="6" transform="translate(15.6 288.7)"/><rect class="a" width="6" height="6" transform="translate(26.9 288.7)"/><rect class="a" width="6" height="6" transform="translate(38.1 299.5)"/><rect class="a" width="6" height="6" transform="translate(26.9 299.5)"/><rect class="a" width="6" height="6" transform="translate(64.4 36.1)"/><rect class="a" width="6" height="6" transform="translate(75.7 36.1)"/><rect class="a" width="6" height="6" transform="translate(86.9 36.1)"/><rect class="a" width="6" height="6" transform="translate(64.4 46.2)"/><rect class="a" width="6" height="6" transform="translate(75.7 46.2)"/><rect class="a" width="6" height="6" transform="translate(86.9 46.2)"/><rect class="a" width="6" height="6" transform="translate(97.4 146.3)"/><rect class="a" width="6" height="6" transform="translate(108.6 146.3)"/><rect class="a" width="6" height="6" transform="translate(142.4 146.3)"/><rect class="a" width="6" height="6" transform="translate(153.6 146.3)"/><rect class="a" width="6" height="6" transform="translate(164.9 146.3)"/><rect class="a" width="6" height="6" transform="translate(97.4 156.4)"/><rect class="a" width="6" height="6" transform="translate(108.6 156.4)"/><rect class="a" width="6" height="6" transform="translate(119.9 156.4)"/><rect class="a" width="6" height="6" transform="translate(131.1 156.4)"/><rect class="a" width="6" height="6" transform="translate(142.4 156.4)"/><rect class="a" width="6" height="6" transform="translate(153.6 156.4)"/><rect class="a" width="6" height="6" transform="translate(164.9 156.4)"/><rect class="a" width="6" height="6" transform="translate(97.4 166.4)"/><rect class="a" width="6" height="6" transform="translate(108.6 166.4)"/><rect class="a" width="6" height="6" transform="translate(119.9 166.4)"/><rect class="a" width="6" height="6" transform="translate(131.1 166.4)"/><rect class="a" width="6" height="6" transform="translate(142.4 166.4)"/><rect class="a" width="6" height="6" transform="translate(153.6 166.4)"/><rect class="a" width="6" height="6" transform="translate(164.9 166.4)"/><rect class="a" width="6" height="6" transform="translate(97.4 176.5)"/><rect class="a" width="6" height="6" transform="translate(108.6 176.5)"/><rect class="a" width="6" height="6" transform="translate(119.9 176.5)"/><rect class="a" width="6" height="6" transform="translate(131.1 176.5)"/><rect class="a" width="6" height="6" transform="translate(142.4 176.5)"/><rect class="a" width="6" height="6" transform="translate(153.6 176.5)"/><rect class="a" width="6" height="6" transform="translate(164.9 176.5)"/><rect class="a" width="6" height="6" transform="translate(97.4 186.6)"/><rect class="a" width="6" height="6" transform="translate(108.6 186.6)"/><rect class="a" width="6" height="6" transform="translate(119.9 186.6)"/><rect class="a" width="6" height="6" transform="translate(131.1 186.6)"/><rect class="a" width="6" height="6" transform="translate(142.4 186.6)"/><rect class="a" width="6" height="6" transform="translate(153.6 186.6)"/><rect class="a" width="6" height="6" transform="translate(164.9 186.6)"/><rect class="a" width="6" height="6" transform="translate(175.1 146.3)"/><rect class="a" width="6" height="6" transform="translate(175.1 156.4)"/><rect class="a" width="6" height="6" transform="translate(186.3 156.4)"/><rect class="a" width="6" height="6" transform="translate(175.1 166.4)"/><rect class="a" width="6" height="6" transform="translate(186.3 166.4)"/><rect class="a" width="6" height="6" transform="translate(175.1 176.5)"/><rect class="a" width="6" height="6" transform="translate(186.3 176.5)"/><rect class="a" width="6" height="6" transform="translate(197.6 176.5)"/><rect class="a" width="6" height="6" transform="translate(208.8 176.5)"/><rect class="a" width="6" height="6" transform="translate(175.1 186.6)"/><rect class="a" width="6" height="6" transform="translate(186.3 186.6)"/><rect class="a" width="6" height="6" transform="translate(197.6 186.6)"/><rect class="a" width="6" height="6" transform="translate(208.8 186.6)"/><rect class="a" width="6" height="6" transform="translate(52.4 146.3)"/><rect class="a" width="6" height="6" transform="translate(63.6 146.3)"/><rect class="a" width="6" height="6" transform="translate(52.4 156.4)"/><rect class="a" width="6" height="6" transform="translate(63.6 156.4)"/><rect class="a" width="6" height="6" transform="translate(52.4 166.4)"/><rect class="a" width="6" height="6" transform="translate(63.6 166.4)"/><rect class="a" width="6" height="6" transform="translate(52.4 176.5)"/><rect class="a" width="6" height="6" transform="translate(63.6 176.5)"/><rect class="a" width="6" height="6" transform="translate(52.4 186.6)"/><rect class="a" width="6" height="6" transform="translate(63.6 186.6)"/><rect class="a" width="6" height="6" transform="translate(41.1 146.3)"/><rect class="a" width="6" height="6" transform="translate(41.1 156.4)"/><rect class="a" width="6" height="6" transform="translate(18.6 166.4)"/><rect class="a" width="6" height="6" transform="translate(29.9 166.4)"/><rect class="a" width="6" height="6" transform="translate(41.1 166.4)"/><rect class="a" width="6" height="6" transform="translate(18.6 176.5)"/><rect class="a" width="6" height="6" transform="translate(29.9 176.5)"/><rect class="a" width="6" height="6" transform="translate(41.1 176.5)"/><rect class="a" width="6" height="6" transform="translate(18.6 186.6)"/><rect class="a" width="6" height="6" transform="translate(29.9 186.6)"/><rect class="a" width="6" height="6" transform="translate(41.1 186.6)"/><rect class="a" width="6" height="6" transform="translate(64.4 56.3)"/><rect class="a" width="6" height="6" transform="translate(75.7 56.3)"/><rect class="a" width="6" height="6" transform="translate(86.9 56.3)"/><rect class="a" width="6" height="6" transform="translate(64.4 66.3)"/><rect class="a" width="6" height="6" transform="translate(75.7 66.3)"/><rect class="a" width="6" height="6" transform="translate(86.9 66.3)"/><rect class="a" width="6" height="6" transform="translate(64.4 76.4)"/><rect class="a" width="6" height="6" transform="translate(75.7 76.4)"/><rect class="a" width="6" height="6" transform="translate(86.9 76.4)"/><rect class="a" width="6" height="6" transform="translate(64.4 86.5)"/><rect class="a" width="6" height="6" transform="translate(75.7 86.5)"/><rect class="a" width="6" height="6" transform="translate(64.4 96.6)"/><rect class="a" width="6" height="6" transform="translate(75.7 96.6)"/><rect class="a" width="6" height="6" transform="translate(165.7 96.6)"/><rect class="a" width="6" height="6" transform="translate(176.9 96.6)"/><rect class="a" width="6" height="6" transform="translate(289.2 5.9)"/><rect class="a" width="6" height="6" transform="translate(300.4 5.9)"/><rect class="a" width="6" height="6" transform="translate(334.2 5.9)"/><rect class="a" width="6" height="6" transform="translate(345.4 5.9)"/><rect class="a" width="6" height="6" transform="translate(356.7 5.9)"/><rect class="a" width="6" height="6" transform="translate(289.2 16)"/><rect class="a" width="6" height="6" transform="translate(300.4 16)"/><rect class="a" width="6" height="6" transform="translate(311.7 16)"/><rect class="a" width="6" height="6" transform="translate(322.9 16)"/><rect class="a" width="6" height="6" transform="translate(334.2 16)"/><rect class="a" width="6" height="6" transform="translate(345.4 16)"/><rect class="a" width="6" height="6" transform="translate(356.7 16)"/><rect class="a" width="6" height="6" transform="translate(289.2 26)"/><rect class="a" width="6" height="6" transform="translate(300.4 26)"/><rect class="a" width="6" height="6" transform="translate(311.7 26)"/><rect class="a" width="6" height="6" transform="translate(322.9 26)"/><rect class="a" width="6" height="6" transform="translate(334.2 26)"/><rect class="a" width="6" height="6" transform="translate(345.4 26)"/><rect class="a" width="6" height="6" transform="translate(356.7 26)"/><rect class="a" width="6" height="6" transform="translate(289.2 36.1)"/><rect class="a" width="6" height="6" transform="translate(300.4 36.1)"/><rect class="a" width="6" height="6" transform="translate(311.7 36.1)"/><rect class="a" width="6" height="6" transform="translate(322.9 36.1)"/><rect class="a" width="6" height="6" transform="translate(334.2 36.1)"/><rect class="a" width="6" height="6" transform="translate(345.4 36.1)"/><rect class="a" width="6" height="6" transform="translate(356.7 36.1)"/><rect class="a" width="6" height="6" transform="translate(289.2 46.2)"/><rect class="a" width="6" height="6" transform="translate(300.4 46.2)"/><rect class="a" width="6" height="6" transform="translate(311.7 46.2)"/><rect class="a" width="6" height="6" transform="translate(322.9 46.2)"/><rect class="a" width="6" height="6" transform="translate(334.2 46.2)"/><rect class="a" width="6" height="6" transform="translate(345.4 46.2)"/><rect class="a" width="6" height="6" transform="translate(356.7 46.2)"/><rect class="a" width="6" height="6" transform="translate(289.2 56.3)"/><rect class="a" width="6" height="6" transform="translate(300.4 56.3)"/><rect class="a" width="6" height="6" transform="translate(311.7 56.3)"/><rect class="a" width="6" height="6" transform="translate(322.9 56.3)"/><rect class="a" width="6" height="6" transform="translate(334.2 56.3)"/><rect class="a" width="6" height="6" transform="translate(289.2 66.3)"/><rect class="a" width="6" height="6" transform="translate(300.4 66.3)"/><rect class="a" width="6" height="6" transform="translate(311.7 66.3)"/><rect class="a" width="6" height="6" transform="translate(322.9 66.3)"/><rect class="a" width="6" height="6" transform="translate(334.2 66.3)"/><rect class="a" width="6" height="6" transform="translate(345.4 66.3)"/><rect class="a" width="6" height="6" transform="translate(356.7 66.3)"/><rect class="a" width="6" height="6" transform="translate(289.2 76.4)"/><rect class="a" width="6" height="6" transform="translate(300.4 76.4)"/><rect class="a" width="6" height="6" transform="translate(311.7 76.4)"/><rect class="a" width="6" height="6" transform="translate(322.9 76.4)"/><rect class="a" width="6" height="6" transform="translate(289.2 86.5)"/><rect class="a" width="6" height="6" transform="translate(300.4 86.5)"/><rect class="a" width="6" height="6" transform="translate(311.7 86.5)"/><rect class="a" width="6" height="6" transform="translate(322.9 86.5)"/><rect class="a" width="6" height="6" transform="translate(366.9 5.9)"/><rect class="a" width="6" height="6" transform="translate(366.9 16)"/><rect class="a" width="6" height="6" transform="translate(378.1 16)"/><rect class="a" width="6" height="6" transform="translate(366.9 26)"/><rect class="a" width="6" height="6" transform="translate(378.1 26)"/><rect class="a" width="6" height="6" transform="translate(366.9 36.1)"/><rect class="a" width="6" height="6" transform="translate(378.1 36.1)"/><rect class="a" width="6" height="6" transform="translate(389.4 36.1)"/><rect class="a" width="6" height="6" transform="translate(400.6 36.1)"/><rect class="a" width="6" height="6" transform="translate(411.9 36.1)"/><rect class="a" width="6" height="6" transform="translate(423.1 36.1)"/><rect class="a" width="6" height="6" transform="translate(366.9 46.2)"/><rect class="a" width="6" height="6" transform="translate(378.1 46.2)"/><rect class="a" width="6" height="6" transform="translate(389.4 46.2)"/><rect class="a" width="6" height="6" transform="translate(400.6 46.2)"/><rect class="a" width="6" height="6" transform="translate(411.9 46.2)"/><rect class="a" width="6" height="6" transform="translate(423.1 46.2)"/><rect class="a" width="6" height="6" transform="translate(366.9 56.3)"/><rect class="a" width="6" height="6" transform="translate(378.1 56.3)"/><rect class="a" width="6" height="6" transform="translate(389.4 56.3)"/><rect class="a" width="6" height="6" transform="translate(400.6 56.3)"/><rect class="a" width="6" height="6" transform="translate(366.9 66.3)"/><rect class="a" width="6" height="6" transform="translate(378.1 66.3)"/><rect class="a" width="6" height="6" transform="translate(389.4 66.3)"/><rect class="a" width="6" height="6" transform="translate(400.6 66.3)"/><rect class="a" width="6" height="6" transform="translate(411.9 66.3)"/><rect class="a" width="6" height="6" transform="translate(423.1 66.3)"/><rect class="a" width="6" height="6" transform="translate(366.9 76.4)"/><rect class="a" width="6" height="6" transform="translate(378.1 76.4)"/><rect class="a" width="6" height="6" transform="translate(389.4 76.4)"/><rect class="a" width="6" height="6" transform="translate(366.9 86.5)"/><rect class="a" width="6" height="6" transform="translate(378.1 86.5)"/><rect class="a" width="6" height="6" transform="translate(389.4 86.5)"/><rect class="a" width="6" height="6" transform="translate(390.2 128.5)"/><rect class="a" width="6" height="6" transform="translate(401.4 128.5)"/><rect class="a" width="6" height="6" transform="translate(412.7 128.5)"/><rect class="a" width="6" height="6" transform="translate(390.2 138.6)"/><rect class="a" width="6" height="6" transform="translate(401.4 138.6)"/><rect class="a" width="6" height="6" transform="translate(412.7 138.6)"/><rect class="a" width="6" height="6" transform="translate(390.2 148.7)"/><rect class="a" width="6" height="6" transform="translate(401.4 148.7)"/><rect class="a" width="6" height="6" transform="translate(412.7 148.7)"/><rect class="a" width="6" height="6" transform="translate(390.2 158.7)"/><rect class="a" width="6" height="6" transform="translate(401.4 158.7)"/><rect class="a" width="6" height="6" transform="translate(412.7 158.7)"/><rect class="a" width="6" height="6" transform="translate(390.2 168.8)"/><rect class="a" width="6" height="6" transform="translate(401.4 168.8)"/><rect class="a" width="6" height="6" transform="translate(412.7 168.8)"/><rect class="a" width="6" height="6" transform="translate(390.2 178.9)"/><rect class="a" width="6" height="6" transform="translate(390.2 189)"/><rect class="a" width="6" height="6" transform="translate(401.4 189)"/><rect class="a" width="6" height="6" transform="translate(412.7 189)"/><rect class="a" width="6" height="6" transform="translate(422.8 128.5)"/><rect class="a" width="6" height="6" transform="translate(422.8 138.6)"/><rect class="a" width="6" height="6" transform="translate(434.1 138.6)"/><rect class="a" width="6" height="6" transform="translate(422.8 148.7)"/><rect class="a" width="6" height="6" transform="translate(434.1 148.7)"/><rect class="a" width="6" height="6" transform="translate(422.8 158.7)"/><rect class="a" width="6" height="6" transform="translate(434.1 158.7)"/><rect class="a" width="6" height="6" transform="translate(445.3 158.7)"/><rect class="a" width="6" height="6" transform="translate(456.6 158.7)"/><rect class="a" width="6" height="6" transform="translate(467.8 158.7)"/><rect class="a" width="6" height="6" transform="translate(479.1 158.7)"/><rect class="a" width="6" height="6" transform="translate(422.8 168.8)"/><rect class="a" width="6" height="6" transform="translate(434.1 168.8)"/><rect class="a" width="6" height="6" transform="translate(445.3 168.8)"/><rect class="a" width="6" height="6" transform="translate(456.6 168.8)"/><rect class="a" width="6" height="6" transform="translate(467.8 168.8)"/><rect class="a" width="6" height="6" transform="translate(479.1 168.8)"/><rect class="a" width="6" height="6" transform="translate(422.8 178.9)"/><rect class="a" width="6" height="6" transform="translate(434.1 178.9)"/><rect class="a" width="6" height="6" transform="translate(445.3 178.9)"/><rect class="a" width="6" height="6" transform="translate(456.6 178.9)"/><rect class="a" width="6" height="6" transform="translate(422.8 189)"/><rect class="a" width="6" height="6" transform="translate(434.1 189)"/><rect class="a" width="6" height="6" transform="translate(445.3 189)"/><rect class="a" width="6" height="6" transform="translate(456.6 189)"/><rect class="a" width="6" height="6" transform="translate(467.8 189)"/><rect class="a" width="6" height="6" transform="translate(479.1 189)"/><rect class="a" width="6" height="6" transform="translate(422.8 199)"/><rect class="a" width="6" height="6" transform="translate(434.1 199)"/><rect class="a" width="6" height="6" transform="translate(445.3 199)"/><rect class="a" width="6" height="6" transform="translate(434.1 209.1)"/><rect class="a" width="6" height="6" transform="translate(445.3 209.1)"/><rect class="a" width="6" height="6" transform="translate(289.2 96.6)"/><rect class="a" width="6" height="6" transform="translate(300.4 96.6)"/><rect class="a" width="6" height="6" transform="translate(311.7 96.6)"/><rect class="a" width="6" height="6" transform="translate(322.9 96.6)"/><g transform="matrix(0.883, -0.469, 0.469, 0.883, -30.474, 105.772)"><path class="b" d="M398.1,187c-10.7,0-24.1-1.8-37.6-5.2-17.6-4.5-50-15.7-70-40.2l1.1-.9c34.1,41.8,110.2,50.2,124.8,41.7a47.541,47.541,0,0,0,13.4-11.5c-.1-.1-.3-.1-.4-.2-12-5.6-17.3-14.6-14-24.2,2.6-7.5,10-13.3,15.7-12,4.4,1,7.4,4.8,8.2,10.6,1.1,7.3-1.2,16.7-7.3,25.1,26.8,11.6,62.3,12,62.6,12v1.5c-.4,0-36.4-.4-63.5-12.3a47.967,47.967,0,0,1-14,12.2C413.3,185.9,406.5,187,398.1,187Zm31.2-51.2c-4.8,0-10.5,4.9-12.6,11.2-1.4,4.2-3,14.8,13.2,22.4a4.875,4.875,0,0,0,.7.3c6-8.1,8.3-17.2,7.2-24.3-.8-5.1-3.4-8.5-7.1-9.4A5.9,5.9,0,0,0,429.3,135.8Z"/></g><path class="c" d="M332.1,323.2h-1.5l-12.8-.3-.8.1-17.9-.4.5-1.2h0l-15.5-10.1c.1-.2-.4-.3-1.3-.4a31.02,31.02,0,0,0-4.9-.3l-185.4.3c-3.5,0-6.3.3-6.2.7L71,320l1.4,4.9a3.984,3.984,0,0,0,1.7.3l-46,2.6,3.2,1.7,2.2.8,53.4-.5-6.9.4-.2.6-10.9.8,2,1L303.6,336l6.9.1,14.5.2,1.2-.7-7.3-1.2.5-.4-6.6-.9h0l-.8-.1h0l-6-.8h0l-.8-.1h0l-4.4-.6-4.3-.7h-.1l-1.8-.3h.1l-1.3-.1H293l-1.4-.2-14.3-.2h-.4l-13.5-.2h-.2l-70-.9,149.4-1.5v-3.7Z"/><path class="d" d="M305.8,313.3h-2c-15.6-.6-28.3-6-37.5-16.2-9.1-9.9-14.7-24.1-16.6-41.8a180.318,180.318,0,0,0-27.4,6.9l-.6-1.7a171.3,171.3,0,0,1,27.9-7.1,138.582,138.582,0,0,1-.3-20.5c.5-9.3-4-16.5-13.2-21.2-28.8-14.9-100.7-2.5-132.7,22.7l-1.1-1.4c14.9-11.8,40.1-21.7,67.4-26.6,28.3-5.1,52.8-3.7,67.2,3.7,9.9,5.1,14.7,12.8,14.2,22.9a147.769,147.769,0,0,0,.3,20.1c15.8-2.5,35.7-3.3,54.2,2.4,24.4,7.5,33.1,23.9,30.9,36.8C334.2,305.2,322.3,313.3,305.8,313.3ZM251.5,255c1.9,17.3,7.3,31.2,16.1,40.8,8.9,9.8,21.1,15,36.2,15.6,16.5.6,28.6-7,30.7-19.4,2.1-12.1-6.3-27.5-29.6-34.7C286.8,251.7,267.1,252.6,251.5,255Z"/><path class="e" d="M296,78.9l-3.5,82.9L291.3,191a5.854,5.854,0,0,1-5.9,5.6H83.1a5.871,5.871,0,0,1-5.9-5.7L73.7,78.8a5.893,5.893,0,0,1,5.9-6.1H290.2A5.956,5.956,0,0,1,296,78.9Z"/><path class="f" d="M81.8,79.2l1.8,103.6,202-.2,3.7-103.8Z"/><path class="g" d="M77.3,190.9v-2.6l214.3-1.2-.2,3.9s.1,5.2-5.9,5.6H83.1S77.4,196.3,77.3,190.9Z"/><path class="h" d="M274.4,191.8a1.8,1.8,0,1,1-1.8-1.8A1.933,1.933,0,0,1,274.4,191.8Z"/><path class="i" d="M165.4,196.6l4.5,21.3h26.7l4.4-21.3Z"/><path class="j" d="M166.9,204l31.9,3.3,2.2-10.7H165.4Z"/><rect class="k" width="65.3" height="4.1" transform="translate(149.8 217.9)"/><path class="l" d="M215.1,217.9l-18-2.1H169.4l-19.6,2.1Z"/><path class="m" d="M199.7,222v-4.1H214l-.9,4.1Z"/><path class="m" d="M296,78.9l-3.5,82.9-1,8.4-3.7-4.7,3.1-87.9H183.3l-4.8-4.8H290.1A5.832,5.832,0,0,1,296,78.9Z"/><path class="n" d="M189.8,79l97.7,49.1,1.8-49.3Z"/><path class="m" d="M75.9,147.8l5.9,4.1,1,31.6h50.9l11.8,13.1H83.1a6.011,6.011,0,0,1-5.9-4.7Z"/><path class="n" d="M83.1,155l41.1,27.7-40.6.1Z"/><path class="o" d="M283.2,93.6l6.2-5.7s13.8-.1,21-1.1v9.5a93.3,93.3,0,0,1-20.5,1.9Z"/><path class="p" d="M12.3,175.6l6.4-3.7s11.9,2.5,18.2,3L35.1,183a81.852,81.852,0,0,1-17.9-2.2Z"/><path class="q" d="M283.2,111.8l5.3-4.2,19.7,1.2-1.9,9.5-18.2-1.8Z"/><path class="r" d="M288.8,138.2l-2.1,16.7s13.4.9,24.8,4.8l3.4-18.7S305.7,137.7,288.8,138.2Z"/><path class="s" d="M293.5,138.1l-.7,17.4-6.1-.6,2.1-16.7Z"/><path class="s" d="M294.4,117.1l.4-9.1-6.3-.4-5.3,4.2,4.9,4.7Z"/><path class="s" d="M295.6,87.9l-.4,10.4-5.3-.1-6.7-4.6,6.2-5.7Z"/><path class="t" d="M302.6,30.1s8.6-18.6,15.5-27l14,10.9s-12.4,12.2-18.3,23.1Z"/><path class="u" d="M83.6,208.7S70.4,221.3,62,226l-8.1-13.5s14.3-6.1,22.7-13.2Z"/><path class="v" d="M35.3,248.1,79,234.8l196.8-15.2,57.5,7.1Z"/><ellipse class="w" cx="3.5" cy="9.3" rx="3.5" ry="9.3" transform="translate(268.8 221.9)"/><path class="x" d="M223.2,223.6,142,237.5l-76.1,1.3,13.1-4Z"/><path class="y" d="M38.4,257l2,4.4,292.9-15.9v-5.6Z"/><path class="z" d="M103.1,243.2,323.5,225l9.8,1.7Z"/><path class="aa" d="M275.8,219.6v11.2L79.1,245.2,79,234.8Z"/><path class="ab" d="M38.4,257l-3.1-8.9,298-21.4v13.2Z"/><path class="ac" d="M288.8,242.5l-2.1-12.7,38.8-3.1L324.2,240Z"/><path class="ad" d="M48.2,256.5l-2.6-9.1,26.1-1.9.8,9.5Z"/><path class="ae" d="M310.5,285.9c-.3,5.1-12.3,8.4-26.8,7.5-14.4-1-25.9-5.9-25.5-11,.3-5.1,12.3-8.4,26.8-7.5C299.4,275.9,310.8,280.8,310.5,285.9Z"/><path class="af" d="M128,271.4c-.2,3.2-10.2,5.1-22.3,4.3s-21.7-4.1-21.5-7.3,10.2-5.1,22.3-4.3S128.3,268.2,128,271.4Z"/><path class="ag" d="M75.9,273,74,268l243.8,20.7-1.1,3.8Z"/><path class="ah" d="M74,268l46.6-18.9L288,261.5l29.8,27.2Z"/><path class="ai" d="M84.1,266.6l226.1,19,1.3-5.3L285,260.1,123.8,248.2,84.5,260.8Z"/><path class="aj" d="M84.5,260.8l227,19.5L285,260.1,123.8,248.2Z"/><path class="ak" d="M305.2,275.5,93.4,257.9l1.2-.4L304.5,275Z"/><path class="al" d="M298.8,270.7,102.7,254.9l1.1-.3,194.3,15.5Z"/><path class="am" d="M294.6,267.5,109.2,252.9l1.1-.4L294,267Z"/><path class="an" d="M290.3,263.6,115.9,250.7l1.3-.4,172.5,12.8Z"/><path class="ao" d="M288,261.5,121.9,248.8l.8-.3,164,12.7Z"/><path class="ap" d="M116.2,256l-.2-.4,5.4-2.2v.2l.1.2Z"/><path class="aq" d="M127.1,251.5l-.1-.5,4.4-1.8.2.4Z"/><path class="ar" d="M101.5,262.2l-1.2-.1,8.2-3.4.2.5Z"/><path class="as" d="M141.8,250.4l-.2-.4,1.2-.6.3.4Z"/><path class="at" d="M122.4,260.3h-.1v-.2l-.1-.2,6.5-3.3h0v.2l.1.2Z"/><path class="au" d="M133.2,254.8h0v-.3l-.1-.2,4.8-2.4.2.4Z"/><path class="av" d="M289.7,270l-3.4-3.2.3-.3,3.4,3.1Z"/><path class="aw" d="M282.1,263l-2-1.9.3-.4,2,1.9Z"/><path class="ax" d="M299.5,279.4l-4.8-4.8.3-.4,5.7,5.3Z"/><path class="ay" d="M277.1,266.1l-3.4-3.8.3-.3,3.4,3.8Z"/><path class="az" d="M283.9,273.7l-4-4.5.1-.2.1-.2h.1v.1l4.1,4.4Z"/><path class="ba" d="M272,260.5l-1.1-1.3.3-.3,1.1,1.2Z"/><path class="bb" d="M270.6,268.5h-.1l-1.9-3.1.4-.3,1.8,3-.2.1Z"/><path class="bc" d="M266.4,261.7l-1.1-1.8.4-.2,1.1,1.8Z"/><path class="bd" d="M275.6,277.2l-2.6-4.5.4-.2,2.9,4.8Z"/><path class="be" d="M258.3,259.3l-.5-1.1.5-.2.4,1.1Z"/><path class="bf" d="M263.4,271.9l-1.7-4.3.4-.1,1.7,4.2Z"/><path class="bg" d="M260.7,264.9h-.2l-1.5-3.7.5-.2,1.4,3.5-.2.1Z"/><path class="bh" d="M252.8,266.9l-1-2.9.5-.1.9,2.9Z"/><path class="bi" d="M250.7,260.5l-.6-1.8.4-.2.6,1.9Z"/><path class="bj" d="M255.5,275.5l-1.4-4.4.5-.1,1.7,4.5Z"/><path class="bk" d="M243.1,263.3l-.7-3.4.5-.1.7,3.4Z"/><path class="bl" d="M242,258l-.1-.3.5-.1.1.3Z"/><path class="bm" d="M244.5,270.3l-.8-4.2.4-.1.9,4.2Z"/><path class="bn" d="M234,259.2l-.1-1.8.5-.1.1,1.9Z"/><path class="bo" d="M234.7,273.7l-.2-4.3h.5l.2,4.3Z"/><path class="bp" d="M234.3,265.4l-.1-2.8.4-.1.2,2.8Z"/><path class="bq" d="M148.6,253.1l-.3-.5,4.2-2.5.2.4Z"/><path class="br" d="M129.6,264.9l-.3-.4,5.7-3.6.3.5Z"/><path class="bs" d="M140.7,258l-.3-.4,3.8-2.4.2.4Z"/><path class="bt" d="M155.7,256.5l-.3-.4,3.6-2.7.3.4Z"/><path class="bu" d="M161.7,252h-.1v-.3l-.1-.1.1-.2.3.4Z"/><path class="bv" d="M147.9,262.4l-.3-.4,4.6-3.5.3.4Z"/><path class="bw" d="M168,254.5l-.3-.4,2.2-1.8.3.4Z"/><path class="bx" d="M153.6,266.9l-.3-.4,3.7-3.7.4.4Z"/><path class="by" d="M161.7,259.7l-.3-.4,3-2.5.3.4Z"/><path class="bz" d="M173,257.9l-.3-.4,2.7-2.8.3.3Z"/><path class="ca" d="M166.8,264.2l-.3-.3.2-.3,3.5-3.6.4.4Z"/><path class="cb" d="M180.4,261.1l-.4-.3,1.9-2.5.4.3Z"/><path class="cc" d="M177.2,264.7v-.1l.5.1Z"/><path class="cd" d="M184.5,255.6l-.4-.2,1.4-1.9.2.1.2.1Z"/><path class="ce" d="M194.7,254.4l-.4-.2v-.1l.5.3Z"/><path class="cf" d="M188.5,265.5l-.4-.2,2-3.6.4.2Z"/><path class="cg" d="M192,259.3l-.4-.2,1.6-3,.5.2Z"/><path class="ch" d="M200,262.6l-.5-.1,1.1-2.7.4.2Z"/><path class="ci" d="M202.2,256.9l-.5-.2.8-2,.4.2v.1Z"/><path class="cj" d="M209.5,260.6l-.5-.1.8-3.1.5.1Z"/><path class="ck" d="M210.8,255.6l-.5-.1v-.1l.5.1Z"/><path class="cl" d="M207.8,267.2l-.5-.1,1-3.9.5.1Z"/><path class="cm" d="M218.8,258.1l-.5-.1.1-2h.5Z"/><path class="cn" d="M218.3,264h-.5l.2-2.7h.5Z"/><path class="co" d="M226.8,256.8v-.2l.5.1v.1Z"/><path class="cp" d="M226.6,268.6l.1-3.9h.5l-.1,3.9Z"/><path class="cq" d="M226.7,261.9l.1-3.2h.4V262Z"/><path class="cr" d="M86.7,266.8l.1,1.5,219.6,18.5,1.1-1.4Z"/><path class="n" d="M288.1,283.7l1.9-5.3,16.9,1.5-3.2,5Z"/><path class="n" d="M282.4,285.7l-1.2,3.9,21.7,1.7,1.7-3.7Z"/><path class="cs" d="M356.3,151.5l-4,11.4C354.5,156.6,357.7,152.5,356.3,151.5Zm-4,11.4-4,11.4C349.3,174,350.1,169.2,352.3,162.9Zm4-11.4-4,11.4C354.5,156.6,357.7,152.5,356.3,151.5Zm-4,11.4-4,11.4C349.3,174,350.1,169.2,352.3,162.9Zm11.5,9.9,3.9,2.2,4.2-11.4-4.5-.7a5.066,5.066,0,0,0,.2-1.3,38.175,38.175,0,0,0,.4-5.7l4.7-2.9-2.1-10.1-4.5,4.3a11.438,11.438,0,0,0-2.3-3.3,6.035,6.035,0,0,0-.8-.8l2.7-6.3-7.3-2.4h0l-1.8,6.4a11.055,11.055,0,0,0-4.9,1.2l-.8-6-8,6.1,1.9,5.4a28.7,28.7,0,0,0-3.9,5.7L337,151l-4.2,11.4,4.5.7a28.025,28.025,0,0,0-.6,7L332,173l2.1,10.1,4.5-4.3a12.7,12.7,0,0,0,3.1,4.1l-2.7,6.4,7.2,2.8,1.1-4.1.8-2.8a11.8,11.8,0,0,0,5-1.2l.8,6,8-6.1-1.9-5.4a38.367,38.367,0,0,0,3.2-4.4A13.9,13.9,0,0,1,363.8,172.8Zm-11.5-9.9c-2.2,6.3,0,12.8-4,11.4s-5.5-7.6-3.3-13.9,7.2-10.3,11.2-8.9C360.3,152.9,354.5,156.6,352.3,162.9Zm4-11.4-4,11.4C354.5,156.6,357.7,152.5,356.3,151.5Zm-4,11.4-4,11.4C349.3,174,350.1,169.2,352.3,162.9Z"/><path class="ct" d="M367.7,175l4.2-11.4-4.3-2-.7-.3.4-6.3,4.7-2.3-1.6-9.8-10.3-3.4L362,144l3.6-7.3-7.3-2.4-3-1-7.2-2.8-1.3,4.9-6.3-3-8,6.1,2.4,6.6L327.4,166l-3.7,13.5,7.1.8-2.3,5.4,7.2,2.8,10.3,3.4-1.7-3.3-1-2,3.8,1.2,6.5,2.1,8-6.1-5-5.9,6.3-3.9ZM345,160.4c2.2-6.3,7.2-10.3,11.2-8.9l-4,11.4-4,11.4C344.3,172.9,342.8,166.7,345,160.4Z"/><path class="cu" d="M357.4,171.6l4.2-11.4-4.5-.7a27.637,27.637,0,0,0,.6-6.9l4.7-2.9-2.1-10.1-4.5,4.3a12.7,12.7,0,0,0-3.1-4.1l2.7-6.3-7.2-2.8-1.9,6.8a11.8,11.8,0,0,0-5,1.2l-.8-6-8,6.1,1.9,5.4a33.662,33.662,0,0,0-3.9,5.7l-3.9-2.2-4.2,11.4,4.5.7a27.637,27.637,0,0,0-.6,6.9l-4.7,2.9,2.1,10.1,4.5-4.3a12.7,12.7,0,0,0,3.1,4.1l-2.7,6.3,7.2,2.8,1.9-6.8a11.8,11.8,0,0,0,5-1.2l.8,6,8-6.1-1.9-5.4a33.662,33.662,0,0,0,3.9-5.7ZM338,171c-4-1.4-5.5-7.6-3.3-13.9s7.2-10.3,11.2-8.9,5.5,7.6,3.3,13.9S342,172.4,338,171Z"/><path class="cv" d="M372.7,152.9l-10.3-3.3-4.7,2.9,10.3,3.4Z"/><path class="cw" d="M361.7,183.9l-10.3-3.4-1.8-5.3,10.3,3.3Z"/><path class="cv" d="M352.6,139.7l5.7,1.7,1.9-1.9,3.8,1.2,1.7-4-10.3-3.3Z"/><path class="cv" d="M337.6,181.7l5.4,2.2-.4-3.4A8.529,8.529,0,0,1,337.6,181.7Z"/><path class="cx" d="M338.5,150.8l9.1,4.8a13.721,13.721,0,0,1,2.3-2.5S347.5,143.1,338.5,150.8Z"/><path class="cy" d="M111.5,174.4l-.1-5.6,154.3-2.6-.4,8.2Z"/><path class="cz" d="M112.8,170.2v3.1h79.1v-4.4Z"/><circle class="da" cx="34.7" cy="34.7" r="34.7" transform="translate(150.4 86.8)"/><path class="db" d="M185.5,106.1c6.5,0,11.3,3.9,13.7,9.3l-4.5-.1,11.6,9.8,5.9-13.7-4.9,2.2c-4.3-9-11.3-13.4-21.7-13.4-10.9,0-20.4,7.7-22.4,17.9l6.4.1A16.265,16.265,0,0,1,185.5,106.1Z"/><path class="dc" d="M201.5,127.1c-1.7,7.7-8.4,12.2-16,12.2-6.2,0-10.8-3.7-13.3-8.8l4.3-1.1-.1-1.1-11.5-7.2-5.5,11.6-.3,1.1,5.6-1.3c3.7,8.1,11.7,12.7,20.8,12.7a22.424,22.424,0,0,0,22-18l-.1-1.1Z"/><path class="dd" d="M185.3,105c6.5,0,11.3,3.9,13.7,9.3l-4.4,1L206,124l6-12.5-5.1,1.1c-4.3-9-11.3-13.4-21.7-13.4a22.424,22.424,0,0,0-22,18h6A16.739,16.739,0,0,1,185.3,105Z"/><path class="de" d="M201.4,126c-1.7,7.7-8.4,12.2-16,12.2-6.2,0-10.8-3.7-13.3-8.8l4.3-1.1L164.8,120l-5.4,12.7,5.2-1.3c3.7,8.1,11.7,12.7,20.8,12.7a22.424,22.424,0,0,0,22-18h-6Z"/><path class="df" d="M160.6,97.2a9.12,9.12,0,0,0,7.9-1.7c4.1-3,3.9-6.3,3.9-6.3A32.722,32.722,0,0,0,160.6,97.2Z"/><path class="df" d="M210,142.2a8.126,8.126,0,0,1,4.3-5.8A7.232,7.232,0,0,1,210,142.2Z"/><path class="dg" d="M42,124.6c-.1-.1-.1-.2-.2-.3l2.3-1c-2.3-4.3-3.7-6.5-6.4-9l-.2,4a9.145,9.145,0,0,0-4.7-2.8l-1.7-5.2c-2.3-.3-3.3.4-4.5,2.3l3.2,4.4a8.852,8.852,0,0,0-.3,5.5l-3.3-2.2a37.331,37.331,0,0,0,3.7,10.4l2.1-1.2a.1.1,0,0,0,.1.1,26.11,26.11,0,0,0,4.5,6.3l-.3,3.6c2.7,2.6,4.2,3.7,6.7,4.1l-1.8-5a3.458,3.458,0,0,0,1.8-.2,2.775,2.775,0,0,0,1.3-1.5l3,4.4c1-2.3,1.1-4.1.5-7.9l-3.3-1.9A23.306,23.306,0,0,0,42,124.6Zm-7.1,3.7c-1.4-2.7-1.6-5.3-.4-5.9s3.2,1.1,4.6,3.7c1.4,2.7,1.6,5.3.4,5.9C38.4,132.6,36.3,131,34.9,128.3Z"/><path class="dh" d="M26.6,112.7l1.8-2,7.1-5.2,5,7.6,4.9-3.7,2.4,5.3,1.4,9.2,6.6,14.7-5.2,1.3.6,1.2-8.1,2.8s-5.1-1.3-6.7-4.1l1.2-4.2-4.4-5.2-3.1.6-3.7-10.4,3.2-2,1.3-1.9Z"/><path class="di" d="M50.1,120.5c-.1-.1-.1-.2-.2-.3l2.5-1c-2.5-4.7-4-7-6.9-9.7l-.2,4.3c-1.8-1.7-3.5-2.8-5-3l-1.9-5.6c-2.4-.3-3.5.4-4.8,2.5l3.5,4.8a10.092,10.092,0,0,0-.4,5.9l-3.6-2.3c.7,3.9,1.9,6.8,3.9,11.2l2.3-1.3c0,.1,0,.1.1.2a27.468,27.468,0,0,0,4.8,6.7l-.4,3.9c2.9,2.8,4.5,3.9,7.2,4.4l-1.9-5.3a3.4,3.4,0,0,0,2-.3,3.168,3.168,0,0,0,1.4-1.6l3.2,4.7c1-2.4,1.2-4.4.5-8.5l-3.5-2A21.947,21.947,0,0,0,50.1,120.5Zm-7.6,3.9c-1.5-2.8-1.7-5.7-.4-6.3,1.2-.6,3.5,1.1,4.9,4,1.5,2.8,1.7,5.7.4,6.3C46.2,129.1,44,127.3,42.5,124.4Z"/><path class="cv" d="M29.9,117.1l7.2-4.7-3.5-4.7-7,5Z"/><path class="cv" d="M29.9,130.9l7.2-3.7,2.3-1.3,2.1,3.5-6.8,4.5a10.353,10.353,0,0,1-2.1-3.5Z"/><path class="cw" d="M36.2,139.7l7.7-3.1.3-3.8-7.6,3.3Z"/><g transform="translate(85.4 83.1)"><path class="dj" d="M6.1,25.2a2.726,2.726,0,0,0-2.1.786v9.586H9.029V28.343C9.029,26.3,7.876,25.2,6.1,25.2Z" transform="translate(0 -10.571)"/><path class="dj" d="M22.733,25.2c-1.781,0-2.933,1.1-2.933,3.143v7.229h5.867V28.343C25.667,26.3,24.514,25.2,22.733,25.2Z" transform="translate(-7.524 -10.571)"/><path class="dj" d="M21.81,3H4v9.69a5.068,5.068,0,0,1,2.986-.943,5.014,5.014,0,0,1,4.61,2.514,5.2,5.2,0,0,1,4.452-2.514c3.143,0,5.343,1.99,5.343,5.6V25H26V7.19A4.2,4.2,0,0,0,21.81,3Z" transform="translate(0 0)"/></g><path class="dk" d="M74.5,105.5l36.9-32.7H84.3L74,84.9Z"/><path class="dl" d="M126.5,54.9l-4.2-4.6-7.8,11-6.2-3.5L106.2,51l11.4-7-4.3-4.7c-9.4.6-15.9,8.2-15.9,8.2C95,52,95.3,60.7,95.3,60.7L52.9,91.3A8.487,8.487,0,0,0,55,97.6s5.1,6.8,8.8,7.2l39-35s8.3,2.1,13.3.7C116.1,70.6,123.9,63.9,126.5,54.9Z"/><path class="dm" d="M124.7,53.2,122,49.9l-9.3,9.7-6.2-3.5-2.1-6.8,11.4-7L113.1,39c-9.4.6-17.5,6.8-17.5,6.8-2.4,4.5-2.2,15.9-2.2,15.9L51.1,89.6c-.4,3.7,7.2,13.1,10.9,13.5l39-35s8.3,2.1,13.3.7C114.3,68.9,122.1,62.3,124.7,53.2Z"/><path class="dn" d="M114.3,68.9l1.8,1.7a29.628,29.628,0,0,0,6.7-7.8l-1.7-1.9A60.891,60.891,0,0,1,114.3,68.9Z"/><path class="do" d="M120.2,62.1,93.6,55.8l-.1,6-5.6,3.9,11.7,3.8,1.4-1.2s8,2.4,13.3.7A58.456,58.456,0,0,0,120.2,62.1Z"/><path class="df" d="M112.6,69.3l3-1.6s-.4,1.3-1,1.6A4.2,4.2,0,0,1,112.6,69.3Z"/><path class="dp" d="M101,68.2l-7.4-9.3-.1,2.8,6.1,7.7,3.2.4Z"/><path class="dq" d="M56.8,90.3l35-24.6,2.7,3.4L62.6,96.7S59.2,95.7,56.8,90.3Z"/><path class="dr" d="M62.6,96.7a11.525,11.525,0,0,1-4.2-5.2L91.8,67.3l2.7,1.8-2.7-3.4-35,24.6A10.309,10.309,0,0,0,62.6,96.7Z"/></g></svg>