<svg xmlns="http://www.w3.org/2000/svg" width="89.001" height="94.72" viewBox="0 0 89.001 94.72"><defs><style>.a{fill:#535677;}.b{fill:#000537;stroke:rgba(0,0,0,0);stroke-miterlimit:10;}</style></defs><g transform="translate(0.5)"><path class="a" d="M0,0H79.964c4.418,0,8,3.9,8,8.71V94.72H0Z" transform="translate(0.537)"/><path class="b" d="M32.462,47.163H19.723V19.316c0-7.636-4.184-12.194-11.193-12.194C4.914,7.122,1.964,8.284,0,10.483V-.041a17.859,17.859,0,0,1,5.418-2.9,20.671,20.671,0,0,1,6.569-1.041A21.949,21.949,0,0,1,22.5-1.512a17.714,17.714,0,0,1,7.234,7.178,18.819,18.819,0,0,1,7.109-6.973A20.686,20.686,0,0,1,47.022-3.981c6.087,0,11.228,1.924,14.867,5.563a18.6,18.6,0,0,1,4.264,6.761,26.577,26.577,0,0,1,1.526,9.244V47.161H54.94V19.316c0-7.636-4.184-12.194-11.193-12.194-7.171,0-11.284,4.445-11.284,12.194V47.162Z" transform="translate(0 37.562)"/></g></svg>