<svg xmlns="http://www.w3.org/2000/svg" xmlns:xlink="http://www.w3.org/1999/xlink" width="466.5" height="223.6" viewBox="0 0 466.5 223.6"><defs><style>.a{fill:#e3d5f2;}.b{fill:#ea99cb;}.c{fill:#e5c4e6;}.d{fill:#fb0e70;}.e{fill:#ff57ab;}.f{fill:#efe8ff;}.g{fill:#eaabec;}.h{fill:#f3519c;}.i{fill:#e4d4f1;}.j,.k,.l,.m,.n,.o,.p,.q,.r,.s,.t,.u,.v,.w,.x,.y,.z{fill-rule:evenodd;}.j{fill:url(#a);}.k{fill:url(#b);}.l{fill:url(#c);}.m{fill:#8b1756;}.m,.o{opacity:0.5;}.n{fill:#fbd99a;}.o,.v{fill:#601734;}.p{fill:url(#d);}.q{fill:url(#e);}.r{fill:url(#f);}.s{fill:#bdafd2;}.t{fill:#fff;}.u{fill:url(#g);}.v{opacity:0.2;}.w{fill:url(#h);}.x{fill:url(#i);}.y{fill:url(#j);}.z{fill:url(#k);}</style><linearGradient id="a" x1="0.447" y1="0.815" x2="0.28" y2="-0.197" gradientUnits="objectBoundingBox"><stop offset="0.002" stop-color="#c93347"/><stop offset="1" stop-color="#ff7527"/></linearGradient><linearGradient id="b" x1="0.412" y1="0.833" x2="0.412" y2="-0.141" xlink:href="#a"/><linearGradient id="c" x1="-0.53" y1="1.595" x2="-0.638" y2="0.943" gradientUnits="objectBoundingBox"><stop offset="0" stop-color="#ffa700"/><stop offset="1" stop-color="#ffd328"/></linearGradient><radialGradient id="d" cx="0.51" cy="0.531" r="0.489" gradientTransform="matrix(0.687, 0.635, -0.564, 0.773, 1.135, 0.36)" gradientUnits="objectBoundingBox"><stop offset="0" stop-color="#b3819d"/><stop offset="1" stop-color="#785ca6"/></radialGradient><radialGradient id="e" cx="0.51" cy="0.52" r="0.498" gradientTransform="matrix(0.673, 0.635, -0.553, 0.773, 1.135, 0.376)" gradientUnits="objectBoundingBox"><stop offset="0" stop-color="#ebd7e3"/><stop offset="0.983" stop-color="#bdafd2"/></radialGradient><linearGradient id="f" x1="-3.185" y1="19.875" x2="-3.185" y2="18.798" gradientUnits="objectBoundingBox"><stop offset="0" stop-color="#683b55"/><stop offset="0.189" stop-color="#4f2d40"/><stop offset="0.55" stop-color="#24151e"/><stop offset="0.832" stop-color="#0a0608"/><stop offset="1"/></linearGradient><radialGradient id="g" cx="0.501" cy="0.504" r="0.465" gradientTransform="translate(-0.086) scale(1.172 1)" xlink:href="#d"/><radialGradient id="h" cx="0.501" cy="0.5" r="0.557" gradientTransform="translate(0.089) scale(0.822 1)" xlink:href="#d"/><linearGradient id="i" x1="0.643" y1="1.145" x2="0.643" y2="0.063" xlink:href="#a"/><linearGradient id="j" x1="0.602" y1="1.152" x2="0.602" y2="0.144" xlink:href="#a"/><linearGradient id="k" x1="0.675" y1="1.237" x2="0.675" y2="0.164" xlink:href="#c"/></defs><rect class="a" width="6" height="6" transform="translate(124.6 211.8)"/><rect class="a" width="6" height="6" transform="translate(135.8 211.8)"/><rect class="b" width="6" height="6" transform="translate(169.6 211.8)"/><rect class="b" width="6" height="6" transform="translate(180.8 211.8)"/><rect class="b" width="6" height="6" transform="translate(192.1 211.8)"/><rect class="c" width="6" height="6" transform="translate(124.6 201.7)"/><rect class="c" width="6" height="6" transform="translate(135.8 201.7)"/><rect class="b" width="6" height="6" transform="translate(147.1 201.7)"/><rect class="b" width="6" height="6" transform="translate(158.3 201.7)"/><rect class="d" width="6" height="6" transform="translate(169.6 201.7)"/><rect class="d" width="6" height="6" transform="translate(180.8 201.7)"/><rect class="e" width="6" height="6" transform="translate(192.1 201.7)"/><rect class="c" width="6" height="6" transform="translate(124.6 191.7)"/><rect class="b" width="6" height="6" transform="translate(135.8 191.7)"/><rect class="d" width="6" height="6" transform="translate(147.1 191.7)"/><rect class="d" width="6" height="6" transform="translate(158.3 191.7)"/><rect class="d" width="6" height="6" transform="translate(169.6 191.7)"/><rect class="f" width="6" height="6" transform="translate(180.8 191.7)"/><rect class="d" width="6" height="6" transform="translate(192.1 191.7)"/><rect class="b" width="6" height="6" transform="translate(124.6 181.6)"/><rect class="b" width="6" height="6" transform="translate(135.8 181.6)"/><rect class="d" width="6" height="6" transform="translate(147.1 181.6)"/><rect class="f" width="6" height="6" transform="translate(158.3 181.6)"/><rect class="f" width="6" height="6" transform="translate(169.6 181.6)"/><rect class="f" width="6" height="6" transform="translate(180.8 181.6)"/><rect class="f" width="6" height="6" transform="translate(192.1 181.6)"/><rect class="b" width="6" height="6" transform="translate(124.6 171.5)"/><rect class="d" width="6" height="6" transform="translate(135.8 171.5)"/><rect class="d" width="6" height="6" transform="translate(147.1 171.5)"/><rect class="f" width="6" height="6" transform="translate(158.3 171.5)"/><rect class="f" width="6" height="6" transform="translate(169.6 171.5)"/><rect class="f" width="6" height="6" transform="translate(180.8 171.5)"/><rect class="f" width="6" height="6" transform="translate(192.1 171.5)"/><rect class="c" width="6" height="6" transform="translate(124.6 161.4)"/><rect class="b" width="6" height="6" transform="translate(135.8 161.4)"/><rect class="b" width="6" height="6" transform="translate(147.1 161.4)"/><rect class="d" width="6" height="6" transform="translate(158.3 161.4)"/><rect class="f" width="6" height="6" transform="translate(169.6 161.4)"/><rect class="f" width="6" height="6" transform="translate(113.3 151.4)"/><rect class="a" width="6" height="6" transform="translate(124.6 151.4)"/><rect class="c" width="6" height="6" transform="translate(135.8 151.4)"/><rect class="b" width="6" height="6" transform="translate(147.1 151.4)"/><rect class="d" width="6" height="6" transform="translate(158.3 151.4)"/><rect class="d" width="6" height="6" transform="translate(169.6 151.4)"/><rect class="f" width="6" height="6" transform="translate(180.8 151.4)"/><rect class="f" width="6" height="6" transform="translate(192.1 151.4)"/><rect class="f" width="6" height="6" transform="translate(113.3 141.3)"/><rect class="a" width="6" height="6" transform="translate(124.6 141.3)"/><rect class="c" width="6" height="6" transform="translate(135.8 141.3)"/><rect class="b" width="6" height="6" transform="translate(147.1 141.3)"/><rect class="b" width="6" height="6" transform="translate(158.3 141.3)"/><rect class="a" width="6" height="6" transform="translate(124.6 131.2)"/><rect class="a" width="6" height="6" transform="translate(135.8 131.2)"/><rect class="c" width="6" height="6" transform="translate(147.1 131.2)"/><rect class="c" width="6" height="6" transform="translate(158.3 131.2)"/><rect class="b" width="6" height="6" transform="translate(202.3 211.8)"/><rect class="b" width="6" height="6" transform="translate(202.3 201.7)"/><rect class="g" width="6" height="6" transform="translate(213.5 201.7)"/><rect class="d" width="6" height="6" transform="translate(202.3 191.7)"/><rect class="d" width="6" height="6" transform="translate(213.5 191.7)"/><rect class="d" width="6" height="6" transform="translate(202.3 181.6)"/><rect class="f" width="6" height="6" transform="translate(224.8 181.6)"/><rect class="f" width="6" height="6" transform="translate(236 181.6)"/><rect class="f" width="6" height="6" transform="translate(247.3 181.6)"/><rect class="f" width="6" height="6" transform="translate(258.5 181.6)"/><rect class="f" width="6" height="6" transform="translate(224.8 171.5)"/><rect class="f" width="6" height="6" transform="translate(236 171.5)"/><rect class="f" width="6" height="6" transform="translate(247.3 171.5)"/><rect class="f" width="6" height="6" transform="translate(258.5 171.5)"/><rect class="d" width="6" height="6" transform="translate(202.3 161.4)"/><rect class="f" width="6" height="6" transform="translate(224.8 161.4)"/><rect class="f" width="6" height="6" transform="translate(236 161.4)"/><rect class="f" width="6" height="6" transform="translate(224.8 151.4)"/><rect class="f" width="6" height="6" transform="translate(236 151.4)"/><rect class="f" width="6" height="6" transform="translate(247.3 151.4)"/><rect class="f" width="6" height="6" transform="translate(258.5 151.4)"/><rect class="g" width="6" height="6" transform="translate(202.3 141.3)"/><rect class="f" width="6" height="6" transform="translate(224.8 141.3)"/><rect class="g" width="6" height="6" transform="translate(202.3 131.2)"/><rect class="f" width="6" height="6" transform="translate(224.8 131.2)"/><rect class="f" width="6" height="6" transform="translate(22.5 217.6)"/><rect class="f" width="6" height="6" transform="translate(124.6 121.1)"/><rect class="f" width="6" height="6" transform="translate(135.8 121.1)"/><rect class="f" width="6" height="6" transform="translate(79.6 211.8)"/><rect class="f" width="6" height="6" transform="translate(90.8 211.8)"/><rect class="f" width="6" height="6" transform="translate(79.6 201.7)"/><rect class="f" width="6" height="6" transform="translate(90.8 201.7)"/><rect class="f" width="6" height="6" transform="translate(79.6 191.7)"/><rect class="f" width="6" height="6" transform="translate(90.8 191.7)"/><rect class="f" width="6" height="6" transform="translate(79.6 181.6)"/><rect class="f" width="6" height="6" transform="translate(90.8 181.6)"/><rect class="f" width="6" height="6" transform="translate(79.6 171.5)"/><rect class="f" width="6" height="6" transform="translate(90.8 171.5)"/><rect class="f" width="6" height="6" transform="translate(79.6 161.4)"/><rect class="f" width="6" height="6" transform="translate(90.8 161.4)"/><rect class="f" width="6" height="6" transform="translate(79.6 151.4)"/><rect class="f" width="6" height="6" transform="translate(90.8 151.4)"/><rect class="f" width="6" height="6" transform="translate(102.1 151.4)"/><rect class="f" width="6" height="6" transform="translate(79.6 141.3)"/><rect class="f" width="6" height="6" transform="translate(90.8 141.3)"/><rect class="f" width="6" height="6" transform="translate(102.1 141.3)"/><rect class="f" width="6" height="6" transform="translate(68.3 211.8)"/><rect class="f" width="6" height="6" transform="translate(68.3 201.7)"/><rect class="f" width="6" height="6" transform="translate(45.8 191.7)"/><rect class="f" width="6" height="6" transform="translate(57.1 191.7)"/><rect class="f" width="6" height="6" transform="translate(68.3 191.7)"/><rect class="f" width="6" height="6" transform="translate(22.5 20.1)"/><rect class="f" width="6" height="6" transform="translate(90.2 20.8)"/><rect class="f" width="6" height="6" transform="translate(33.8 20.1)"/><rect class="f" width="6" height="6" transform="translate(22.5 10)"/><rect class="f" width="6" height="6" transform="translate(22.5 0)"/><rect class="f" width="6" height="6" transform="translate(11.3 20.1)"/><rect class="f" width="6" height="6" transform="translate(11.3 10)"/><rect class="f" width="6" height="6" transform="translate(101.8 21)"/><rect class="f" width="6" height="6" transform="translate(90 10)"/><rect class="f" width="6" height="6" transform="translate(45.8 181.6)"/><rect class="f" width="6" height="6" transform="translate(57.1 181.6)"/><rect class="f" width="6" height="6" transform="translate(68.3 181.6)"/><rect class="f" width="6" height="6" transform="translate(45.8 171.5)"/><rect class="f" width="6" height="6" transform="translate(57.1 171.5)"/><rect class="f" width="6" height="6" transform="translate(68.3 171.5)"/><rect class="f" width="6" height="6" transform="translate(78.8 71.4)"/><rect class="f" width="6" height="6" transform="translate(90 71.4)"/><rect class="f" width="6" height="6" transform="translate(123.8 71.4)"/><rect class="f" width="6" height="6" transform="translate(135 71.4)"/><rect class="f" width="6" height="6" transform="translate(146.3 71.4)"/><rect class="f" width="6" height="6" transform="translate(78.8 61.3)"/><rect class="f" width="6" height="6" transform="translate(90 61.3)"/><rect class="f" width="6" height="6" transform="translate(101.3 61.3)"/><rect class="f" width="6" height="6" transform="translate(112.5 61.3)"/><rect class="f" width="6" height="6" transform="translate(123.8 61.3)"/><rect class="f" width="6" height="6" transform="translate(135 61.3)"/><rect class="f" width="6" height="6" transform="translate(146.3 61.3)"/><rect class="f" width="6" height="6" transform="translate(78.8 51.3)"/><rect class="f" width="6" height="6" transform="translate(90 51.3)"/><rect class="f" width="6" height="6" transform="translate(101.3 51.3)"/><rect class="f" width="6" height="6" transform="translate(112.5 51.3)"/><rect class="f" width="6" height="6" transform="translate(123.8 51.3)"/><rect class="f" width="6" height="6" transform="translate(135 51.3)"/><rect class="f" width="6" height="6" transform="translate(146.3 51.3)"/><rect class="f" width="6" height="6" transform="translate(78.8 41.2)"/><rect class="f" width="6" height="6" transform="translate(90 41.2)"/><rect class="f" width="6" height="6" transform="translate(101.3 41.2)"/><rect class="f" width="6" height="6" transform="translate(112.5 41.2)"/><rect class="f" width="6" height="6" transform="translate(123.8 41.2)"/><rect class="f" width="6" height="6" transform="translate(135 41.2)"/><rect class="f" width="6" height="6" transform="translate(146.3 41.2)"/><rect class="f" width="6" height="6" transform="translate(78.8 31.1)"/><rect class="f" width="6" height="6" transform="translate(90 31.1)"/><rect class="f" width="6" height="6" transform="translate(101.3 31.1)"/><rect class="f" width="6" height="6" transform="translate(112.5 31.1)"/><rect class="f" width="6" height="6" transform="translate(123.8 31.1)"/><rect class="f" width="6" height="6" transform="translate(156.5 71.4)"/><rect class="f" width="6" height="6" transform="translate(156.5 61.3)"/><rect class="f" width="6" height="6" transform="translate(167.7 61.3)"/><rect class="f" width="6" height="6" transform="translate(156.5 51.3)"/><rect class="f" width="6" height="6" transform="translate(167.7 51.3)"/><rect class="f" width="6" height="6" transform="translate(156.5 41.2)"/><rect class="f" width="6" height="6" transform="translate(167.7 41.2)"/><rect class="f" width="6" height="6" transform="translate(179 41.2)"/><rect class="f" width="6" height="6" transform="translate(190.2 41.2)"/><rect class="f" width="6" height="6" transform="translate(33.8 71.4)"/><rect class="f" width="6" height="6" transform="translate(45 71.4)"/><rect class="f" width="6" height="6" transform="translate(33.8 61.3)"/><rect class="f" width="6" height="6" transform="translate(45 61.3)"/><rect class="f" width="6" height="6" transform="translate(33.8 51.3)"/><rect class="f" width="6" height="6" transform="translate(45 51.3)"/><rect class="f" width="6" height="6" transform="translate(33.8 41.2)"/><rect class="f" width="6" height="6" transform="translate(45 41.2)"/><rect class="f" width="6" height="6" transform="translate(33.8 31.1)"/><rect class="f" width="6" height="6" transform="translate(45 31.1)"/><rect class="f" width="6" height="6" transform="translate(22.5 71.4)"/><rect class="f" width="6" height="6" transform="translate(22.5 61.3)"/><rect class="f" width="6" height="6" transform="translate(0 51.3)"/><rect class="f" width="6" height="6" transform="translate(11.3 51.3)"/><rect class="f" width="6" height="6" transform="translate(22.5 51.3)"/><rect class="f" width="6" height="6" transform="translate(0 41.2)"/><rect class="f" width="6" height="6" transform="translate(11.3 41.2)"/><rect class="f" width="6" height="6" transform="translate(22.5 41.2)"/><rect class="f" width="6" height="6" transform="translate(0 31.1)"/><rect class="f" width="6" height="6" transform="translate(11.3 31.1)"/><rect class="f" width="6" height="6" transform="translate(22.5 31.1)"/><rect class="f" width="6" height="6" transform="translate(45.8 161.4)"/><rect class="f" width="6" height="6" transform="translate(57.1 161.4)"/><rect class="f" width="6" height="6" transform="translate(68.3 161.4)"/><rect class="f" width="6" height="6" transform="translate(45.8 151.4)"/><rect class="f" width="6" height="6" transform="translate(57.1 151.4)"/><rect class="f" width="6" height="6" transform="translate(68.3 151.4)"/><rect class="f" width="6" height="6" transform="translate(45.8 141.3)"/><rect class="f" width="6" height="6" transform="translate(57.1 141.3)"/><rect class="f" width="6" height="6" transform="translate(68.3 141.3)"/><rect class="f" width="6" height="6" transform="translate(45.8 131.2)"/><rect class="f" width="6" height="6" transform="translate(57.1 131.2)"/><rect class="f" width="6" height="6" transform="translate(45.8 121.1)"/><rect class="f" width="6" height="6" transform="translate(57.1 121.1)"/><rect class="f" width="6" height="6" transform="translate(147.1 121.1)"/><rect class="f" width="6" height="6" transform="translate(158.3 121.1)"/><rect class="h" width="6" height="6" transform="translate(270.6 211.8)"/><rect class="b" width="6" height="6" transform="translate(281.8 211.8)"/><rect class="c" width="6" height="6" transform="translate(315.6 211.8)"/><rect class="a" width="6" height="6" transform="translate(326.8 211.8)"/><rect class="f" width="6" height="6" transform="translate(338.1 211.8)"/><rect class="d" width="6" height="6" transform="translate(270.6 201.7)"/><rect class="d" width="6" height="6" transform="translate(281.8 201.7)"/><rect class="f" width="6" height="6" transform="translate(293.1 201.7)"/><rect class="c" width="6" height="6" transform="translate(304.3 201.7)"/><rect class="c" width="6" height="6" transform="translate(315.6 201.7)"/><rect class="a" width="6" height="6" transform="translate(326.8 201.7)"/><rect class="f" width="6" height="6" transform="translate(338.1 201.7)"/><rect class="d" width="6" height="6" transform="translate(281.8 191.7)"/><rect class="d" width="6" height="6" transform="translate(293.1 191.7)"/><rect class="c" width="6" height="6" transform="translate(304.3 191.7)"/><rect class="c" width="6" height="6" transform="translate(315.6 191.7)"/><rect class="c" width="6" height="6" transform="translate(326.8 191.7)"/><rect class="a" width="6" height="6" transform="translate(338.1 191.7)"/><rect class="d" width="6" height="6" transform="translate(281.8 181.6)"/><rect class="d" width="6" height="6" transform="translate(293.1 181.6)"/><rect class="h" width="6" height="6" transform="translate(304.3 181.6)"/><rect class="c" width="6" height="6" transform="translate(315.6 181.6)"/><rect class="c" width="6" height="6" transform="translate(326.8 181.6)"/><rect class="c" width="6" height="6" transform="translate(338.1 181.6)"/><rect class="d" width="6" height="6" transform="translate(281.8 171.5)"/><rect class="d" width="6" height="6" transform="translate(293.1 171.5)"/><rect class="h" width="6" height="6" transform="translate(304.3 171.5)"/><rect class="b" width="6" height="6" transform="translate(315.6 171.5)"/><rect class="c" width="6" height="6" transform="translate(326.8 171.5)"/><rect class="c" width="6" height="6" transform="translate(338.1 171.5)"/><rect class="b" width="6" height="6" transform="translate(304.3 161.4)"/><rect class="b" width="6" height="6" transform="translate(315.6 161.4)"/><rect class="f" width="6" height="6" transform="translate(281.8 151.4)"/><rect class="f" width="6" height="6" transform="translate(293.1 151.4)"/><rect class="c" width="6" height="6" transform="translate(315.6 151.4)"/><rect class="c" width="6" height="6" transform="translate(326.8 151.4)"/><rect class="i" width="6" height="6" transform="translate(338.1 151.4)"/><rect class="f" width="6" height="6" transform="translate(270.6 141.3)"/><rect class="f" width="6" height="6" transform="translate(281.8 141.3)"/><rect class="f" width="6" height="6" transform="translate(270.6 131.2)"/><rect class="f" width="6" height="6" transform="translate(281.8 131.2)"/><rect class="g" width="6" height="6" transform="translate(304.3 131.2)"/><rect class="f" width="6" height="6" transform="translate(348.3 211.8)"/><rect class="f" width="6" height="6" transform="translate(348.3 201.7)"/><rect class="f" width="6" height="6" transform="translate(359.5 201.7)"/><rect class="f" width="6" height="6" transform="translate(348.3 191.7)"/><rect class="f" width="6" height="6" transform="translate(359.5 191.7)"/><rect class="a" width="6" height="6" transform="translate(348.3 181.6)"/><rect class="f" width="6" height="6" transform="translate(359.5 181.6)"/><rect class="f" width="6" height="6" transform="translate(370.8 181.6)"/><rect class="f" width="6" height="6" transform="translate(382 181.6)"/><rect class="f" width="6" height="6" transform="translate(393.3 181.6)"/><rect class="f" width="6" height="6" transform="translate(404.5 181.6)"/><rect class="a" width="6" height="6" transform="translate(348.3 171.5)"/><rect class="f" width="6" height="6" transform="translate(359.5 171.5)"/><rect class="f" width="6" height="6" transform="translate(370.8 171.5)"/><rect class="f" width="6" height="6" transform="translate(382 171.5)"/><rect class="f" width="6" height="6" transform="translate(393.3 171.5)"/><rect class="f" width="6" height="6" transform="translate(404.5 171.5)"/><rect class="f" width="6" height="6" transform="translate(348.3 161.4)"/><rect class="f" width="6" height="6" transform="translate(359.5 161.4)"/><rect class="f" width="6" height="6" transform="translate(370.8 161.4)"/><rect class="f" width="6" height="6" transform="translate(382 161.4)"/><rect class="f" width="6" height="6" transform="translate(348.3 151.4)"/><rect class="f" width="6" height="6" transform="translate(359.5 151.4)"/><rect class="f" width="6" height="6" transform="translate(370.8 151.4)"/><rect class="f" width="6" height="6" transform="translate(382 151.4)"/><rect class="f" width="6" height="6" transform="translate(393.3 151.4)"/><rect class="f" width="6" height="6" transform="translate(404.5 151.4)"/><rect class="f" width="6" height="6" transform="translate(348.3 141.3)"/><rect class="f" width="6" height="6" transform="translate(359.5 141.3)"/><rect class="f" width="6" height="6" transform="translate(370.8 141.3)"/><rect class="f" width="6" height="6" transform="translate(348.3 131.2)"/><rect class="f" width="6" height="6" transform="translate(359.5 131.2)"/><rect class="f" width="6" height="6" transform="translate(370.8 131.2)"/><rect class="f" width="6" height="6" transform="translate(371.6 89.2)"/><rect class="f" width="6" height="6" transform="translate(382.8 89.2)"/><rect class="f" width="6" height="6" transform="translate(394.1 89.2)"/><rect class="f" width="6" height="6" transform="translate(371.6 79.1)"/><rect class="f" width="6" height="6" transform="translate(382.8 79.1)"/><rect class="f" width="6" height="6" transform="translate(394.1 79.1)"/><rect class="f" width="6" height="6" transform="translate(371.6 69)"/><rect class="f" width="6" height="6" transform="translate(382.8 69)"/><rect class="f" width="6" height="6" transform="translate(394.1 69)"/><rect class="f" width="6" height="6" transform="translate(371.6 59)"/><rect class="f" width="6" height="6" transform="translate(382.8 59)"/><rect class="f" width="6" height="6" transform="translate(394.1 59)"/><rect class="f" width="6" height="6" transform="translate(371.6 48.9)"/><rect class="f" width="6" height="6" transform="translate(382.8 48.9)"/><rect class="f" width="6" height="6" transform="translate(394.1 48.9)"/><rect class="f" width="6" height="6" transform="translate(371.6 38.8)"/><rect class="f" width="6" height="6" transform="translate(371.6 28.7)"/><rect class="f" width="6" height="6" transform="translate(394.1 28.7)"/><rect class="f" width="6" height="6" transform="translate(404.2 89.2)"/><rect class="f" width="6" height="6" transform="translate(404.2 79.1)"/><rect class="f" width="6" height="6" transform="translate(415.5 79.1)"/><rect class="f" width="6" height="6" transform="translate(404.2 69)"/><rect class="f" width="6" height="6" transform="translate(415.5 69)"/><rect class="f" width="6" height="6" transform="translate(404.2 59)"/><rect class="f" width="6" height="6" transform="translate(415.5 59)"/><rect class="f" width="6" height="6" transform="translate(426.7 59)"/><rect class="f" width="6" height="6" transform="translate(438 59)"/><rect class="f" width="6" height="6" transform="translate(449.2 59)"/><rect class="f" width="6" height="6" transform="translate(460.5 59)"/><rect class="f" width="6" height="6" transform="translate(404.2 48.9)"/><rect class="f" width="6" height="6" transform="translate(415.5 48.9)"/><rect class="f" width="6" height="6" transform="translate(426.7 48.9)"/><rect class="f" width="6" height="6" transform="translate(438 48.9)"/><rect class="f" width="6" height="6" transform="translate(449.2 48.9)"/><rect class="f" width="6" height="6" transform="translate(460.5 48.9)"/><rect class="f" width="6" height="6" transform="translate(404.2 38.8)"/><rect class="f" width="6" height="6" transform="translate(415.5 38.8)"/><rect class="f" width="6" height="6" transform="translate(426.7 38.8)"/><rect class="f" width="6" height="6" transform="translate(438 38.8)"/><rect class="f" width="6" height="6" transform="translate(404.2 28.7)"/><rect class="f" width="6" height="6" transform="translate(415.5 28.7)"/><rect class="f" width="6" height="6" transform="translate(426.7 28.7)"/><rect class="f" width="6" height="6" transform="translate(438 28.7)"/><rect class="f" width="6" height="6" transform="translate(460.5 28.7)"/><rect class="f" width="6" height="6" transform="translate(404.2 18.7)"/><rect class="f" width="6" height="6" transform="translate(415.5 18.7)"/><rect class="f" width="6" height="6" transform="translate(426.7 18.7)"/><rect class="f" width="6" height="6" transform="translate(415.5 8.6)"/><rect class="f" width="6" height="6" transform="translate(426.7 8.6)"/><g transform="translate(-979.2 -1074)"><g transform="translate(45.815 -199)"><g transform="translate(834.8 1284.717)"><path class="j" d="M356.3,151.5l-4,11.4C354.5,156.6,357.7,152.5,356.3,151.5Zm-4,11.4-4,11.4C349.3,174,350.1,169.2,352.3,162.9Zm4-11.4-4,11.4C354.5,156.6,357.7,152.5,356.3,151.5Zm-4,11.4-4,11.4C349.3,174,350.1,169.2,352.3,162.9Zm11.5,9.9,3.9,2.2,4.2-11.4-4.5-.7a5.066,5.066,0,0,0,.2-1.3,38.175,38.175,0,0,0,.4-5.7l4.7-2.9-2.1-10.1-4.5,4.3a11.438,11.438,0,0,0-2.3-3.3,6.035,6.035,0,0,0-.8-.8l2.7-6.3-7.3-2.4h0l-1.8,6.4a11.055,11.055,0,0,0-4.9,1.2l-.8-6-8,6.1,1.9,5.4a28.7,28.7,0,0,0-3.9,5.7L337,151l-4.2,11.4,4.5.7a28.025,28.025,0,0,0-.6,7L332,173l2.1,10.1,4.5-4.3a12.7,12.7,0,0,0,3.1,4.1l-2.7,6.4,7.2,2.8,1.1-4.1.8-2.8a11.8,11.8,0,0,0,5-1.2l.8,6,8-6.1-1.9-5.4a38.367,38.367,0,0,0,3.2-4.4A13.9,13.9,0,0,1,363.8,172.8Zm-11.5-9.9c-2.2,6.3,0,12.8-4,11.4s-5.5-7.6-3.3-13.9,7.2-10.3,11.2-8.9C360.3,152.9,354.5,156.6,352.3,162.9Zm4-11.4-4,11.4C354.5,156.6,357.7,152.5,356.3,151.5Zm-4,11.4-4,11.4C349.3,174,350.1,169.2,352.3,162.9Z"/><path class="k" d="M367.7,175l4.2-11.4-4.3-2-.7-.3.4-6.3,4.7-2.3-1.6-9.8-10.3-3.4L362,144l3.6-7.3-7.3-2.4-3-1-7.2-2.8-1.3,4.9-6.3-3-8,6.1,2.4,6.6L327.4,166l-3.7,13.5,7.1.8-2.3,5.4,7.2,2.8,10.3,3.4-1.7-3.3-1-2,3.8,1.2,6.5,2.1,8-6.1-5-5.9,6.3-3.9ZM345,160.4c2.2-6.3,7.2-10.3,11.2-8.9l-4,11.4-4,11.4C344.3,172.9,342.8,166.7,345,160.4Z"/><path class="l" d="M357.4,171.6l4.2-11.4-4.5-.7a27.637,27.637,0,0,0,.6-6.9l4.7-2.9-2.1-10.1-4.5,4.3a12.7,12.7,0,0,0-3.1-4.1l2.7-6.3-7.2-2.8-1.9,6.8a11.8,11.8,0,0,0-5,1.2l-.8-6-8,6.1,1.9,5.4a33.662,33.662,0,0,0-3.9,5.7l-3.9-2.2-4.2,11.4,4.5.7a27.637,27.637,0,0,0-.6,6.9l-4.7,2.9,2.1,10.1,4.5-4.3a12.7,12.7,0,0,0,3.1,4.1l-2.7,6.3,7.2,2.8,1.9-6.8a11.8,11.8,0,0,0,5-1.2l.8,6,8-6.1-1.9-5.4a33.662,33.662,0,0,0,3.9-5.7ZM338,171c-4-1.4-5.5-7.6-3.3-13.9s7.2-10.3,11.2-8.9,5.5,7.6,3.3,13.9S342,172.4,338,171Z"/><path class="m" d="M372.7,152.9l-10.3-3.3-4.7,2.9,10.3,3.4Z"/><path class="n" d="M361.7,183.9l-10.3-3.4-1.8-5.3,10.3,3.3Z"/><path class="m" d="M352.6,139.7l5.7,1.7,1.9-1.9,3.8,1.2,1.7-4-10.3-3.3Z"/><path class="m" d="M337.6,181.7l5.4,2.2-.4-3.4A8.529,8.529,0,0,1,337.6,181.7Z"/><path class="o" d="M338.5,150.8l9.1,4.8a13.721,13.721,0,0,1,2.3-2.5S347.5,143.1,338.5,150.8Z"/></g></g><g transform="translate(1103.714 1162.717)"><path class="p" d="M126.5,54.9l-4.2-4.6-7.8,11-6.2-3.5L106.2,51l11.4-7-4.3-4.7c-9.4.6-15.9,8.2-15.9,8.2C95,52,95.3,60.7,95.3,60.7L52.9,91.3A8.487,8.487,0,0,0,55,97.6s5.1,6.8,8.8,7.2l39-35s8.3,2.1,13.3.7C116.1,70.6,123.9,63.9,126.5,54.9Z"/><path class="q" d="M124.7,53.2,122,49.9l-9.3,9.7-6.2-3.5-2.1-6.8,11.4-7L113.1,39c-9.4.6-17.5,6.8-17.5,6.8-2.4,4.5-2.2,15.9-2.2,15.9L51.1,89.6c-.4,3.7,7.2,13.1,10.9,13.5l39-35s8.3,2.1,13.3.7C114.3,68.9,122.1,62.3,124.7,53.2Z"/><path class="r" d="M114.3,68.9l1.8,1.7a29.628,29.628,0,0,0,6.7-7.8l-1.7-1.9A60.891,60.891,0,0,1,114.3,68.9Z"/><path class="s" d="M120.2,62.1,93.6,55.8l-.1,6-5.6,3.9,11.7,3.8,1.4-1.2s8,2.4,13.3.7A58.456,58.456,0,0,0,120.2,62.1Z"/><path class="t" d="M112.6,69.3l3-1.6s-.4,1.3-1,1.6A4.2,4.2,0,0,1,112.6,69.3Z"/><path class="u" d="M101,68.2l-7.4-9.3-.1,2.8,6.1,7.7,3.2.4Z"/><path class="v" d="M56.8,90.3l35-24.6,2.7,3.4L62.6,96.7S59.2,95.7,56.8,90.3Z"/><path class="w" d="M62.6,96.7a11.525,11.525,0,0,1-4.2-5.2L91.8,67.3l2.7,1.8-2.7-3.4-35,24.6A10.309,10.309,0,0,0,62.6,96.7Z"/></g><g transform="translate(1222.6 1091.717)"><path class="x" d="M42,124.6c-.1-.1-.1-.2-.2-.3l2.3-1c-2.3-4.3-3.7-6.5-6.4-9l-.2,4a9.145,9.145,0,0,0-4.7-2.8l-1.7-5.2c-2.3-.3-3.3.4-4.5,2.3l3.2,4.4a8.852,8.852,0,0,0-.3,5.5l-3.3-2.2a37.331,37.331,0,0,0,3.7,10.4l2.1-1.2a.1.1,0,0,0,.1.1,26.11,26.11,0,0,0,4.5,6.3l-.3,3.6c2.7,2.6,4.2,3.7,6.7,4.1l-1.8-5a3.458,3.458,0,0,0,1.8-.2,2.775,2.775,0,0,0,1.3-1.5l3,4.4c1-2.3,1.1-4.1.5-7.9l-3.3-1.9A23.306,23.306,0,0,0,42,124.6Zm-7.1,3.7c-1.4-2.7-1.6-5.3-.4-5.9s3.2,1.1,4.6,3.7c1.4,2.7,1.6,5.3.4,5.9C38.4,132.6,36.3,131,34.9,128.3Z"/><path class="y" d="M26.6,112.7l1.8-2,7.1-5.2,5,7.6,4.9-3.7,2.4,5.3,1.4,9.2,6.6,14.7-5.2,1.3.6,1.2-8.1,2.8s-5.1-1.3-6.7-4.1l1.2-4.2-4.4-5.2-3.1.6-3.7-10.4,3.2-2,1.3-1.9Z"/><path class="z" d="M50.1,120.5c-.1-.1-.1-.2-.2-.3l2.5-1c-2.5-4.7-4-7-6.9-9.7l-.2,4.3c-1.8-1.7-3.5-2.8-5-3l-1.9-5.6c-2.4-.3-3.5.4-4.8,2.5l3.5,4.8a10.092,10.092,0,0,0-.4,5.9l-3.6-2.3c.7,3.9,1.9,6.8,3.9,11.2l2.3-1.3c0,.1,0,.1.1.2a27.468,27.468,0,0,0,4.8,6.7l-.4,3.9c2.9,2.8,4.5,3.9,7.2,4.4l-1.9-5.3a3.4,3.4,0,0,0,2-.3,3.168,3.168,0,0,0,1.4-1.6l3.2,4.7c1-2.4,1.2-4.4.5-8.5l-3.5-2A21.947,21.947,0,0,0,50.1,120.5Zm-7.6,3.9c-1.5-2.8-1.7-5.7-.4-6.3,1.2-.6,3.5,1.1,4.9,4,1.5,2.8,1.7,5.7.4,6.3C46.2,129.1,44,127.3,42.5,124.4Z"/><path class="m" d="M29.9,117.1l7.2-4.7-3.5-4.7-7,5Z"/><path class="m" d="M29.9,130.9l7.2-3.7,2.3-1.3,2.1,3.5-6.8,4.5a10.353,10.353,0,0,1-2.1-3.5Z"/><path class="n" d="M36.2,139.7l7.7-3.1.3-3.8-7.6,3.3Z"/></g></g></svg>