<svg xmlns="http://www.w3.org/2000/svg" width="17.978" height="19.017" viewBox="0 0 17.978 19.017"><defs><style>.a{fill:none;stroke:#fff;stroke-linecap:round;stroke-linejoin:round;stroke-width:2px;}</style></defs><path class="a" d="M7.659,15.548C3.617,16.76,3.617,13.526,2,13.122m11.319,4.851V14.844a2.725,2.725,0,0,0-.76-2.11c2.539-.283,5.207-1.245,5.207-5.659a4.4,4.4,0,0,0-1.212-3.031A4.1,4.1,0,0,0,16.48.995s-.954-.283-3.161,1.2a10.818,10.818,0,0,0-5.659,0C5.452.712,4.5.995,4.5.995a4.1,4.1,0,0,0-.073,3.048A4.4,4.4,0,0,0,3.213,7.1c0,4.382,2.668,5.344,5.207,5.659a2.725,2.725,0,0,0-.76,2.086v3.129" transform="translate(-0.787 0.044)"/></svg>