<svg xmlns="http://www.w3.org/2000/svg" width="24" height="24" viewBox="0 0 24 24"><defs><style>.a{fill:none;}.b{fill:#fff;}</style></defs><path class="a" d="M0,0H24V24H0Z"/><path class="b" d="M12.5,6.9c1.78,0,2.44.85,2.5,2.1h2.21A3.986,3.986,0,0,0,14,5.19V3H11V5.16a5.669,5.669,0,0,0-1.1.36l1.51,1.51A4.524,4.524,0,0,1,12.5,6.9ZM5.47,3.92,4.06,5.33,7.5,8.77c0,2.08,1.56,3.22,3.91,3.91l3.51,3.51a2.74,2.74,0,0,1-2.42.91c-2.06,0-2.87-.92-2.98-2.1H7.32c.12,2.19,1.76,3.42,3.68,3.83V21h3V18.85a5.038,5.038,0,0,0,2.46-1.12l2.22,2.22,1.41-1.41Z"/></svg>