<svg xmlns="http://www.w3.org/2000/svg" width="22.022" height="22" viewBox="0 0 22.022 22"><defs><style>.a,.d{fill:none;}.a,.b{stroke:#000;}.a{stroke-width:2px;}.c{stroke:none;}</style></defs><g transform="translate(0.022)"><g class="a"><path class="c" d="M0,0H16a6,6,0,0,1,6,6V22a0,0,0,0,1,0,0H0a0,0,0,0,1,0,0V0A0,0,0,0,1,0,0Z"/><path class="d" d="M2,1H16a5,5,0,0,1,5,5V20a1,1,0,0,1-1,1H2a1,1,0,0,1-1-1V2A1,1,0,0,1,2,1Z"/></g><path class="b" d="M6.939-12.12a4.2,4.2,0,0,1,2.353.7A3.573,3.573,0,0,1,10.75-9.227l-.3.207.115-.436a3.283,3.283,0,0,1,1.045-1.354,6.224,6.224,0,0,1,1.676-.953,5.028,5.028,0,0,1,1.8-.356,4.016,4.016,0,0,1,2.273.6,3.543,3.543,0,0,1,1.32,1.6,5.728,5.728,0,0,1,.425,2.261v6.68a.461.461,0,0,1-.126.321.43.43,0,0,1-.333.138.43.43,0,0,1-.333-.138.461.461,0,0,1-.126-.321V-7.575a4.963,4.963,0,0,0-.333-1.848,2.9,2.9,0,0,0-1.033-1.331A3.1,3.1,0,0,0,15-11.248a4.107,4.107,0,0,0-1.928.494,4.425,4.425,0,0,0-1.55,1.331,3.075,3.075,0,0,0-.608,1.848V-.986a.461.461,0,0,1-.126.321.43.43,0,0,1-.333.138.43.43,0,0,1-.333-.138.461.461,0,0,1-.126-.321v-6.7a4.94,4.94,0,0,0-.31-1.791,2.785,2.785,0,0,0-.976-1.286,2.949,2.949,0,0,0-1.768-.482,3.938,3.938,0,0,0-1.871.482,4.446,4.446,0,0,0-1.5,1.286c-.4.536-.287-.891.149-1.3a5.3,5.3,0,0,1,1.492-.976A4.274,4.274,0,0,1,6.939-12.12Z" transform="translate(-2.841 21.57)"/></g></svg>