<svg xmlns="http://www.w3.org/2000/svg" width="500" height="100"><g fill="none" fill-rule="evenodd"><path fill="#89BA40" fill-rule="nonzero" d="M0 29.37v-7.78a1 1 0 0 1 1.43-.9l50 24.04a1 1 0 0 1 .57.9v8.74a1 1 0 0 1-.57.9l-50 24.04a1 1 0 0 1-1.43-.9v-7.78a1 1 0 0 1 .57-.9L40.1 50.9a1 1 0 0 0 0-1.8L.57 30.27a1 1 0 0 1-.57-.9z"/><path fill="#58595B" d="M76 80V31a1 1 0 0 0-1-1H63a1 1 0 0 1-1-1v-8a1 1 0 0 1 1-1h22a1 1 0 0 1 1 1v59a20 20 0 0 1-20 20H53a1 1 0 0 1-1-1v-8a1 1 0 0 1 1-1h13a10 10 0 0 0 10-10zm0-80h9a1 1 0 0 1 1 1v8a1 1 0 0 1-1 1h-9a1 1 0 0 1-1-1V1a1 1 0 0 1 1-1z"/><path fill="#58595B" fill-rule="nonzero" d="M148 46v9h-42c0 8.84 7.16 15 16 15 5.1 0 9.64-2.05 12.57-5.5l6.36 7.34A26 26 0 0 1 96 54v-8a26 26 0 0 1 52 0zm-26-16c-8.84 0-16 6.16-16 15h32c0-8.84-7.16-15-16-15z"/><path fill="#58595B" d="M169 30a1 1 0 0 0-1 1v29a10 10 0 0 0 10 10h11a1 1 0 0 1 1 1v8a1 1 0 0 1-1 1h-11a20 20 0 0 1-20-20V5l10-5v19c0 .52.4.95.9 1H189a1 1 0 0 1 1 1v8a1 1 0 0 1-1 1h-20z"/><path fill="#868790" d="M209 20a1 1 0 0 1 1 1v-1 5.5a25.9 25.9 0 0 1 16-5.5 25.9 25.9 0 0 1 16 5.5l-6.15 7.89A16 16 0 0 0 210 46v33a1 1 0 0 1-1 1h-8a1 1 0 0 1-1-1V21a1 1 0 0 1 1-1h8zm58 20h17a10 10 0 0 0-10-10c-5.95-.23-10.62.1-14 1a35 35 0 0 0-8 3V24c3.62-3.62 16.47-4 22-4a20 20 0 0 1 20 20v20c0 4 1.67 10.67 5 20h-10l-1.26-7.53A23.44 23.44 0 0 1 270.5 80H267a20 20 0 1 1 0-40zm17 10h-17a10 10 0 1 0 0 20h3.5A13.5 13.5 0 0 0 284 56.5V50zm31-19a1 1 0 0 0-1-1h-9a1 1 0 0 1-1-1v-8a1 1 0 0 1 1-1h19a1 1 0 0 1 1 1v39a10 10 0 0 0 10 10h10a1 1 0 0 1 1 1v8a1 1 0 0 1-1 1h-10a20 20 0 0 1-20-20V31zm.28-31h8.44c.44 0 .6.05.77.13.16.1.29.22.38.38.08.16.13.33.13.77v7.44c0 .44-.05.6-.13.77a.9.9 0 0 1-.38.38c-.16.08-.33.13-.77.13h-8.44c-.44 0-.6-.05-.77-.13a.9.9 0 0 1-.38-.38c-.08-.16-.13-.33-.13-.77V1.28c0-.44.05-.6.13-.77a.9.9 0 0 1 .38-.38c.16-.08.33-.13.77-.13zM356 10h-9a1 1 0 0 1-1-1V1a1 1 0 0 1 1-1h19a1 1 0 0 1 1 1v59a10 10 0 0 0 10 10h10a1 1 0 0 1 1 1v8a1 1 0 0 1-1 1h-10a20 20 0 0 1-20-20V11a1 1 0 0 0-1-1zm62 20c-6.63 0-12 3.36-12 7.5 0 4.14 5.37 7.5 12 7.5 12.15 0 22 7.84 22 17.5S430.15 80 418 80s-22-7.84-22-17.5h10c0 4.14 5.37 7.5 12 7.5s12-3.36 12-7.5c0-4.14-5.37-7.5-12-7.5-12.15 0-22-7.84-22-17.5S405.85 20 418 20c8.77 0 16.35 4.09 19.88 10L430 37.5c0-4.14-5.37-7.5-12-7.5z"/><path fill="#89BA40" fill-rule="nonzero" d="M500 71v8a1 1 0 0 1-1 1h-50a1 1 0 0 1-1-1v-8a1 1 0 0 1 1-1h50a1 1 0 0 1 1 1z"><animate attributeType="XML" attributeName="fill" dur="2000ms" values="#89BA40;transparent" calcMode="discrete" repeatCount="indefinite"/></path></g></svg>
