<svg xmlns="http://www.w3.org/2000/svg" width="88" height="105" viewBox="0 0 88 105">
    <defs>
        <style>
            .aa{fill:#fb0e70;}
            .ab,.ac,.ad{fill:#fff;}
            .ab{font-size:14px;font-family:Poppins-Regular, Poppins;letter-spacing:0.05em;}
            .ac{fill-rule:evenodd;}
        </style>
    </defs>
    <path class="aa" d="M0,0H88a0,0,0,0,1,0,0V105a0,0,0,0,1,0,0H18A18,18,0,0,1,0,87V0A0,0,0,0,1,0,0Z"/>
    <text class="ab" transform="translate(15 20)">
        <tspan x="0" y="0">View on</tspan>
    </text>
    <g transform="translate(13.589 29.488)">
        <g transform="translate(10.851 1.512)">
            <path class="ac" d="M42.646,1.512a21.193,21.193,0,0,0-6.7,41.3c1.059.2,1.448-.46,1.448-1.02,0-.505-.02-2.175-.029-3.945-5.9,1.282-7.139-2.5-7.139-2.5a5.611,5.611,0,0,0-2.353-3.1c-1.923-1.315.144-1.288.144-1.288a4.455,4.455,0,0,1,3.249,2.184c1.89,3.239,4.957,2.3,6.166,1.761a4.516,4.516,0,0,1,1.346-2.834c-4.707-.535-9.655-2.353-9.655-10.473a8.2,8.2,0,0,1,2.184-5.688,7.615,7.615,0,0,1,.205-5.608s1.779-.569,5.827,2.173a20.1,20.1,0,0,1,10.613,0C52,9.73,53.775,10.3,53.775,10.3a7.606,7.606,0,0,1,.208,5.608A8.183,8.183,0,0,1,56.163,21.6c0,8.139-4.957,9.931-9.676,10.455a5.066,5.066,0,0,1,1.437,3.925c0,2.835-.024,5.117-.024,5.815,0,.563.382,1.224,1.455,1.016A21.192,21.192,0,0,0,42.646,1.512Z" transform="translate(-21.455 -1.512)"/>
            <path class="ad" d="M37,62.234c-.047.106-.213.137-.364.065s-.24-.213-.19-.319.211-.138.365-.066.242.214.189.32Zm-.261-.193,1.119,1.152c-.1.093-.3.05-.433-.1s-.164-.346-.062-.44.3-.05.433.1.167.345.061.44Zm-.2-.218,1.037,1.437c-.129.091-.342.006-.473-.183s-.13-.413,0-.5.341-.009.473.178.13.418,0,.51Zm0,0,1.145,1.179c-.116.128-.364.094-.544-.081a.408.408,0,0,1-.121-.541c.118-.128.367-.092.549.081s.24.413.116.541Zm0,0,1.58.684c-.052.166-.29.242-.53.171s-.4-.267-.349-.434.29-.246.531-.17.4.264.347.433Zm0,0,1.733.127c.006.174-.2.32-.449.323s-.458-.135-.461-.308.2-.32.452-.324.458.135.458.309Zm0,0,1.614-.274c.03.17-.144.346-.395.392s-.473-.06-.505-.229.148-.349.393-.394.475.059.507.232Zm0,0" transform="translate(-28.971 -31.81)"/>
        </g>
        <path class="ad" d="M12.544,100.9H7.215a.249.249,0,0,0-.249.249v2.606a.249.249,0,0,0,.249.249H9.293v3.237a6.29,6.29,0,0,1-1.758.159c-1.522,0-3.649-.556-3.649-5.234s2.215-5.295,4.3-5.295a8.43,8.43,0,0,1,3.069.47.252.252,0,0,0,.3-.245l.594-2.518a.233.233,0,0,0-.1-.194c-.2-.143-1.423-.827-4.512-.827-3.558,0-7.208,1.513-7.208,8.791s4.179,8.361,7.7,8.361a8.668,8.668,0,0,0,4.684-1.246.214.214,0,0,0,.081-.189v-8.127a.249.249,0,0,0-.249-.249Zm27.22-6.72h-3a.249.249,0,0,0-.248.251v5.8H31.838v-5.8a.249.249,0,0,0-.248-.251h-3a.249.249,0,0,0-.248.251v15.7a.25.25,0,0,0,.248.251h3a.249.249,0,0,0,.248-.251v-6.717h4.678l-.008,6.717a.25.25,0,0,0,.249.251h3.007a.249.249,0,0,0,.248-.251v-15.7a.248.248,0,0,0-.248-.25Zm-23.492.357a1.955,1.955,0,1,0,1.935,1.954A1.944,1.944,0,0,0,16.272,94.541Zm1.472,4.786H14.753a.286.286,0,0,0-.26.279v10.386c0,.305.19.4.436.4h2.695c.3,0,.369-.145.369-.4V99.577a.249.249,0,0,0-.248-.25Zm33.673.023H48.439a.249.249,0,0,0-.247.251v7.7a3.369,3.369,0,0,1-1.83.553c-1.073,0-1.358-.487-1.358-1.538V99.6a.249.249,0,0,0-.248-.251H41.733a.25.25,0,0,0-.248.251v7.223c0,3.123,1.741,3.887,4.135,3.887a6.977,6.977,0,0,0,3.548-1.086,6.067,6.067,0,0,0,.11.64.263.263,0,0,0,.219.136l1.923-.008a.25.25,0,0,0,.249-.251V99.6a.251.251,0,0,0-.249-.25ZM59.557,99a5.6,5.6,0,0,0-2.842.755V94.434a.249.249,0,0,0-.248-.251H53.459a.249.249,0,0,0-.249.251v15.7a.249.249,0,0,0,.249.251h2.088a.247.247,0,0,0,.218-.133,4.972,4.972,0,0,0,.127-.724,5.385,5.385,0,0,0,3.56,1.165c2.734,0,4.3-1.387,4.3-6.227S61.249,99,59.557,99Zm-1.175,8.848a3.571,3.571,0,0,1-1.733-.5v-4.973a3.982,3.982,0,0,1,1.539-.5c1.072-.1,2.106.228,2.106,2.786,0,2.7-.466,3.23-1.911,3.187Zm-31.722-.059c-.131,0-.467.053-.812.053-1.106,0-1.481-.514-1.481-1.179v-4.416h2.251a.249.249,0,0,0,.249-.251V99.574a.249.249,0,0,0-.249-.25H24.367l0-2.974c0-.113-.058-.169-.188-.169H21.107c-.119,0-.183.053-.183.167v3.073s-1.538.371-1.641.4a.249.249,0,0,0-.179.239v1.931a.249.249,0,0,0,.248.251h1.573v4.646c0,3.452,2.421,3.79,4.054,3.79a6.838,6.838,0,0,0,1.786-.294.233.233,0,0,0,.141-.226l0-2.124a.254.254,0,0,0-.249-.25Z" transform="translate(0 -46.202)"/>
    </g>
</svg>