<svg xmlns="http://www.w3.org/2000/svg" xmlns:xlink="http://www.w3.org/1999/xlink" width="177.7" height="379.06" viewBox="0 0 177.7 379.06"><defs><linearGradient id="a" x1="1.024" y1="0.874" x2="0.066" y2="0.19" gradientUnits="objectBoundingBox"><stop offset="0" stop-color="#0fb5ef"/><stop offset="1" stop-color="#48d0ff"/></linearGradient><linearGradient id="b" x1="1.129" y1="0.124" x2="0.027" y2="0.783" gradientUnits="objectBoundingBox"><stop offset="0" stop-color="#0fb5ef"/><stop offset="1" stop-color="#0d7cba"/></linearGradient><radialGradient id="c" cx="0.526" cy="0.399" r="0.993" gradientTransform="translate(0.264 0.185) scale(0.498 0.535)" gradientUnits="objectBoundingBox"><stop offset="0" stop-color="#002f94"/><stop offset="1" stop-color="#69dbfb"/></radialGradient><clipPath id="d"><path d="M106.1,333.9,166,299l6.7,3.9-59.9,34.8Z" transform="translate(-106.1 -299)"/></clipPath><linearGradient id="e" x1="-0.044" y1="0.157" x2="1.065" y2="0.857" gradientUnits="objectBoundingBox"><stop offset="0" stop-color="#ff8080"/><stop offset="1" stop-color="#e52c80"/></linearGradient><linearGradient id="f" x1="-0.097" y1="0.907" x2="0.972" y2="0.179" gradientUnits="objectBoundingBox"><stop offset="0" stop-color="#b50f5a"/><stop offset="1" stop-color="#e52c80"/></linearGradient><radialGradient id="g" cx="0.526" cy="0.4" r="0.993" gradientTransform="translate(0.264 0.186) scale(0.498 0.535)" gradientUnits="objectBoundingBox"><stop offset="0" stop-color="#77007f"/><stop offset="1" stop-color="#ff8080"/></radialGradient><clipPath id="h"><path d="M86,273.3l59.8-34.8,6.7,3.9L92.7,277.1Z" transform="translate(-86 -238.5)"/></clipPath><linearGradient id="i" x1="0.979" y1="0.797" x2="-0.274" y2="0.022" gradientUnits="objectBoundingBox"><stop offset="0" stop-color="#475a7c"/><stop offset="0.626" stop-color="#64779e"/><stop offset="1" stop-color="#64779e"/></linearGradient><linearGradient id="j" x1="1.007" y1="0.16" x2="-0.038" y2="0.862" gradientUnits="objectBoundingBox"><stop offset="0" stop-color="#475a7c"/><stop offset="1" stop-color="#2a3854"/></linearGradient><radialGradient id="k" cx="0.526" cy="0.4" r="0.993" gradientTransform="translate(0.264 0.186) scale(0.498 0.535)" gradientUnits="objectBoundingBox"><stop offset="0" stop-color="#2a3854"/><stop offset="1" stop-color="#829ac4"/></radialGradient><clipPath id="l"><path d="M107.6,212.5l59.7-34.7,6.7,3.8-59.8,34.8Z" transform="translate(-107.6 -177.8)"/></clipPath><linearGradient id="m" x1="0.719" y1="0.879" x2="0.282" y2="0.124" gradientUnits="objectBoundingBox"><stop offset="0" stop-color="#ffb715"/><stop offset="1" stop-color="#ffd836"/></linearGradient><linearGradient id="n" x1="0.517" y1="0.373" x2="0.446" y2="0.897" gradientUnits="objectBoundingBox"><stop offset="0" stop-color="#ffb31a"/><stop offset="1" stop-color="#ff9017"/></linearGradient><linearGradient id="o" x1="0.009" y1="0.822" x2="0.99" y2="0.18" gradientUnits="objectBoundingBox"><stop offset="0" stop-color="#f96310"/><stop offset="1" stop-color="#ff9017"/></linearGradient><radialGradient id="p" cx="0.525" cy="0.4" r="0.993" gradientTransform="translate(0.264 0.186) scale(0.498 0.535)" gradientUnits="objectBoundingBox"><stop offset="0" stop-color="#f95110"/><stop offset="1" stop-color="#ffc23a"/></radialGradient><clipPath id="q"><path d="M85.3,153.5l65.2-37.9,6.7,3.8L92,157.3Z" transform="translate(-85.3 -115.6)"/></clipPath><linearGradient id="r" x1="0.671" y1="0.796" x2="0.32" y2="0.188" gradientUnits="objectBoundingBox"><stop offset="0" stop-color="#a94ed3"/><stop offset="1" stop-color="#fb0e70"/></linearGradient><linearGradient id="s" x1="-0.013" y1="0.851" x2="0.992" y2="0.164" gradientUnits="objectBoundingBox"><stop offset="0" stop-color="#1a0b8c"/><stop offset="1" stop-color="#ab3cab"/></linearGradient><clipPath id="t"><path d="M115.5,85.1l42-24.4,6.6,3.9L122.2,89Z" transform="translate(-115.5 -60.7)"/></clipPath><clipPath id="u"><path d="M99.8,81.2l52.5-30.6,6.6,3.9L106.4,85Z" transform="translate(-99.8 -50.6)"/></clipPath></defs><g transform="translate(19.3 241.9)" style="isolation:isolate"><path d="M30.5,300.9l78.7,45.7,79.6-45.9L110.1,255Z" transform="translate(-30.5 -255)" fill="#69dbfb"/><g transform="translate(0 45.9)"><path d="M30.5,300.9v18.4L109.3,365l-.1-18.4Z" transform="translate(-30.5 -300.9)" fill="url(#a)"/></g><path d="M109.2,346.6l.1,18.4,79.5-46V300.7Z" transform="translate(-30.5 -255)" fill="url(#b)"/><g transform="translate(22.8 0)" style="isolation:isolate"><path d="M187.1,299.7a44.024,44.024,0,0,1-5.9,5.4l7.7-4.4Z" transform="translate(-53.3 -255)" fill="none"/><path d="M187.1,299.7l-77-44.7L53.3,287.8c5.3,19.1,34.8,33.8,70.3,33.8,16.3,0,31.4-3.1,43.4-8.3l14.2-8.2A44.027,44.027,0,0,0,187.1,299.7Z" transform="translate(-53.3 -255)" fill="url(#c)"/></g><g transform="translate(75.6 44)"><g clip-path="url(#d)"><g transform="translate(0.2 0.6)"><path d="M119.5,333.7,113,330l-1.8,1.1,3.3,3.8h0l-6.4-2-1.8,1.1,6.4,3.7,1.2-.7-3-1.7c-.3-.2-1.1-.6-2.1-1.1h0l6.6,2,1.2-.7-3.4-3.9h0c.8.5,1.3.8,1.4.9.2.1.3.2.5.3l3,1.8,1.4-.9" transform="translate(-106.3 -299.6)" fill="#fff"/><path d="M119.9,330.3c-1-1.1-1.7-1.8-2-2.1a1.689,1.689,0,0,1,.5.2c.2.1,1.3.4,3.1.9l-1.6,1m6.6-.7-8.7-2.4-1.7,1,4.2,5,1.5-.9-1.1-1.2,2.3-1.4,2,.6,1.5-.7" transform="translate(-106.3 -299.6)" fill="#fff"/><path d="M132,326.1l-3.3-1.9-2.5,1.5,1.1.7,1.2-.7,1.3.8a5.547,5.547,0,0,1-.8.6,3.425,3.425,0,0,1-1.8.4,4.026,4.026,0,0,1-2-.7,2.016,2.016,0,0,1-1.1-1.2,1.446,1.446,0,0,1,.8-1.2,4.78,4.78,0,0,1,1.8-.6l-.6-.9a7.887,7.887,0,0,0-2.3.9c-1,.6-1.6,1.3-1.6,1.9,0,.7.5,1.3,1.5,1.9a7.932,7.932,0,0,0,3.2,1,5.751,5.751,0,0,0,3.1-.8,8.65,8.65,0,0,0,1-.7l1-1" transform="translate(-106.3 -299.6)" fill="#fff"/><path d="M137.4,323.2l-1.1-.6-2.3,1.3-1.7-.9,2.2-1.3-1.1-.6-2.2,1.2-1.4-.8,2.3-1.3-1.1-.7-3.7,2.2,6.5,3.7,3.6-2.2" transform="translate(-106.3 -299.6)" fill="#fff"/><path d="M144.5,319.2l-6.4-3.7-1.2.7,3,1.8c.3.2,1,.5,1.8,1h0l-7.6-1.2-1.7,1,6.4,3.7,1.2-.7-3-1.7c-.4-.2-1-.6-1.9-1h0l7.7,1.2,1.7-1.1" transform="translate(-106.3 -299.6)" fill="#fff"/><path d="M145,312.7l-1.2-.6-4.8,2.8,1.1.6,1.8-1,5.3,3.1,1.3-.8-5.3-3.1,1.8-1" transform="translate(-106.3 -299.6)" fill="#fff"/><path d="M149.2,312.7q-1.05-.6-1.2-1.2c-.1-.4.1-.7.7-1a3.775,3.775,0,0,1,3.8.3c1.4.8,1.6,1.6.5,2.2a3.425,3.425,0,0,1-1.8.4,6,6,0,0,1-2-.7m4.6-2.7a7.932,7.932,0,0,0-3.2-1,5.751,5.751,0,0,0-3.1.8c-1,.6-1.5,1.2-1.4,1.8,0,.6.6,1.3,1.7,1.9a8.364,8.364,0,0,0,3.3,1,6.806,6.806,0,0,0,3.1-.8c1-.6,1.5-1.2,1.4-1.8-.1-.7-.7-1.3-1.8-1.9" transform="translate(-106.3 -299.6)" fill="#fff"/><path d="M163.6,308l-6.4-3.7-1.1.6-.4,2.1,1.5.1.1-.8v-.5l.7.4.6.4,3.7,2.1,1.3-.7" transform="translate(-106.3 -299.6)" fill="#fff"/><path d="M166.5,305.6a1.884,1.884,0,0,0-.8-.2,2.353,2.353,0,0,0-.8.2c-.3.1-.4.3-.4.4s.1.3.4.4a1.884,1.884,0,0,0,.8.2,2.353,2.353,0,0,0,.8-.2c.2-.1.4-.3.4-.4l-.4-.4" transform="translate(-106.3 -299.6)" fill="#fff"/><path d="M166.5,303.6l-.6-1.7-.3-.6h0c.1,0,.2.2.6.4a9.223,9.223,0,0,0,.8.5l1.1.6-1.6.8m4.7-1.5-1.1-.6-.8.4-4-2.3-1.2.7,1.4,4,.9.5,2.7-1.6,1.3.8,1.3-.8-1.3-.8.8-.3" transform="translate(-106.3 -299.6)" fill="#fff"/></g></g></g></g><g transform="translate(0 182.3)"><path d="M11.2,241.3,89.9,287l79.6-45.9L90.8,195.4Z" transform="translate(-11.2 -195.4)" fill="#ff8080"/><g transform="translate(0 45.9)"><path d="M11.2,241.3v18.4L90,305.4,89.9,287Z" transform="translate(-11.2 -241.3)" fill="url(#e)"/></g><g transform="translate(78.7 45.7)"><path d="M89.9,287l.1,18.4,79.5-45.9V241.1Z" transform="translate(-89.9 -241.1)" fill="url(#f)"/></g><g transform="translate(22.8 0)"><path d="M167.8,240.1a44.025,44.025,0,0,1-5.9,5.4l7.7-4.4Z" transform="translate(-34 -195.4)" fill="none"/><path d="M167.8,240.1l-77-44.7L34,228.2c5.3,19.1,34.8,33.8,70.3,33.8,16.3,0,31.4-3.1,43.4-8.3l14.2-8.2A44.025,44.025,0,0,0,167.8,240.1Z" transform="translate(-34 -195.4)" fill="url(#g)"/></g><g transform="translate(74.8 43.1)"><g clip-path="url(#h)"><g transform="translate(0.3 0.1)"><path d="M99.4,273.1,93,269.4l-1.8,1.1,3.3,3.8h0l-6.4-2-1.8,1.1,6.4,3.7,1.2-.7-3-1.7c-.3-.2-1.1-.6-2.1-1.1h0l6.6,2,1.2-.7L93.2,271h0c.8.5,1.3.8,1.4.9a2.187,2.187,0,0,1,.5.3l3.1,1.8,1.2-.9" transform="translate(-86.3 -238.6)" fill="#fff"/><path d="M99.8,269.7c-1-1.1-1.7-1.8-2-2.1a1.689,1.689,0,0,1,.5.2c.2.1,1.3.4,3.1.9l-1.6,1m6.6-.7-8.7-2.4-1.7,1,4.2,5,1.5-.9-1.1-1.2,2.3-1.4,2,.6,1.5-.7" transform="translate(-86.3 -238.6)" fill="#fff"/><path d="M111.9,265.5l-3.3-1.9L106,265l1.1.7,1.2-.7,1.3.8a5.547,5.547,0,0,1-.8.6,3.425,3.425,0,0,1-1.8.4,4.026,4.026,0,0,1-2-.7,2.016,2.016,0,0,1-1.1-1.2,1.446,1.446,0,0,1,.8-1.2,4.78,4.78,0,0,1,1.8-.6l-.6-.9a7.887,7.887,0,0,0-2.3.9c-1,.6-1.6,1.2-1.6,1.9s.5,1.3,1.5,1.9a7.932,7.932,0,0,0,3.2,1,5.751,5.751,0,0,0,3.1-.8,8.65,8.65,0,0,0,1-.7,5.3,5.3,0,0,0,1.1-.9" transform="translate(-86.3 -238.6)" fill="#fff"/><path d="M117.4,262.6l-1.2-.6-2.3,1.3-1.6-.9,2.1-1.3-1.1-.6-2.2,1.2-1.4-.8,2.4-1.3-1.2-.7-3.7,2.2,6.5,3.7,3.7-2.2" transform="translate(-86.3 -238.6)" fill="#fff"/><path d="M124.4,258.6l-6.4-3.7-1.2.7,3.1,1.8c.3.2,1,.5,1.8,1h0l-7.6-1.2-1.7,1,6.4,3.7,1.2-.7-3-1.8c-.4-.2-1-.5-1.9-1h0l7.7,1.2,1.6-1" transform="translate(-86.3 -238.6)" fill="#fff"/><path d="M124.9,252.1l-1.1-.6-4.9,2.8,1.2.6,1.7-1,5.3,3.1,1.4-.8-5.3-3.1,1.7-1" transform="translate(-86.3 -238.6)" fill="#fff"/><path d="M129.1,252.1q-1.05-.6-1.2-1.2c-.1-.4.1-.7.7-1a3.775,3.775,0,0,1,3.8.3c1.4.8,1.6,1.6.5,2.2a3.425,3.425,0,0,1-1.8.4,6,6,0,0,1-2-.7m4.7-2.7a7.932,7.932,0,0,0-3.2-1,5.751,5.751,0,0,0-3.1.8c-1,.6-1.5,1.2-1.4,1.8,0,.6.6,1.3,1.7,1.9a8.364,8.364,0,0,0,3.3,1,5.751,5.751,0,0,0,3.1-.8c1-.6,1.4-1.2,1.4-1.8a3.576,3.576,0,0,0-1.8-1.9" transform="translate(-86.3 -238.6)" fill="#fff"/><path d="M143.5,247.4l-6.4-3.7-1.1.6-.4,2.2,1.5.1.1-.8v-.5l.7.4.6.4,3.7,2.2,1.3-.9" transform="translate(-86.3 -238.6)" fill="#fff"/><path d="M146.4,245a1.884,1.884,0,0,0-.8-.2,1.445,1.445,0,0,0-.7.2c-.3.1-.4.3-.4.4s.1.3.4.4a1.884,1.884,0,0,0,.8.2,2.354,2.354,0,0,0,.8-.2c.2-.1.4-.3.4-.4a1.756,1.756,0,0,1-.5-.4" transform="translate(-86.3 -238.6)" fill="#fff"/><path d="M146.8,239.1l-.9-.5-4.6,2.7,1.2.6,3.1-1.8,2.9,4.4,1.4-.8-3.1-4.6" transform="translate(-86.3 -238.6)" fill="#fff"/></g></g></g></g><g transform="translate(19.3 122.8)"><path d="M30.5,181.8l78.7,45.8,79.6-46-78.7-45.7Z" transform="translate(-30.5 -135.9)" fill="#829ac4"/><g transform="translate(0 45.9)"><path d="M30.5,181.8v18.4l78.8,45.7-.1-18.3Z" transform="translate(-30.5 -181.8)" fill="url(#i)"/></g><g transform="translate(78.7 45.7)"><path d="M109.2,227.6l.1,18.3L188.8,200V181.6Z" transform="translate(-109.2 -181.6)" fill="url(#j)"/></g><g transform="translate(22.8 0)"><path d="M187.1,180.6a44.025,44.025,0,0,1-5.9,5.4l7.7-4.4Z" transform="translate(-53.3 -135.9)" fill="none"/><path d="M187.1,180.6l-77-44.7L53.3,168.7c5.3,19.1,34.8,33.8,70.3,33.8,16.3,0,31.4-3.1,43.4-8.3l14.2-8.2A44.028,44.028,0,0,0,187.1,180.6Z" transform="translate(-53.3 -135.9)" fill="url(#k)"/></g><g transform="translate(77.1 41.9)"><g clip-path="url(#l)"><g transform="translate(0.3 0.563)"><path d="M121,212.3l-6.4-3.7-1.8,1.1,3.3,3.8h0l-6.4-2-1.8,1.1,6.4,3.7,1.2-.7-3-1.7c-.3-.2-1.1-.6-2.1-1.1h0l6.6,2,1.2-.7-3.4-3.9h0c.8.5,1.3.8,1.4.9a2.186,2.186,0,0,1,.5.3l3.1,1.8,1.2-.9" transform="translate(-107.9 -178.363)" fill="#fff"/><path d="M121.3,209c-1-1.1-1.7-1.8-2-2.1a1.69,1.69,0,0,1,.5.2c.2.1,1.3.4,3.1.9l-1.6,1m6.6-.7-8.7-2.4-1.7,1,4.2,5,1.5-.9-1.1-1.2,2.3-1.4,2,.6,1.5-.7" transform="translate(-107.9 -178.363)" fill="#fff"/><path d="M133.4,204.7l-3.3-1.9-2.5,1.5,1.1.7,1.2-.7,1.3.8a2.177,2.177,0,0,1-.8.5,3.425,3.425,0,0,1-1.8.4,4.027,4.027,0,0,1-2-.7,2.016,2.016,0,0,1-1.1-1.2,1.446,1.446,0,0,1,.8-1.2,4.779,4.779,0,0,1,1.8-.6l-.6-.9a7.886,7.886,0,0,0-2.3.9c-1,.6-1.6,1.3-1.6,1.9,0,.7.5,1.3,1.5,1.9a7.932,7.932,0,0,0,3.2,1,5.751,5.751,0,0,0,3.1-.8,3.592,3.592,0,0,0,1-.7,2.229,2.229,0,0,0,1-.9" transform="translate(-107.9 -178.363)" fill="#fff"/><path d="M138.9,201.9l-1.1-.7-2.3,1.4-1.7-1,2.2-1.2-1.1-.7-2.2,1.3-1.4-.8,2.3-1.4-1.1-.7-3.7,2.2,6.4,3.7,3.7-2.1" transform="translate(-107.9 -178.363)" fill="#fff"/><path d="M145.9,197.8l-6.4-3.7-1.2.7,3,1.8a20.125,20.125,0,0,1,1.8,1h0l-7.6-1.2-1.7,1,6.4,3.7,1.2-.7-3-1.8c-.4-.2-1-.6-1.9-1h0l7.7,1.2,1.7-1" transform="translate(-107.9 -178.363)" fill="#fff"/><path d="M146.5,191.4l-1.2-.7-4.8,2.8,1.1.7,1.8-1,5.3,3,1.3-.8-5.3-3,1.8-1" transform="translate(-107.9 -178.363)" fill="#fff"/><path d="M150.7,191.3q-1.05-.6-1.2-1.2c-.1-.4.1-.7.7-1a3.775,3.775,0,0,1,3.8.3c1.4.8,1.6,1.6.5,2.2a3.425,3.425,0,0,1-1.8.4,4.027,4.027,0,0,1-2-.7m4.6-2.7a7.932,7.932,0,0,0-3.2-1,5.751,5.751,0,0,0-3.1.8c-1,.6-1.5,1.2-1.4,1.8,0,.6.6,1.3,1.7,1.9a8.364,8.364,0,0,0,3.3,1,6.806,6.806,0,0,0,3.1-.8c1-.6,1.4-1.2,1.4-1.8a3.226,3.226,0,0,0-1.8-1.9" transform="translate(-107.9 -178.363)" fill="#fff"/><path d="M165.1,186.7l-6.4-3.7-1.1.6-.4,2.2,1.5.1.1-.8v-.5l.7.4.6.4,3.7,2.2,1.3-.9" transform="translate(-107.9 -178.363)" fill="#fff"/><path d="M167.9,184.3a1.884,1.884,0,0,0-.8-.2,2.354,2.354,0,0,0-.8.2c-.3.1-.4.3-.4.4s.1.3.4.4a1.884,1.884,0,0,0,.8.2,2.354,2.354,0,0,0,.8-.2c.2-.1.4-.3.4-.4s-.1-.3-.4-.4" transform="translate(-107.9 -178.363)" fill="#fff"/><path d="M166,180.5c-.2-.1-.3-.2-.3-.4s.1-.3.4-.4a1.854,1.854,0,0,1,.7-.2,1.483,1.483,0,0,1,.7.1c.2.1.3.2.3.4a.988.988,0,0,1-.2.6,4.142,4.142,0,0,1-1,.1,1.422,1.422,0,0,1-.6-.2m2.9,1.9c-.4-.3-.5-.6-.2-1.2a3.143,3.143,0,0,1,1.3-.1,1.884,1.884,0,0,1,.8.2c.2.1.4.3.3.5,0,.2-.2.4-.5.6a1.613,1.613,0,0,1-.9.3,1.6,1.6,0,0,1-.8-.3m3.3-1.8a3.374,3.374,0,0,0-1.2-.4,12.133,12.133,0,0,0-1.8.1c.2-.4.3-.7.2-.9a1.344,1.344,0,0,0-.6-.7,2.391,2.391,0,0,0-1.7-.3,6.033,6.033,0,0,0-1.9.6c-.6.4-1,.7-1.1,1.1s.1.7.5,1a3.582,3.582,0,0,0,1.1.4,7.444,7.444,0,0,0,1.5,0,1.3,1.3,0,0,0-.2,1,1.2,1.2,0,0,0,.7.7,3.807,3.807,0,0,0,1.9.4,5.787,5.787,0,0,0,2.1-.7c.7-.4,1.1-.8,1.1-1.2.2-.4-.1-.8-.6-1.1" transform="translate(-107.9 -178.363)" fill="#fff"/></g></g></g></g><g transform="translate(0 61.3)"><g transform="translate(0 0)"><path d="M11.2,120.3,89.9,166l79.6-45.9L90.8,74.4Z" transform="translate(-11.2 -74.4)" fill="url(#m)"/><g transform="translate(0 45.9)"><path d="M11.2,120.3v18.4L90,184.4,89.9,166Z" transform="translate(-11.2 -120.3)" fill="url(#n)"/></g><g transform="translate(78.7 45.7)"><path d="M89.9,166l.1,18.4,79.5-45.9V120.1Z" transform="translate(-89.9 -120.1)" fill="url(#o)"/></g></g><path d="M11.2,120.3,89.9,166l79.6-45.9L90.8,74.4Z" transform="translate(-11.2 -74.4)" fill="#ffc23a"/><g transform="translate(22.8)"><path d="M167.8,119.1a44.025,44.025,0,0,1-5.9,5.4l7.7-4.4Z" transform="translate(-34 -74.4)" fill="none"/><path d="M167.8,119.1l-77-44.7L34,107.2c5.3,19.1,34.8,33.8,70.3,33.8,16.3,0,31.4-3.1,43.4-8.3l14.2-8.2A44.025,44.025,0,0,0,167.8,119.1Z" transform="translate(-34 -74.4)" fill="url(#p)"/></g><g transform="translate(74.1 41.2)"><g clip-path="url(#q)"><g transform="translate(0.2 0.9)"><path d="M98.7,153.3l-6.4-3.7-1.8,1.1,3.3,3.8h0l-6.4-2-1.9,1.1,6.4,3.7,1.2-.7-3-1.7c-.3-.2-1.1-.6-2.1-1.1h0l6.6,2,1.2-.7-3.4-3.9h0c.8.5,1.3.8,1.4.9.2.1.3.2.5.3l3,1.8,1.4-.9" transform="translate(-85.5 -116.5)" fill="#fff"/><path d="M99.1,149.9c-1-1.1-1.7-1.8-2-2.1a1.69,1.69,0,0,1,.5.2c.2.1,1.3.4,3.1.9l-1.6,1m6.6-.7L97,146.8l-1.7,1,4.2,5,1.5-.8-1.1-1.2,2.3-1.4,2,.6,1.5-.8" transform="translate(-85.5 -116.5)" fill="#fff"/><path d="M111.2,145.7l-3.3-1.9-2.5,1.5,1.1.7,1.2-.7,1.3.8a5.548,5.548,0,0,1-.8.6,3.425,3.425,0,0,1-1.8.4,4.382,4.382,0,0,1-2-.7,2.016,2.016,0,0,1-1.1-1.2,1.446,1.446,0,0,1,.8-1.2,4.779,4.779,0,0,1,1.8-.6l-.6-.9a7.886,7.886,0,0,0-2.3.9c-1,.6-1.6,1.2-1.6,1.9s.5,1.3,1.5,1.9a7.932,7.932,0,0,0,3.2,1,5.751,5.751,0,0,0,3.1-.8,8.65,8.65,0,0,0,1-.7l1-1" transform="translate(-85.5 -116.5)" fill="#fff"/><path d="M116.7,142.8l-1.2-.6-2.3,1.3-1.7-.9,2.2-1.3-1.1-.7-2.2,1.3-1.4-.8,2.3-1.4-1.1-.6-3.7,2.1L113,145l3.7-2.2" transform="translate(-85.5 -116.5)" fill="#fff"/><path d="M123.7,138.7l-6.4-3.7-1.2.7,3.1,1.8c.3.2,1,.5,1.8,1h0l-7.6-1.2-1.7,1,6.4,3.7,1.2-.7-3-1.8c-.4-.2-1-.5-1.9-1h0l7.7,1.2,1.6-1" transform="translate(-85.5 -116.5)" fill="#fff"/><path d="M124.2,132.3l-1.1-.7-4.9,2.8,1.2.7,1.7-1,5.3,3.1,1.4-.8-5.3-3.1,1.7-1" transform="translate(-85.5 -116.5)" fill="#fff"/><path d="M128.4,132.3q-1.05-.6-1.2-1.2c-.1-.4.1-.7.7-1a3.775,3.775,0,0,1,3.8.3c1.4.8,1.6,1.6.6,2.2a3.425,3.425,0,0,1-1.8.4,5.787,5.787,0,0,1-2.1-.7m4.7-2.8a7.932,7.932,0,0,0-3.2-1,5.751,5.751,0,0,0-3.1.8c-1,.6-1.5,1.2-1.4,1.8,0,.6.6,1.3,1.7,1.9a8.364,8.364,0,0,0,3.3,1,5.751,5.751,0,0,0,3.1-.8c1-.6,1.5-1.2,1.4-1.8a4.42,4.42,0,0,0-1.8-1.9" transform="translate(-85.5 -116.5)" fill="#fff"/><path d="M142.8,127.6l-6.4-3.7-1.1.6-.4,2.2,1.5.1.1-.8v-.5l.6.4.6.4,3.7,2.2,1.4-.9" transform="translate(-85.5 -116.5)" fill="#fff"/><path d="M145.7,125.2a1.884,1.884,0,0,0-.8-.2,1.445,1.445,0,0,0-.7.2c-.3.1-.4.3-.4.4s.1.3.4.4a1.884,1.884,0,0,0,.8.2,2.354,2.354,0,0,0,.8-.2c.2-.1.4-.3.4-.4a1.756,1.756,0,0,1-.5-.4" transform="translate(-85.5 -116.5)" fill="#fff"/><path d="M144.1,121.9q-.6-.3-.6-.6a.51.51,0,0,1,.4-.5,1.815,1.815,0,0,1,1.1-.2,2.843,2.843,0,0,1,1.2.4.55.55,0,0,1,.3.5c0,.2-.2.4-.4.6a1.486,1.486,0,0,1-.9.2,2.817,2.817,0,0,1-1.1-.4m3.8-1.5a6.7,6.7,0,0,0-1.8-.7,5.462,5.462,0,0,0-1.8-.1,7.494,7.494,0,0,0-1.6.5c-.7.4-1,.8-1,1.3s.4.9,1.1,1.3a3.606,3.606,0,0,0,2,.6,3.2,3.2,0,0,0,1.9-.5,2.169,2.169,0,0,0,.7-.6.846.846,0,0,0,0-.7h.1a2.439,2.439,0,0,1,.9.8.846.846,0,0,1,0,.7,8.176,8.176,0,0,1-.9.8,3.552,3.552,0,0,1-.9.4l1.1.6a4.384,4.384,0,0,0,.9-.5c1.1-.6,1.6-1.3,1.5-1.9a4.344,4.344,0,0,0-2.2-2" transform="translate(-85.5 -116.5)" fill="#fff"/><path d="M157.1,119.3l-4.2-.5-.8-2.3-1.5.9.6,1.5-2.6-.4-1.5.9,4,.5.9,2.4,1.5-.9-.7-1.6,2.7.4,1.6-.9" transform="translate(-85.5 -116.5)" fill="#fff"/></g></g></g></g><g transform="translate(19.3)"><path d="M30.5,59l78.7,45.7,79.6-45.9L110.1,13.1Z" transform="translate(-30.5 -13.1)" fill="url(#r)"/><path d="M30.5,59V77.4l78.8,45.7-.1-18.4Z" transform="translate(-30.5 -13.1)" fill="#ab3cab"/><path d="M109.2,104.7l.1,18.4,79.5-46V58.8Z" transform="translate(-30.5 -13.1)" fill="url(#s)"/><g transform="translate(85 47.6)"><g clip-path="url(#t)"><g transform="translate(0.1 0.662)"><path d="M126,86.6l-1.1-.7-2.6,1.6L117,84.4l-1.4.8,6.5,3.7,3.9-2.3" transform="translate(-115.6 -61.362)" fill="#fff"/><path d="M126.1,80.4l-1.2-.6-4.8,2.8,1.1.6,1.8-1,5.3,3.1,1.3-.8-5.3-3.1,1.8-1" transform="translate(-115.6 -61.362)" fill="#fff"/><path d="M134.3,79.7a3.255,3.255,0,0,0-1.4-.4,9.033,9.033,0,0,0-2.1.2c-.7.1-1.1.2-1.3.2H129c-.1,0-.3-.1-.4-.1-.2-.1-.3-.2-.3-.4s.2-.3.4-.4.5-.2.7-.3a10.379,10.379,0,0,1,1.2-.3l-.6-.9a4.951,4.951,0,0,0-1.3.4,5.36,5.36,0,0,0-1.1.5,2.016,2.016,0,0,0-1.1,1.2c-.1.4.2.8.8,1.1a3,3,0,0,0,1,.4,3.75,3.75,0,0,0,1.1.1,9.322,9.322,0,0,0,1.4-.2,10.5,10.5,0,0,1,1.3-.2h.6c.2,0,.3.1.4.1a.536.536,0,0,1,.3.4c0,.2-.2.3-.5.5a7.931,7.931,0,0,1-.9.4,15.462,15.462,0,0,1-1.5.4l1.3.7a8.264,8.264,0,0,0,2.2-.8c.7-.4,1.2-.9,1.2-1.3a1.377,1.377,0,0,0-.9-1.3" transform="translate(-115.6 -61.362)" fill="#fff"/><path d="M142.5,77l-6.4-3.7L135,74l-.4,2.2,1.5.1.1-.8V75l.7.4.6.4,3.7,2.2,1.3-1" transform="translate(-115.6 -61.362)" fill="#fff"/><path d="M141.2,72.8q-.6-.3-.6-.6a.723.723,0,0,1,.4-.6,1.815,1.815,0,0,1,1.1-.2,2.843,2.843,0,0,1,1.2.4.55.55,0,0,1,.3.5c0,.2-.2.4-.4.6a1.486,1.486,0,0,1-.9.2,1.8,1.8,0,0,1-1.1-.3m3.8-1.5a6.7,6.7,0,0,0-1.8-.7,5.462,5.462,0,0,0-1.8-.1,7.494,7.494,0,0,0-1.6.5c-.7.4-1,.8-1,1.3s.4.9,1.1,1.3a3.606,3.606,0,0,0,2,.6,3.2,3.2,0,0,0,1.9-.5,2.169,2.169,0,0,0,.7-.6.846.846,0,0,0,0-.7h.1a2.439,2.439,0,0,1,.9.8,1.1,1.1,0,0,1,0,.8,8.176,8.176,0,0,1-.9.8,3.552,3.552,0,0,1-.9.4l1.1.6a4.384,4.384,0,0,0,.9-.5c1.1-.6,1.6-1.3,1.5-1.9-.2-.7-.9-1.4-2.2-2.1" transform="translate(-115.6 -61.362)" fill="#fff"/><path d="M150.4,71.7a1.884,1.884,0,0,0-.8-.2,2.354,2.354,0,0,0-.8.2c-.3.1-.4.3-.4.4s.1.3.4.4a1.884,1.884,0,0,0,.8.2,2.354,2.354,0,0,0,.8-.2c.2-.1.4-.3.4-.4s-.1-.3-.4-.4" transform="translate(-115.6 -61.362)" fill="#fff"/><path d="M150.5,69.6l-.6-1.7-.3-.6h0c.1,0,.2.2.6.4a9.225,9.225,0,0,0,.8.5l1.1.6-1.6.8m4.7-1.5-1.1-.6-.8.4-4-2.3-1.2.7,1.4,4,.9.5,2.7-1.6,1.3.8,1.3-.8-1.3-.8.8-.3" transform="translate(-115.6 -61.362)" fill="#fff"/><path d="M158.1,67.2a1.884,1.884,0,0,0-.8-.2,2.354,2.354,0,0,0-.8.2c-.2.1-.4.3-.4.4,0,.2.1.3.4.4a1.884,1.884,0,0,0,.8.2,2.354,2.354,0,0,0,.8-.2c.2-.1.4-.3.4-.4s-.1-.3-.4-.4" transform="translate(-115.6 -61.362)" fill="#fff"/><path d="M162.2,63.4a3.255,3.255,0,0,0-1.4-.4,3.809,3.809,0,0,0-1.7.4h0c.3-.3.5-.6.4-.9,0-.3-.3-.6-.7-.8a2.492,2.492,0,0,0-1.7-.3,5.332,5.332,0,0,0-2,.7,3.223,3.223,0,0,0-1.5,1.6l1.6.2a.918.918,0,0,1,.4-.6,1.756,1.756,0,0,1,.5-.4,1.364,1.364,0,0,1,1.6-.1q.45.3.3.6a1.739,1.739,0,0,1-.9.7l-.5.3,1,.6.5-.3a5.344,5.344,0,0,1,1.4-.6,1.163,1.163,0,0,1,1,.2c.3.2.5.4.4.6a1.908,1.908,0,0,1-.8.7,3,3,0,0,1-1,.4c-.4.1-.8.2-1.1.3l1.2.7a8.488,8.488,0,0,0,2.2-.9c.8-.5,1.3-1,1.4-1.4.2-.5,0-.9-.6-1.3" transform="translate(-115.6 -61.362)" fill="#fff"/></g></g></g><g transform="translate(69.3 37.5)"><g clip-path="url(#u)"><g transform="translate(1.687 0.1)"><path d="M104.5,82.2q-1.05-.6-1.2-1.2c-.1-.4.1-.7.7-1a3.775,3.775,0,0,1,3.8.3c1.4.8,1.6,1.6.6,2.2a3.425,3.425,0,0,1-1.8.4,3.746,3.746,0,0,1-2.1-.7m4.7-2.7a7.932,7.932,0,0,0-3.2-1,6.806,6.806,0,0,0-3.1.8c-1,.6-1.5,1.2-1.4,1.8,0,.6.6,1.3,1.7,1.9a8.364,8.364,0,0,0,3.3,1,5.751,5.751,0,0,0,3.1-.8c1-.6,1.4-1.2,1.4-1.8a3.515,3.515,0,0,0-1.8-1.9" transform="translate(-101.487 -50.7)" fill="#fff"/><path d="M109.8,76.8l.6-.4a1.817,1.817,0,0,1,2,0c.3.2.5.4.4.6a2.233,2.233,0,0,1-.7.7l-.4.3-1.9-1.2m4-1.3a3.28,3.28,0,0,0-2.1-.5,5.493,5.493,0,0,0-2.3.7l-2,1.2,6.4,3.7,1.4-.8-2.3-1.3.6-.3c.8-.5,1.2-.9,1.3-1.4,0-.5-.3-.9-1-1.3" transform="translate(-101.487 -50.7)" fill="#fff"/><path d="M123.1,75.2l-1.1-.6-2.4,1.3-1.6-1,2.1-1.2L119,73l-2.2,1.3-1.4-.8,2.4-1.4-1.2-.6L113,73.6l6.4,3.7,3.7-2.1" transform="translate(-101.487 -50.7)" fill="#fff"/><path d="M130.1,71.1l-6.4-3.7-1.2.7,3.1,1.8c.3.2,1,.5,1.8,1h0l-7.6-1.2-1.7,1,6.4,3.7,1.2-.7-3-1.8c-.4-.2-1-.5-1.9-1h0l7.7,1.2,1.6-1" transform="translate(-101.487 -50.7)" fill="#fff"/><path d="M140.9,64.9l-6.4-3.7-1.8,1.1,3.3,3.8h0l-6.4-2-1.8,1.1,6.4,3.7,1.2-.7-3-1.7c-.3-.2-1.1-.6-2.1-1.1h0l6.6,2,1.2-.7-3.4-3.9h0c.8.5,1.3.8,1.4.9.2.1.3.2.5.3l3,1.8,1.3-.9" transform="translate(-101.487 -50.7)" fill="#fff"/><path d="M141.3,61.5c-1-1.1-1.7-1.8-2-2.1a1.689,1.689,0,0,1,.5.2c.2.1,1.3.4,3.1.9l-1.6,1m6.6-.7-8.7-2.4-1.7,1,4.2,5,1.5-.9-1.1-1.2,2.3-1.4,2,.6,1.5-.7" transform="translate(-101.487 -50.7)" fill="#fff"/><path d="M153.4,57.3l-3.3-1.9-2.5,1.5,1.1.7,1.2-.7,1.3.8a5.546,5.546,0,0,1-.8.6,3.425,3.425,0,0,1-1.8.4,4.382,4.382,0,0,1-2-.7,2.016,2.016,0,0,1-1.1-1.2,1.446,1.446,0,0,1,.8-1.2,4.779,4.779,0,0,1,1.8-.6l-.6-.9a7.886,7.886,0,0,0-2.3.9c-1,.6-1.6,1.2-1.6,1.9s.5,1.3,1.5,1.9a7.932,7.932,0,0,0,3.2,1,5.751,5.751,0,0,0,3.1-.8,8.65,8.65,0,0,0,1-.7l1-1" transform="translate(-101.487 -50.7)" fill="#fff"/><path d="M158.8,54.4l-1.1-.6-2.3,1.3-1.7-.9,2.2-1.3-1.1-.6-2.2,1.2-1.4-.8,2.3-1.3-1.1-.7-3.7,2.1,6.5,3.8,3.6-2.2" transform="translate(-101.487 -50.7)" fill="#fff"/></g></g></g></g><path d="M437.242,346.66l61.368-6.449,7.312-.765v-4.824l-5.994-3.2-64.718-9.042-7.214-.61-8.839.61-36.677,4.506-11.074,2.1-10.417,1.556-4.236.43-1.452,3.654,4.3,1.29,9.168,4.449Z" transform="translate(-334.634 32.4)" fill="#794875" fill-rule="evenodd" opacity="0.3"/></svg>