<svg xmlns="http://www.w3.org/2000/svg" xmlns:xlink="http://www.w3.org/1999/xlink" width="480.7" height="336.2" viewBox="0 0 480.7 336.2"><defs><linearGradient id="a" x1="-0.001" y1="0.5" x2="0.999" y2="0.5" gradientUnits="objectBoundingBox"><stop offset="0" stop-color="#603082"/><stop offset="0.994" stop-color="#2a0e51"/></linearGradient><linearGradient id="b" x1="0.5" y1="1" x2="0.5" y2="0.001" gradientUnits="objectBoundingBox"><stop offset="0.006" stop-color="#2a0e45"/><stop offset="1" stop-color="#561f7d"/></linearGradient><radialGradient id="c" cx="0.5" cy="0.722" r="0.974" gradientTransform="translate(0.249) scale(0.501 1)" gradientUnits="objectBoundingBox"><stop offset="0" stop-color="aqua"/><stop offset="0.994" stop-color="#26a9ff"/></radialGradient><radialGradient id="d" cx="0.649" cy="0.541" r="6.387" gradientTransform="translate(0.62 69.521) scale(0.044 1.327)" gradientUnits="objectBoundingBox"><stop offset="0" stop-color="#ebd7e3"/><stop offset="0.983" stop-color="#bdafd2"/></radialGradient><linearGradient id="e" x1="0.5" y1="1.001" x2="0.5" y2="-0.001" xlink:href="#a"/><radialGradient id="f" cx="0.5" cy="0.504" r="5.645" gradientTransform="translate(0.469) scale(0.063 1)" gradientUnits="objectBoundingBox"><stop offset="0" stop-color="#b3819d"/><stop offset="1" stop-color="#785ca6"/></radialGradient><radialGradient id="g" cx="0.5" cy="0.495" r="11.006" gradientTransform="translate(0.484) scale(0.032 1)" xlink:href="#d"/><linearGradient id="h" x1="-0.002" y1="0.502" x2="1" y2="0.502" gradientUnits="objectBoundingBox"><stop offset="0" stop-color="#ffa700"/><stop offset="1" stop-color="#ffd328"/></linearGradient><linearGradient id="i" x1="7.259" y1="-6.297" x2="8.231" y2="-6.297" gradientUnits="objectBoundingBox"><stop offset="0.002" stop-color="#e03347"/><stop offset="1" stop-color="#ff6e27"/></linearGradient><linearGradient id="j" x1="1.013" y1="0.365" x2="0.013" y2="0.669" gradientUnits="objectBoundingBox"><stop offset="0" stop-color="#ff6e27"/><stop offset="0.998" stop-color="#e03347"/></linearGradient><linearGradient id="k" x1="0" y1="0.501" x2="1" y2="0.501" xlink:href="#h"/><linearGradient id="l" x1="0.424" y1="1.015" x2="0.424" y2="0.037" xlink:href="#h"/><linearGradient id="m" x1="12.212" y1="-2.938" x2="12.212" y2="-4.047" xlink:href="#h"/><linearGradient id="n" y1="0.499" x2="1" y2="0.499" gradientUnits="objectBoundingBox"><stop offset="0" stop-color="#ff8647"/><stop offset="1" stop-color="#ffb934"/></linearGradient><radialGradient id="o" cx="0.505" cy="0.297" r="0.188" gradientTransform="translate(60.042 -0.488) scale(2.657 2.643)" gradientUnits="objectBoundingBox"><stop offset="0" stop-color="#ffef00"/><stop offset="0.009" stop-color="#fcec00"/><stop offset="0.228" stop-color="#b1a500"/><stop offset="0.434" stop-color="#726b00"/><stop offset="0.62" stop-color="#413d00"/><stop offset="0.782" stop-color="#1d1c00"/><stop offset="0.914" stop-color="#080700"/><stop offset="1"/></radialGradient><radialGradient id="p" cx="0.649" cy="0.547" r="3.894" gradientTransform="translate(0.602 30.841) scale(0.073 1.327)" xlink:href="#d"/><linearGradient id="q" x1="0" y1="0.5" x2="1" y2="0.5" xlink:href="#h"/><linearGradient id="r" x1="0.502" y1="0.798" x2="0.498" y2="0.201" gradientUnits="objectBoundingBox"><stop offset="0" stop-color="#ff8a45"/><stop offset="1" stop-color="#ffc81e"/></linearGradient><linearGradient id="s" y1="0.5" x2="1" y2="0.5" gradientUnits="objectBoundingBox"><stop offset="0.002" stop-color="#c93347"/><stop offset="1" stop-color="#ff7527"/></linearGradient><linearGradient id="t" x1="0.447" y1="0.815" x2="0.28" y2="-0.197" xlink:href="#s"/><linearGradient id="u" x1="0.412" y1="0.833" x2="0.412" y2="-0.141" xlink:href="#s"/><linearGradient id="v" x1="-0.53" y1="1.595" x2="-0.638" y2="0.943" xlink:href="#h"/><radialGradient id="w" cx="0.5" cy="0.503" r="6.661" gradientTransform="translate(0.473) scale(0.053 1)" gradientUnits="objectBoundingBox"><stop offset="0" stop-color="#6d47fe"/><stop offset="0.994" stop-color="#713592"/></radialGradient><linearGradient id="x" x1="0.5" y1="0.999" x2="0.5" y2="0.001" gradientUnits="objectBoundingBox"><stop offset="0" stop-color="#83a8ff"/><stop offset="0.212" stop-color="#8e7bbb"/><stop offset="1" stop-color="#ebd7e3"/></linearGradient><radialGradient id="y" cx="0.497" cy="0.5" r="0.781" gradientTransform="translate(0.246) scale(0.508 1)" xlink:href="#d"/><radialGradient id="z" cx="0.499" cy="0.499" r="0.793" gradientTransform="translate(0.251) scale(0.498 1)" xlink:href="#d"/><radialGradient id="aa" cx="0.503" cy="0.498" r="0.78" gradientTransform="translate(0.246) scale(0.508 1)" gradientUnits="objectBoundingBox"><stop offset="0" stop-color="#5178fe"/><stop offset="0.994" stop-color="#713592"/></radialGradient><radialGradient id="ab" cx="0.499" cy="0.499" r="0.788" gradientTransform="translate(0.249) scale(0.502 1)" xlink:href="#aa"/><linearGradient id="ac" x1="0.643" y1="1.145" x2="0.643" y2="0.063" xlink:href="#s"/><linearGradient id="ad" x1="0.602" y1="1.152" x2="0.602" y2="0.144" xlink:href="#s"/><linearGradient id="ae" x1="0.675" y1="1.237" x2="0.675" y2="0.164" xlink:href="#h"/><radialGradient id="af" cx="0.51" cy="0.531" r="0.489" gradientTransform="matrix(0.687, 0.635, -0.564, 0.773, 1.135, 0.36)" xlink:href="#f"/><radialGradient id="ag" cx="0.51" cy="0.52" r="0.498" gradientTransform="matrix(0.673, 0.635, -0.553, 0.773, 1.135, 0.376)" xlink:href="#d"/><linearGradient id="ah" x1="-3.185" y1="19.875" x2="-3.185" y2="18.798" gradientUnits="objectBoundingBox"><stop offset="0" stop-color="#683b55"/><stop offset="0.189" stop-color="#4f2d40"/><stop offset="0.55" stop-color="#24151e"/><stop offset="0.832" stop-color="#0a0608"/><stop offset="1"/></linearGradient><radialGradient id="ai" cx="0.501" cy="0.504" r="0.465" gradientTransform="translate(-0.086) scale(1.172 1)" xlink:href="#f"/><radialGradient id="aj" cx="0.501" cy="0.5" r="0.557" gradientTransform="translate(0.089) scale(0.822 1)" xlink:href="#f"/></defs><g transform="translate(-4.4 -0.1)"><rect width="6" height="6" transform="translate(143.2 5.9)" fill="#efe8ff"/><rect width="6" height="6" transform="translate(154.4 5.9)" fill="#efe8ff"/><rect width="6" height="6" transform="translate(188.2 5.9)" fill="#efe8ff"/><rect width="6" height="6" transform="translate(199.4 5.9)" fill="#efe8ff"/><rect width="6" height="6" transform="translate(210.7 5.9)" fill="#efe8ff"/><rect width="6" height="6" transform="translate(143.2 16)" fill="#efe8ff"/><rect width="6" height="6" transform="translate(154.4 16)" fill="#efe8ff"/><rect width="6" height="6" transform="translate(165.7 16)" fill="#efe8ff"/><rect width="6" height="6" transform="translate(176.9 16)" fill="#efe8ff"/><rect width="6" height="6" transform="translate(188.2 16)" fill="#efe8ff"/><rect width="6" height="6" transform="translate(199.4 16)" fill="#efe8ff"/><rect width="6" height="6" transform="translate(210.7 16)" fill="#efe8ff"/><rect width="6" height="6" transform="translate(143.2 26)" fill="#efe8ff"/><rect width="6" height="6" transform="translate(154.4 26)" fill="#efe8ff"/><rect width="6" height="6" transform="translate(165.7 26)" fill="#efe8ff"/><rect width="6" height="6" transform="translate(176.9 26)" fill="#efe8ff"/><rect width="6" height="6" transform="translate(188.2 26)" fill="#efe8ff"/><rect width="6" height="6" transform="translate(199.4 26)" fill="#efe8ff"/><rect width="6" height="6" transform="translate(210.7 26)" fill="#efe8ff"/><rect width="6" height="6" transform="translate(143.2 36.1)" fill="#efe8ff"/><rect width="6" height="6" transform="translate(154.4 36.1)" fill="#efe8ff"/><rect width="6" height="6" transform="translate(165.7 36.1)" fill="#efe8ff"/><rect width="6" height="6" transform="translate(176.9 36.1)" fill="#efe8ff"/><rect width="6" height="6" transform="translate(188.2 36.1)" fill="#efe8ff"/><rect width="6" height="6" transform="translate(199.4 36.1)" fill="#efe8ff"/><rect width="6" height="6" transform="translate(210.7 36.1)" fill="#efe8ff"/><rect width="6" height="6" transform="translate(143.2 46.2)" fill="#efe8ff"/><rect width="6" height="6" transform="translate(154.4 46.2)" fill="#efe8ff"/><rect width="6" height="6" transform="translate(165.7 46.2)" fill="#efe8ff"/><rect width="6" height="6" transform="translate(176.9 46.2)" fill="#efe8ff"/><rect width="6" height="6" transform="translate(188.2 46.2)" fill="#efe8ff"/><rect width="6" height="6" transform="translate(199.4 46.2)" fill="#efe8ff"/><rect width="6" height="6" transform="translate(210.7 46.2)" fill="#efe8ff"/><rect width="6" height="6" transform="translate(143.2 56.3)" fill="#efe8ff"/><rect width="6" height="6" transform="translate(154.4 56.3)" fill="#efe8ff"/><rect width="6" height="6" transform="translate(165.7 56.3)" fill="#efe8ff"/><rect width="6" height="6" transform="translate(176.9 56.3)" fill="#efe8ff"/><rect width="6" height="6" transform="translate(188.2 56.3)" fill="#efe8ff"/><rect width="6" height="6" transform="translate(131.9 66.3)" fill="#efe8ff"/><rect width="6" height="6" transform="translate(143.2 66.3)" fill="#efe8ff"/><rect width="6" height="6" transform="translate(154.4 66.3)" fill="#efe8ff"/><rect width="6" height="6" transform="translate(165.7 66.3)" fill="#efe8ff"/><rect width="6" height="6" transform="translate(176.9 66.3)" fill="#efe8ff"/><rect width="6" height="6" transform="translate(188.2 66.3)" fill="#efe8ff"/><rect width="6" height="6" transform="translate(199.4 66.3)" fill="#efe8ff"/><rect width="6" height="6" transform="translate(210.7 66.3)" fill="#efe8ff"/><rect width="6" height="6" transform="translate(131.9 76.4)" fill="#efe8ff"/><rect width="6" height="6" transform="translate(143.2 76.4)" fill="#efe8ff"/><rect width="6" height="6" transform="translate(154.4 76.4)" fill="#efe8ff"/><rect width="6" height="6" transform="translate(165.7 76.4)" fill="#efe8ff"/><rect width="6" height="6" transform="translate(176.9 76.4)" fill="#efe8ff"/><rect width="6" height="6" transform="translate(143.2 86.5)" fill="#efe8ff"/><rect width="6" height="6" transform="translate(154.4 86.5)" fill="#efe8ff"/><rect width="6" height="6" transform="translate(165.7 86.5)" fill="#efe8ff"/><rect width="6" height="6" transform="translate(176.9 86.5)" fill="#efe8ff"/><rect width="6" height="6" transform="translate(220.9 5.9)" fill="#efe8ff"/><rect width="6" height="6" transform="translate(220.9 16)" fill="#efe8ff"/><rect width="6" height="6" transform="translate(232.1 16)" fill="#efe8ff"/><rect width="6" height="6" transform="translate(220.9 26)" fill="#efe8ff"/><rect width="6" height="6" transform="translate(232.1 26)" fill="#efe8ff"/><rect width="6" height="6" transform="translate(220.9 36.1)" fill="#efe8ff"/><rect width="6" height="6" transform="translate(232.1 36.1)" fill="#efe8ff"/><rect width="6" height="6" transform="translate(243.4 36.1)" fill="#efe8ff"/><rect width="6" height="6" transform="translate(254.6 36.1)" fill="#efe8ff"/><rect width="6" height="6" transform="translate(265.9 36.1)" fill="#efe8ff"/><rect width="6" height="6" transform="translate(277.1 36.1)" fill="#efe8ff"/><rect width="6" height="6" transform="translate(220.9 46.2)" fill="#efe8ff"/><rect width="6" height="6" transform="translate(232.1 46.2)" fill="#efe8ff"/><rect width="6" height="6" transform="translate(243.4 46.2)" fill="#efe8ff"/><rect width="6" height="6" transform="translate(254.6 46.2)" fill="#efe8ff"/><rect width="6" height="6" transform="translate(265.9 46.2)" fill="#efe8ff"/><rect width="6" height="6" transform="translate(277.1 46.2)" fill="#efe8ff"/><rect width="6" height="6" transform="translate(220.9 56.3)" fill="#efe8ff"/><rect width="6" height="6" transform="translate(232.1 56.3)" fill="#efe8ff"/><rect width="6" height="6" transform="translate(243.4 56.3)" fill="#efe8ff"/><rect width="6" height="6" transform="translate(254.6 56.3)" fill="#efe8ff"/><rect width="6" height="6" transform="translate(220.9 66.3)" fill="#efe8ff"/><rect width="6" height="6" transform="translate(232.1 66.3)" fill="#efe8ff"/><rect width="6" height="6" transform="translate(243.4 66.3)" fill="#efe8ff"/><rect width="6" height="6" transform="translate(254.6 66.3)" fill="#efe8ff"/><rect width="6" height="6" transform="translate(265.9 66.3)" fill="#efe8ff"/><rect width="6" height="6" transform="translate(277.1 66.3)" fill="#efe8ff"/><rect width="6" height="6" transform="translate(220.9 76.4)" fill="#efe8ff"/><rect width="6" height="6" transform="translate(232.1 76.4)" fill="#efe8ff"/><rect width="6" height="6" transform="translate(243.4 76.4)" fill="#efe8ff"/><rect width="6" height="6" transform="translate(220.9 86.5)" fill="#efe8ff"/><rect width="6" height="6" transform="translate(232.1 86.5)" fill="#efe8ff"/><rect width="6" height="6" transform="translate(243.4 86.5)" fill="#efe8ff"/><rect width="6" height="6" transform="translate(41.1 0.1)" fill="#efe8ff"/><rect width="6" height="6" transform="translate(143.2 96.6)" fill="#efe8ff"/><rect width="6" height="6" transform="translate(154.4 96.6)" fill="#efe8ff"/><rect width="6" height="6" transform="translate(98.2 5.9)" fill="#efe8ff"/><rect width="6" height="6" transform="translate(109.4 5.9)" fill="#efe8ff"/><rect width="6" height="6" transform="translate(98.2 16)" fill="#efe8ff"/><rect width="6" height="6" transform="translate(109.4 16)" fill="#efe8ff"/><rect width="6" height="6" transform="translate(98.2 26)" fill="#efe8ff"/><rect width="6" height="6" transform="translate(109.4 26)" fill="#efe8ff"/><rect width="6" height="6" transform="translate(98.2 36.1)" fill="#efe8ff"/><rect width="6" height="6" transform="translate(109.4 36.1)" fill="#efe8ff"/><rect width="6" height="6" transform="translate(98.2 46.2)" fill="#efe8ff"/><rect width="6" height="6" transform="translate(109.4 46.2)" fill="#efe8ff"/><rect width="6" height="6" transform="translate(98.2 56.3)" fill="#efe8ff"/><rect width="6" height="6" transform="translate(109.4 56.3)" fill="#efe8ff"/><rect width="6" height="6" transform="translate(98.2 66.3)" fill="#efe8ff"/><rect width="6" height="6" transform="translate(109.4 66.3)" fill="#efe8ff"/><rect width="6" height="6" transform="translate(120.7 66.3)" fill="#efe8ff"/><rect width="6" height="6" transform="translate(98.2 76.4)" fill="#efe8ff"/><rect width="6" height="6" transform="translate(109.4 76.4)" fill="#efe8ff"/><rect width="6" height="6" transform="translate(120.7 76.4)" fill="#efe8ff"/><rect width="6" height="6" transform="translate(86.9 5.9)" fill="#efe8ff"/><rect width="6" height="6" transform="translate(86.9 16)" fill="#efe8ff"/><rect width="6" height="6" transform="translate(64.4 26)" fill="#efe8ff"/><rect width="6" height="6" transform="translate(75.7 26)" fill="#efe8ff"/><rect width="6" height="6" transform="translate(86.9 26)" fill="#efe8ff"/><rect width="6" height="6" transform="translate(38.1 268.6)" fill="#efe8ff"/><rect width="6" height="6" transform="translate(10.8 236.9)" fill="#efe8ff"/><rect width="6" height="6" transform="translate(49.4 268.6)" fill="#efe8ff"/><rect width="6" height="6" transform="translate(38.1 278.7)" fill="#efe8ff"/><rect width="6" height="6" transform="translate(49.4 278.7)" fill="#efe8ff"/><rect width="6" height="6" transform="translate(38.1 288.7)" fill="#efe8ff"/><rect width="6" height="6" transform="translate(49.4 288.7)" fill="#efe8ff"/><rect width="6" height="6" transform="translate(26.9 268.6)" fill="#efe8ff"/><rect width="6" height="6" transform="translate(26.9 278.7)" fill="#efe8ff"/><rect width="6" height="6" transform="translate(4.4 288.7)" fill="#efe8ff"/><rect width="6" height="6" transform="translate(15.6 288.7)" fill="#efe8ff"/><rect width="6" height="6" transform="translate(26.9 288.7)" fill="#efe8ff"/><rect width="6" height="6" transform="translate(38.1 299.5)" fill="#efe8ff"/><rect width="6" height="6" transform="translate(26.9 299.5)" fill="#efe8ff"/><rect width="6" height="6" transform="translate(64.4 36.1)" fill="#efe8ff"/><rect width="6" height="6" transform="translate(75.7 36.1)" fill="#efe8ff"/><rect width="6" height="6" transform="translate(86.9 36.1)" fill="#efe8ff"/><rect width="6" height="6" transform="translate(64.4 46.2)" fill="#efe8ff"/><rect width="6" height="6" transform="translate(75.7 46.2)" fill="#efe8ff"/><rect width="6" height="6" transform="translate(86.9 46.2)" fill="#efe8ff"/><rect width="6" height="6" transform="translate(97.4 146.3)" fill="#efe8ff"/><rect width="6" height="6" transform="translate(108.6 146.3)" fill="#efe8ff"/><rect width="6" height="6" transform="translate(142.4 146.3)" fill="#efe8ff"/><rect width="6" height="6" transform="translate(153.6 146.3)" fill="#efe8ff"/><rect width="6" height="6" transform="translate(164.9 146.3)" fill="#efe8ff"/><rect width="6" height="6" transform="translate(97.4 156.4)" fill="#efe8ff"/><rect width="6" height="6" transform="translate(108.6 156.4)" fill="#efe8ff"/><rect width="6" height="6" transform="translate(119.9 156.4)" fill="#efe8ff"/><rect width="6" height="6" transform="translate(131.1 156.4)" fill="#efe8ff"/><rect width="6" height="6" transform="translate(142.4 156.4)" fill="#efe8ff"/><rect width="6" height="6" transform="translate(153.6 156.4)" fill="#efe8ff"/><rect width="6" height="6" transform="translate(164.9 156.4)" fill="#efe8ff"/><rect width="6" height="6" transform="translate(97.4 166.4)" fill="#efe8ff"/><rect width="6" height="6" transform="translate(108.6 166.4)" fill="#efe8ff"/><rect width="6" height="6" transform="translate(119.9 166.4)" fill="#efe8ff"/><rect width="6" height="6" transform="translate(131.1 166.4)" fill="#efe8ff"/><rect width="6" height="6" transform="translate(142.4 166.4)" fill="#efe8ff"/><rect width="6" height="6" transform="translate(153.6 166.4)" fill="#efe8ff"/><rect width="6" height="6" transform="translate(164.9 166.4)" fill="#efe8ff"/><rect width="6" height="6" transform="translate(97.4 176.5)" fill="#efe8ff"/><rect width="6" height="6" transform="translate(108.6 176.5)" fill="#efe8ff"/><rect width="6" height="6" transform="translate(119.9 176.5)" fill="#efe8ff"/><rect width="6" height="6" transform="translate(131.1 176.5)" fill="#efe8ff"/><rect width="6" height="6" transform="translate(142.4 176.5)" fill="#efe8ff"/><rect width="6" height="6" transform="translate(153.6 176.5)" fill="#efe8ff"/><rect width="6" height="6" transform="translate(164.9 176.5)" fill="#efe8ff"/><rect width="6" height="6" transform="translate(97.4 186.6)" fill="#efe8ff"/><rect width="6" height="6" transform="translate(108.6 186.6)" fill="#efe8ff"/><rect width="6" height="6" transform="translate(119.9 186.6)" fill="#efe8ff"/><rect width="6" height="6" transform="translate(131.1 186.6)" fill="#efe8ff"/><rect width="6" height="6" transform="translate(142.4 186.6)" fill="#efe8ff"/><rect width="6" height="6" transform="translate(153.6 186.6)" fill="#efe8ff"/><rect width="6" height="6" transform="translate(164.9 186.6)" fill="#efe8ff"/><rect width="6" height="6" transform="translate(175.1 146.3)" fill="#efe8ff"/><rect width="6" height="6" transform="translate(175.1 156.4)" fill="#efe8ff"/><rect width="6" height="6" transform="translate(186.3 156.4)" fill="#efe8ff"/><rect width="6" height="6" transform="translate(175.1 166.4)" fill="#efe8ff"/><rect width="6" height="6" transform="translate(186.3 166.4)" fill="#efe8ff"/><rect width="6" height="6" transform="translate(175.1 176.5)" fill="#efe8ff"/><rect width="6" height="6" transform="translate(186.3 176.5)" fill="#efe8ff"/><rect width="6" height="6" transform="translate(197.6 176.5)" fill="#efe8ff"/><rect width="6" height="6" transform="translate(208.8 176.5)" fill="#efe8ff"/><rect width="6" height="6" transform="translate(175.1 186.6)" fill="#efe8ff"/><rect width="6" height="6" transform="translate(186.3 186.6)" fill="#efe8ff"/><rect width="6" height="6" transform="translate(197.6 186.6)" fill="#efe8ff"/><rect width="6" height="6" transform="translate(208.8 186.6)" fill="#efe8ff"/><rect width="6" height="6" transform="translate(52.4 146.3)" fill="#efe8ff"/><rect width="6" height="6" transform="translate(63.6 146.3)" fill="#efe8ff"/><rect width="6" height="6" transform="translate(52.4 156.4)" fill="#efe8ff"/><rect width="6" height="6" transform="translate(63.6 156.4)" fill="#efe8ff"/><rect width="6" height="6" transform="translate(52.4 166.4)" fill="#efe8ff"/><rect width="6" height="6" transform="translate(63.6 166.4)" fill="#efe8ff"/><rect width="6" height="6" transform="translate(52.4 176.5)" fill="#efe8ff"/><rect width="6" height="6" transform="translate(63.6 176.5)" fill="#efe8ff"/><rect width="6" height="6" transform="translate(52.4 186.6)" fill="#efe8ff"/><rect width="6" height="6" transform="translate(63.6 186.6)" fill="#efe8ff"/><rect width="6" height="6" transform="translate(41.1 146.3)" fill="#efe8ff"/><rect width="6" height="6" transform="translate(41.1 156.4)" fill="#efe8ff"/><rect width="6" height="6" transform="translate(18.6 166.4)" fill="#efe8ff"/><rect width="6" height="6" transform="translate(29.9 166.4)" fill="#efe8ff"/><rect width="6" height="6" transform="translate(41.1 166.4)" fill="#efe8ff"/><rect width="6" height="6" transform="translate(18.6 176.5)" fill="#efe8ff"/><rect width="6" height="6" transform="translate(29.9 176.5)" fill="#efe8ff"/><rect width="6" height="6" transform="translate(41.1 176.5)" fill="#efe8ff"/><rect width="6" height="6" transform="translate(18.6 186.6)" fill="#efe8ff"/><rect width="6" height="6" transform="translate(29.9 186.6)" fill="#efe8ff"/><rect width="6" height="6" transform="translate(41.1 186.6)" fill="#efe8ff"/><rect width="6" height="6" transform="translate(64.4 56.3)" fill="#efe8ff"/><rect width="6" height="6" transform="translate(75.7 56.3)" fill="#efe8ff"/><rect width="6" height="6" transform="translate(86.9 56.3)" fill="#efe8ff"/><rect width="6" height="6" transform="translate(64.4 66.3)" fill="#efe8ff"/><rect width="6" height="6" transform="translate(75.7 66.3)" fill="#efe8ff"/><rect width="6" height="6" transform="translate(86.9 66.3)" fill="#efe8ff"/><rect width="6" height="6" transform="translate(64.4 76.4)" fill="#efe8ff"/><rect width="6" height="6" transform="translate(75.7 76.4)" fill="#efe8ff"/><rect width="6" height="6" transform="translate(86.9 76.4)" fill="#efe8ff"/><rect width="6" height="6" transform="translate(64.4 86.5)" fill="#efe8ff"/><rect width="6" height="6" transform="translate(75.7 86.5)" fill="#efe8ff"/><rect width="6" height="6" transform="translate(64.4 96.6)" fill="#efe8ff"/><rect width="6" height="6" transform="translate(75.7 96.6)" fill="#efe8ff"/><rect width="6" height="6" transform="translate(165.7 96.6)" fill="#efe8ff"/><rect width="6" height="6" transform="translate(176.9 96.6)" fill="#efe8ff"/><rect width="6" height="6" transform="translate(289.2 5.9)" fill="#efe8ff"/><rect width="6" height="6" transform="translate(300.4 5.9)" fill="#efe8ff"/><rect width="6" height="6" transform="translate(334.2 5.9)" fill="#efe8ff"/><rect width="6" height="6" transform="translate(345.4 5.9)" fill="#efe8ff"/><rect width="6" height="6" transform="translate(356.7 5.9)" fill="#efe8ff"/><rect width="6" height="6" transform="translate(289.2 16)" fill="#efe8ff"/><rect width="6" height="6" transform="translate(300.4 16)" fill="#efe8ff"/><rect width="6" height="6" transform="translate(311.7 16)" fill="#efe8ff"/><rect width="6" height="6" transform="translate(322.9 16)" fill="#efe8ff"/><rect width="6" height="6" transform="translate(334.2 16)" fill="#efe8ff"/><rect width="6" height="6" transform="translate(345.4 16)" fill="#efe8ff"/><rect width="6" height="6" transform="translate(356.7 16)" fill="#efe8ff"/><rect width="6" height="6" transform="translate(289.2 26)" fill="#efe8ff"/><rect width="6" height="6" transform="translate(300.4 26)" fill="#efe8ff"/><rect width="6" height="6" transform="translate(311.7 26)" fill="#efe8ff"/><rect width="6" height="6" transform="translate(322.9 26)" fill="#efe8ff"/><rect width="6" height="6" transform="translate(334.2 26)" fill="#efe8ff"/><rect width="6" height="6" transform="translate(345.4 26)" fill="#efe8ff"/><rect width="6" height="6" transform="translate(356.7 26)" fill="#efe8ff"/><rect width="6" height="6" transform="translate(289.2 36.1)" fill="#efe8ff"/><rect width="6" height="6" transform="translate(300.4 36.1)" fill="#efe8ff"/><rect width="6" height="6" transform="translate(311.7 36.1)" fill="#efe8ff"/><rect width="6" height="6" transform="translate(322.9 36.1)" fill="#efe8ff"/><rect width="6" height="6" transform="translate(334.2 36.1)" fill="#efe8ff"/><rect width="6" height="6" transform="translate(345.4 36.1)" fill="#efe8ff"/><rect width="6" height="6" transform="translate(356.7 36.1)" fill="#efe8ff"/><rect width="6" height="6" transform="translate(289.2 46.2)" fill="#efe8ff"/><rect width="6" height="6" transform="translate(300.4 46.2)" fill="#efe8ff"/><rect width="6" height="6" transform="translate(311.7 46.2)" fill="#efe8ff"/><rect width="6" height="6" transform="translate(322.9 46.2)" fill="#efe8ff"/><rect width="6" height="6" transform="translate(334.2 46.2)" fill="#efe8ff"/><rect width="6" height="6" transform="translate(345.4 46.2)" fill="#efe8ff"/><rect width="6" height="6" transform="translate(356.7 46.2)" fill="#efe8ff"/><rect width="6" height="6" transform="translate(289.2 56.3)" fill="#efe8ff"/><rect width="6" height="6" transform="translate(300.4 56.3)" fill="#efe8ff"/><rect width="6" height="6" transform="translate(311.7 56.3)" fill="#efe8ff"/><rect width="6" height="6" transform="translate(322.9 56.3)" fill="#efe8ff"/><rect width="6" height="6" transform="translate(334.2 56.3)" fill="#efe8ff"/><rect width="6" height="6" transform="translate(289.2 66.3)" fill="#efe8ff"/><rect width="6" height="6" transform="translate(300.4 66.3)" fill="#efe8ff"/><rect width="6" height="6" transform="translate(311.7 66.3)" fill="#efe8ff"/><rect width="6" height="6" transform="translate(322.9 66.3)" fill="#efe8ff"/><rect width="6" height="6" transform="translate(334.2 66.3)" fill="#efe8ff"/><rect width="6" height="6" transform="translate(345.4 66.3)" fill="#efe8ff"/><rect width="6" height="6" transform="translate(356.7 66.3)" fill="#efe8ff"/><rect width="6" height="6" transform="translate(289.2 76.4)" fill="#efe8ff"/><rect width="6" height="6" transform="translate(300.4 76.4)" fill="#efe8ff"/><rect width="6" height="6" transform="translate(311.7 76.4)" fill="#efe8ff"/><rect width="6" height="6" transform="translate(322.9 76.4)" fill="#efe8ff"/><rect width="6" height="6" transform="translate(289.2 86.5)" fill="#efe8ff"/><rect width="6" height="6" transform="translate(300.4 86.5)" fill="#efe8ff"/><rect width="6" height="6" transform="translate(311.7 86.5)" fill="#efe8ff"/><rect width="6" height="6" transform="translate(322.9 86.5)" fill="#efe8ff"/><rect width="6" height="6" transform="translate(366.9 5.9)" fill="#efe8ff"/><rect width="6" height="6" transform="translate(366.9 16)" fill="#efe8ff"/><rect width="6" height="6" transform="translate(378.1 16)" fill="#efe8ff"/><rect width="6" height="6" transform="translate(366.9 26)" fill="#efe8ff"/><rect width="6" height="6" transform="translate(378.1 26)" fill="#efe8ff"/><rect width="6" height="6" transform="translate(366.9 36.1)" fill="#efe8ff"/><rect width="6" height="6" transform="translate(378.1 36.1)" fill="#efe8ff"/><rect width="6" height="6" transform="translate(389.4 36.1)" fill="#efe8ff"/><rect width="6" height="6" transform="translate(400.6 36.1)" fill="#efe8ff"/><rect width="6" height="6" transform="translate(411.9 36.1)" fill="#efe8ff"/><rect width="6" height="6" transform="translate(423.1 36.1)" fill="#efe8ff"/><rect width="6" height="6" transform="translate(366.9 46.2)" fill="#efe8ff"/><rect width="6" height="6" transform="translate(378.1 46.2)" fill="#efe8ff"/><rect width="6" height="6" transform="translate(389.4 46.2)" fill="#efe8ff"/><rect width="6" height="6" transform="translate(400.6 46.2)" fill="#efe8ff"/><rect width="6" height="6" transform="translate(411.9 46.2)" fill="#efe8ff"/><rect width="6" height="6" transform="translate(423.1 46.2)" fill="#efe8ff"/><rect width="6" height="6" transform="translate(366.9 56.3)" fill="#efe8ff"/><rect width="6" height="6" transform="translate(378.1 56.3)" fill="#efe8ff"/><rect width="6" height="6" transform="translate(389.4 56.3)" fill="#efe8ff"/><rect width="6" height="6" transform="translate(400.6 56.3)" fill="#efe8ff"/><rect width="6" height="6" transform="translate(366.9 66.3)" fill="#efe8ff"/><rect width="6" height="6" transform="translate(378.1 66.3)" fill="#efe8ff"/><rect width="6" height="6" transform="translate(389.4 66.3)" fill="#efe8ff"/><rect width="6" height="6" transform="translate(400.6 66.3)" fill="#efe8ff"/><rect width="6" height="6" transform="translate(411.9 66.3)" fill="#efe8ff"/><rect width="6" height="6" transform="translate(423.1 66.3)" fill="#efe8ff"/><rect width="6" height="6" transform="translate(366.9 76.4)" fill="#efe8ff"/><rect width="6" height="6" transform="translate(378.1 76.4)" fill="#efe8ff"/><rect width="6" height="6" transform="translate(389.4 76.4)" fill="#efe8ff"/><rect width="6" height="6" transform="translate(366.9 86.5)" fill="#efe8ff"/><rect width="6" height="6" transform="translate(378.1 86.5)" fill="#efe8ff"/><rect width="6" height="6" transform="translate(389.4 86.5)" fill="#efe8ff"/><rect width="6" height="6" transform="translate(390.2 128.5)" fill="#efe8ff"/><rect width="6" height="6" transform="translate(401.4 128.5)" fill="#efe8ff"/><rect width="6" height="6" transform="translate(412.7 128.5)" fill="#efe8ff"/><rect width="6" height="6" transform="translate(390.2 138.6)" fill="#efe8ff"/><rect width="6" height="6" transform="translate(401.4 138.6)" fill="#efe8ff"/><rect width="6" height="6" transform="translate(412.7 138.6)" fill="#efe8ff"/><rect width="6" height="6" transform="translate(390.2 148.7)" fill="#efe8ff"/><rect width="6" height="6" transform="translate(401.4 148.7)" fill="#efe8ff"/><rect width="6" height="6" transform="translate(412.7 148.7)" fill="#efe8ff"/><rect width="6" height="6" transform="translate(390.2 158.7)" fill="#efe8ff"/><rect width="6" height="6" transform="translate(401.4 158.7)" fill="#efe8ff"/><rect width="6" height="6" transform="translate(412.7 158.7)" fill="#efe8ff"/><rect width="6" height="6" transform="translate(390.2 168.8)" fill="#efe8ff"/><rect width="6" height="6" transform="translate(401.4 168.8)" fill="#efe8ff"/><rect width="6" height="6" transform="translate(412.7 168.8)" fill="#efe8ff"/><rect width="6" height="6" transform="translate(390.2 178.9)" fill="#efe8ff"/><rect width="6" height="6" transform="translate(390.2 189)" fill="#efe8ff"/><rect width="6" height="6" transform="translate(401.4 189)" fill="#efe8ff"/><rect width="6" height="6" transform="translate(412.7 189)" fill="#efe8ff"/><rect width="6" height="6" transform="translate(422.8 128.5)" fill="#efe8ff"/><rect width="6" height="6" transform="translate(422.8 138.6)" fill="#efe8ff"/><rect width="6" height="6" transform="translate(434.1 138.6)" fill="#efe8ff"/><rect width="6" height="6" transform="translate(422.8 148.7)" fill="#efe8ff"/><rect width="6" height="6" transform="translate(434.1 148.7)" fill="#efe8ff"/><rect width="6" height="6" transform="translate(422.8 158.7)" fill="#efe8ff"/><rect width="6" height="6" transform="translate(434.1 158.7)" fill="#efe8ff"/><rect width="6" height="6" transform="translate(445.3 158.7)" fill="#efe8ff"/><rect width="6" height="6" transform="translate(456.6 158.7)" fill="#efe8ff"/><rect width="6" height="6" transform="translate(467.8 158.7)" fill="#efe8ff"/><rect width="6" height="6" transform="translate(479.1 158.7)" fill="#efe8ff"/><rect width="6" height="6" transform="translate(422.8 168.8)" fill="#efe8ff"/><rect width="6" height="6" transform="translate(434.1 168.8)" fill="#efe8ff"/><rect width="6" height="6" transform="translate(445.3 168.8)" fill="#efe8ff"/><rect width="6" height="6" transform="translate(456.6 168.8)" fill="#efe8ff"/><rect width="6" height="6" transform="translate(467.8 168.8)" fill="#efe8ff"/><rect width="6" height="6" transform="translate(479.1 168.8)" fill="#efe8ff"/><rect width="6" height="6" transform="translate(422.8 178.9)" fill="#efe8ff"/><rect width="6" height="6" transform="translate(434.1 178.9)" fill="#efe8ff"/><rect width="6" height="6" transform="translate(445.3 178.9)" fill="#efe8ff"/><rect width="6" height="6" transform="translate(456.6 178.9)" fill="#efe8ff"/><rect width="6" height="6" transform="translate(422.8 189)" fill="#efe8ff"/><rect width="6" height="6" transform="translate(434.1 189)" fill="#efe8ff"/><rect width="6" height="6" transform="translate(445.3 189)" fill="#efe8ff"/><rect width="6" height="6" transform="translate(456.6 189)" fill="#efe8ff"/><rect width="6" height="6" transform="translate(467.8 189)" fill="#efe8ff"/><rect width="6" height="6" transform="translate(479.1 189)" fill="#efe8ff"/><rect width="6" height="6" transform="translate(422.8 199)" fill="#efe8ff"/><rect width="6" height="6" transform="translate(434.1 199)" fill="#efe8ff"/><rect width="6" height="6" transform="translate(445.3 199)" fill="#efe8ff"/><rect width="6" height="6" transform="translate(434.1 209.1)" fill="#efe8ff"/><rect width="6" height="6" transform="translate(445.3 209.1)" fill="#efe8ff"/><rect width="6" height="6" transform="translate(289.2 96.6)" fill="#efe8ff"/><rect width="6" height="6" transform="translate(300.4 96.6)" fill="#efe8ff"/><rect width="6" height="6" transform="translate(311.7 96.6)" fill="#efe8ff"/><rect width="6" height="6" transform="translate(322.9 96.6)" fill="#efe8ff"/></g><g transform="translate(-4.4 -0.1)"><path d="M332.1,323.2h-1.5l-12.8-.3-.8.1-17.9-.4.5-1.2h0l-15.5-10.1c.1-.2-.4-.3-1.3-.4a31.02,31.02,0,0,0-4.9-.3l-185.4.3c-3.5,0-6.3.3-6.2.7L71,320l1.4,4.9a3.984,3.984,0,0,0,1.7.3l-46,2.6,3.2,1.7,2.2.8,53.4-.5-6.9.4-.2.6-10.9.8,2,1L303.6,336l6.9.1,14.5.2,1.2-.7-7.3-1.2.5-.4-6.6-.9h0l-.8-.1h0l-6-.8h0l-.8-.1h0l-4.4-.6-4.3-.7h-.1l-1.8-.3h.1l-1.3-.1H293l-1.4-.2-14.3-.2h-.4l-13.5-.2h-.2l-70-.9,149.4-1.5v-3.7Z" fill="#794875" fill-rule="evenodd" opacity="0.3"/><path d="M305.8,313.3h-2c-15.6-.6-28.3-6-37.5-16.2-9.1-9.9-14.7-24.1-16.6-41.8a180.318,180.318,0,0,0-27.4,6.9l-.6-1.7a171.3,171.3,0,0,1,27.9-7.1,138.582,138.582,0,0,1-.3-20.5c.5-9.3-4-16.5-13.2-21.2-28.8-14.9-100.7-2.5-132.7,22.7l-1.1-1.4c14.9-11.8,40.1-21.7,67.4-26.6,28.3-5.1,52.8-3.7,67.2,3.7,9.9,5.1,14.7,12.8,14.2,22.9a147.769,147.769,0,0,0,.3,20.1c15.8-2.5,35.7-3.3,54.2,2.4,24.4,7.5,33.1,23.9,30.9,36.8C334.2,305.2,322.3,313.3,305.8,313.3ZM251.5,255c1.9,17.3,7.3,31.2,16.1,40.8,8.9,9.8,21.1,15,36.2,15.6,16.5.6,28.6-7,30.7-19.4,2.1-12.1-6.3-27.5-29.6-34.7C286.8,251.7,267.1,252.6,251.5,255Z" fill="url(#a)"/><path d="M296,78.9l-3.5,82.9L291.3,191a5.854,5.854,0,0,1-5.9,5.6H83.1a5.871,5.871,0,0,1-5.9-5.7L73.7,78.8a5.893,5.893,0,0,1,5.9-6.1H290.2A5.956,5.956,0,0,1,296,78.9Z" fill-rule="evenodd" fill="url(#b)"/><path d="M81.8,79.2l1.8,103.6,202-.2,3.7-103.8Z" fill-rule="evenodd" fill="url(#c)"/><path d="M77.3,190.9v-2.6l214.3-1.2-.2,3.9s.1,5.2-5.9,5.6H83.1S77.4,196.3,77.3,190.9Z" fill-rule="evenodd" fill="url(#d)"/><path d="M274.4,191.8a1.8,1.8,0,1,1-1.8-1.8A1.933,1.933,0,0,1,274.4,191.8Z" fill="#fffb00" fill-rule="evenodd"/><path d="M165.4,196.6l4.5,21.3h26.7l4.4-21.3Z" fill-rule="evenodd" fill="url(#e)"/><path d="M166.9,204l31.9,3.3,2.2-10.7H165.4Z" fill="#401734" fill-rule="evenodd" opacity="0.5"/><rect width="65.3" height="4.1" transform="translate(149.8 217.9)" fill="url(#f)"/><path d="M215.1,217.9l-18-2.1H169.4l-19.6,2.1Z" fill-rule="evenodd" fill="url(#g)"/><path d="M199.7,222v-4.1H214l-.9,4.1Z" fill="#fbf9fa" fill-rule="evenodd" opacity="0.8"/><path d="M296,78.9l-3.5,82.9-1,8.4-3.7-4.7,3.1-87.9H183.3l-4.8-4.8H290.1A5.832,5.832,0,0,1,296,78.9Z" fill="#fbf9fa" fill-rule="evenodd" opacity="0.8"/><path d="M189.8,79l97.7,49.1,1.8-49.3Z" fill="#fbf9fa" fill-rule="evenodd" opacity="0.5"/><path d="M75.9,147.8l5.9,4.1,1,31.6h50.9l11.8,13.1H83.1a6.011,6.011,0,0,1-5.9-4.7Z" fill="#fbf9fa" fill-rule="evenodd" opacity="0.8"/><path d="M83.1,155l41.1,27.7-40.6.1Z" fill="#fbf9fa" fill-rule="evenodd" opacity="0.5"/><path d="M283.2,93.6l6.2-5.7s13.8-.1,21-1.1v9.5a93.3,93.3,0,0,1-20.5,1.9Z" fill-rule="evenodd" fill="url(#h)"/><path d="M12.3,175.6l6.4-3.7s11.9,2.5,18.2,3L35.1,183a81.852,81.852,0,0,1-17.9-2.2Z" transform="translate(30)" fill-rule="evenodd" fill="url(#i)"/><path d="M283.2,111.8l5.3-4.2,19.7,1.2-1.9,9.5-18.2-1.8Z" fill-rule="evenodd" fill="url(#j)"/><path d="M288.8,138.2l-2.1,16.7s13.4.9,24.8,4.8l3.4-18.7S305.7,137.7,288.8,138.2Z" fill-rule="evenodd" fill="url(#k)"/><path d="M293.5,138.1l-.7,17.4-6.1-.6,2.1-16.7Z" fill="#953345" fill-rule="evenodd" opacity="0.3"/><path d="M294.4,117.1l.4-9.1-6.3-.4-5.3,4.2,4.9,4.7Z" fill="#953345" fill-rule="evenodd" opacity="0.3"/><path d="M295.6,87.9l-.4,10.4-5.3-.1-6.7-4.6,6.2-5.7Z" fill="#953345" fill-rule="evenodd" opacity="0.3"/><path d="M302.6,30.1s8.6-18.6,15.5-27l14,10.9s-12.4,12.2-18.3,23.1Z" fill-rule="evenodd" fill="url(#l)"/><path d="M83.6,208.7S70.4,221.3,62,226l-8.1-13.5s14.3-6.1,22.7-13.2Z" fill-rule="evenodd" fill="url(#m)"/><path d="M35.3,248.1,79,234.8l196.8-15.2,57.5,7.1Z" fill-rule="evenodd" fill="url(#n)"/><ellipse cx="3.5" cy="9.3" rx="3.5" ry="9.3" transform="translate(268.8 221.9)" fill="url(#o)"/><path d="M223.2,223.6,142,237.5l-76.1,1.3,13.1-4Z" fill="#ac2a41" fill-rule="evenodd" opacity="0.5"/><path d="M38.4,257l2,4.4,292.9-15.9v-5.6Z" fill-rule="evenodd" fill="url(#p)"/><path d="M103.1,243.2,323.5,225l9.8,1.7Z" fill-rule="evenodd" fill="url(#q)"/><path d="M275.8,219.6v11.2L79.1,245.2,79,234.8Z" fill-rule="evenodd" fill="url(#r)"/><path d="M38.4,257l-3.1-8.9,298-21.4v13.2Z" fill-rule="evenodd" fill="url(#s)"/><path d="M288.8,242.5l-2.1-12.7,38.8-3.1L324.2,240Z" fill="#fbf9fa" fill-rule="evenodd" opacity="0.18"/><path d="M48.2,256.5l-2.6-9.1,26.1-1.9.8,9.5Z" fill="#ac2a41" fill-rule="evenodd"/><path d="M356.3,151.5l-4,11.4C354.5,156.6,357.7,152.5,356.3,151.5Zm-4,11.4-4,11.4C349.3,174,350.1,169.2,352.3,162.9Zm4-11.4-4,11.4C354.5,156.6,357.7,152.5,356.3,151.5Zm-4,11.4-4,11.4C349.3,174,350.1,169.2,352.3,162.9Zm11.5,9.9,3.9,2.2,4.2-11.4-4.5-.7a5.066,5.066,0,0,0,.2-1.3,38.175,38.175,0,0,0,.4-5.7l4.7-2.9-2.1-10.1-4.5,4.3a11.438,11.438,0,0,0-2.3-3.3,6.035,6.035,0,0,0-.8-.8l2.7-6.3-7.3-2.4h0l-1.8,6.4a11.055,11.055,0,0,0-4.9,1.2l-.8-6-8,6.1,1.9,5.4a28.7,28.7,0,0,0-3.9,5.7L337,151l-4.2,11.4,4.5.7a28.025,28.025,0,0,0-.6,7L332,173l2.1,10.1,4.5-4.3a12.7,12.7,0,0,0,3.1,4.1l-2.7,6.4,7.2,2.8,1.1-4.1.8-2.8a11.8,11.8,0,0,0,5-1.2l.8,6,8-6.1-1.9-5.4a38.367,38.367,0,0,0,3.2-4.4A13.9,13.9,0,0,1,363.8,172.8Zm-11.5-9.9c-2.2,6.3,0,12.8-4,11.4s-5.5-7.6-3.3-13.9,7.2-10.3,11.2-8.9C360.3,152.9,354.5,156.6,352.3,162.9Zm4-11.4-4,11.4C354.5,156.6,357.7,152.5,356.3,151.5Zm-4,11.4-4,11.4C349.3,174,350.1,169.2,352.3,162.9Z" fill-rule="evenodd" fill="url(#t)"/><path d="M367.7,175l4.2-11.4-4.3-2-.7-.3.4-6.3,4.7-2.3-1.6-9.8-10.3-3.4L362,144l3.6-7.3-7.3-2.4-3-1-7.2-2.8-1.3,4.9-6.3-3-8,6.1,2.4,6.6L327.4,166l-3.7,13.5,7.1.8-2.3,5.4,7.2,2.8,10.3,3.4-1.7-3.3-1-2,3.8,1.2,6.5,2.1,8-6.1-5-5.9,6.3-3.9ZM345,160.4c2.2-6.3,7.2-10.3,11.2-8.9l-4,11.4-4,11.4C344.3,172.9,342.8,166.7,345,160.4Z" fill-rule="evenodd" fill="url(#u)"/><path d="M357.4,171.6l4.2-11.4-4.5-.7a27.637,27.637,0,0,0,.6-6.9l4.7-2.9-2.1-10.1-4.5,4.3a12.7,12.7,0,0,0-3.1-4.1l2.7-6.3-7.2-2.8-1.9,6.8a11.8,11.8,0,0,0-5,1.2l-.8-6-8,6.1,1.9,5.4a33.662,33.662,0,0,0-3.9,5.7l-3.9-2.2-4.2,11.4,4.5.7a27.637,27.637,0,0,0-.6,6.9l-4.7,2.9,2.1,10.1,4.5-4.3a12.7,12.7,0,0,0,3.1,4.1l-2.7,6.3,7.2,2.8,1.9-6.8a11.8,11.8,0,0,0,5-1.2l.8,6,8-6.1-1.9-5.4a33.662,33.662,0,0,0,3.9-5.7ZM338,171c-4-1.4-5.5-7.6-3.3-13.9s7.2-10.3,11.2-8.9,5.5,7.6,3.3,13.9S342,172.4,338,171Z" fill-rule="evenodd" fill="url(#v)"/><path d="M372.7,152.9l-10.3-3.3-4.7,2.9,10.3,3.4Z" fill="#8b1756" fill-rule="evenodd" opacity="0.5"/><path d="M361.7,183.9l-10.3-3.4-1.8-5.3,10.3,3.3Z" fill="#fbd99a" fill-rule="evenodd"/><path d="M352.6,139.7l5.7,1.7,1.9-1.9,3.8,1.2,1.7-4-10.3-3.3Z" fill="#8b1756" fill-rule="evenodd" opacity="0.5"/><path d="M337.6,181.7l5.4,2.2-.4-3.4A8.529,8.529,0,0,1,337.6,181.7Z" fill="#8b1756" fill-rule="evenodd" opacity="0.5"/><path d="M338.5,150.8l9.1,4.8a13.721,13.721,0,0,1,2.3-2.5S347.5,143.1,338.5,150.8Z" fill="#601734" fill-rule="evenodd" opacity="0.5"/><path d="M111.5,174.4l-.1-5.6,154.3-2.6-.4,8.2Z" fill-rule="evenodd" fill="url(#w)"/><path d="M112.8,170.2v3.1h79.1v-4.4Z" fill="#fb0e70" fill-rule="evenodd"/><circle cx="34.7" cy="34.7" r="34.7" transform="translate(150.4 86.8)" fill="url(#x)"/><path d="M185.5,106.1c6.5,0,11.3,3.9,13.7,9.3l-4.5-.1,11.6,9.8,5.9-13.7-4.9,2.2c-4.3-9-11.3-13.4-21.7-13.4-10.9,0-20.4,7.7-22.4,17.9l6.4.1A16.265,16.265,0,0,1,185.5,106.1Z" fill-rule="evenodd" fill="url(#y)"/><path d="M201.5,127.1c-1.7,7.7-8.4,12.2-16,12.2-6.2,0-10.8-3.7-13.3-8.8l4.3-1.1-.1-1.1-11.5-7.2-5.5,11.6-.3,1.1,5.6-1.3c3.7,8.1,11.7,12.7,20.8,12.7a22.424,22.424,0,0,0,22-18l-.1-1.1Z" fill-rule="evenodd" fill="url(#z)"/><path d="M185.3,105c6.5,0,11.3,3.9,13.7,9.3l-4.4,1L206,124l6-12.5-5.1,1.1c-4.3-9-11.3-13.4-21.7-13.4a22.424,22.424,0,0,0-22,18h6A16.739,16.739,0,0,1,185.3,105Z" fill-rule="evenodd" fill="url(#aa)"/><path d="M201.4,126c-1.7,7.7-8.4,12.2-16,12.2-6.2,0-10.8-3.7-13.3-8.8l4.3-1.1L164.8,120l-5.4,12.7,5.2-1.3c3.7,8.1,11.7,12.7,20.8,12.7a22.424,22.424,0,0,0,22-18h-6Z" fill-rule="evenodd" fill="url(#ab)"/><path d="M160.6,97.2a9.12,9.12,0,0,0,7.9-1.7c4.1-3,3.9-6.3,3.9-6.3A32.722,32.722,0,0,0,160.6,97.2Z" fill="#fff" fill-rule="evenodd"/><path d="M210,142.2a8.126,8.126,0,0,1,4.3-5.8A7.232,7.232,0,0,1,210,142.2Z" fill="#fff" fill-rule="evenodd"/><path d="M42,124.6c-.1-.1-.1-.2-.2-.3l2.3-1c-2.3-4.3-3.7-6.5-6.4-9l-.2,4a9.145,9.145,0,0,0-4.7-2.8l-1.7-5.2c-2.3-.3-3.3.4-4.5,2.3l3.2,4.4a8.852,8.852,0,0,0-.3,5.5l-3.3-2.2a37.331,37.331,0,0,0,3.7,10.4l2.1-1.2a.1.1,0,0,0,.1.1,26.11,26.11,0,0,0,4.5,6.3l-.3,3.6c2.7,2.6,4.2,3.7,6.7,4.1l-1.8-5a3.458,3.458,0,0,0,1.8-.2,2.775,2.775,0,0,0,1.3-1.5l3,4.4c1-2.3,1.1-4.1.5-7.9l-3.3-1.9A23.306,23.306,0,0,0,42,124.6Zm-7.1,3.7c-1.4-2.7-1.6-5.3-.4-5.9s3.2,1.1,4.6,3.7c1.4,2.7,1.6,5.3.4,5.9C38.4,132.6,36.3,131,34.9,128.3Z" fill-rule="evenodd" fill="url(#ac)"/><path d="M26.6,112.7l1.8-2,7.1-5.2,5,7.6,4.9-3.7,2.4,5.3,1.4,9.2,6.6,14.7-5.2,1.3.6,1.2-8.1,2.8s-5.1-1.3-6.7-4.1l1.2-4.2-4.4-5.2-3.1.6-3.7-10.4,3.2-2,1.3-1.9Z" fill-rule="evenodd" fill="url(#ad)"/><path d="M50.1,120.5c-.1-.1-.1-.2-.2-.3l2.5-1c-2.5-4.7-4-7-6.9-9.7l-.2,4.3c-1.8-1.7-3.5-2.8-5-3l-1.9-5.6c-2.4-.3-3.5.4-4.8,2.5l3.5,4.8a10.092,10.092,0,0,0-.4,5.9l-3.6-2.3c.7,3.9,1.9,6.8,3.9,11.2l2.3-1.3c0,.1,0,.1.1.2a27.468,27.468,0,0,0,4.8,6.7l-.4,3.9c2.9,2.8,4.5,3.9,7.2,4.4l-1.9-5.3a3.4,3.4,0,0,0,2-.3,3.168,3.168,0,0,0,1.4-1.6l3.2,4.7c1-2.4,1.2-4.4.5-8.5l-3.5-2A21.947,21.947,0,0,0,50.1,120.5Zm-7.6,3.9c-1.5-2.8-1.7-5.7-.4-6.3,1.2-.6,3.5,1.1,4.9,4,1.5,2.8,1.7,5.7.4,6.3C46.2,129.1,44,127.3,42.5,124.4Z" fill-rule="evenodd" fill="url(#ae)"/><path d="M29.9,117.1l7.2-4.7-3.5-4.7-7,5Z" fill="#8b1756" fill-rule="evenodd" opacity="0.5"/><path d="M29.9,130.9l7.2-3.7,2.3-1.3,2.1,3.5-6.8,4.5a10.353,10.353,0,0,1-2.1-3.5Z" fill="#8b1756" fill-rule="evenodd" opacity="0.5"/><path d="M36.2,139.7l7.7-3.1.3-3.8-7.6,3.3Z" fill="#fbd99a" fill-rule="evenodd"/><g transform="translate(85.4 83.1)"><path d="M6.1,25.2a2.726,2.726,0,0,0-2.1.786v9.586H9.029V28.343C9.029,26.3,7.876,25.2,6.1,25.2Z" transform="translate(0 -10.571)" fill="#fff"/><path d="M22.733,25.2c-1.781,0-2.933,1.1-2.933,3.143v7.229h5.867V28.343C25.667,26.3,24.514,25.2,22.733,25.2Z" transform="translate(-7.524 -10.571)" fill="#fff"/><path d="M21.81,3H4v9.69a5.068,5.068,0,0,1,2.986-.943,5.014,5.014,0,0,1,4.61,2.514,5.2,5.2,0,0,1,4.452-2.514c3.143,0,5.343,1.99,5.343,5.6V25H26V7.19A4.2,4.2,0,0,0,21.81,3Z" transform="translate(0 0)" fill="#fff"/></g><path d="M74.5,105.5l36.9-32.7H84.3L74,84.9Z" fill="#540041" fill-rule="evenodd" opacity="0.3"/><path d="M126.5,54.9l-4.2-4.6-7.8,11-6.2-3.5L106.2,51l11.4-7-4.3-4.7c-9.4.6-15.9,8.2-15.9,8.2C95,52,95.3,60.7,95.3,60.7L52.9,91.3A8.487,8.487,0,0,0,55,97.6s5.1,6.8,8.8,7.2l39-35s8.3,2.1,13.3.7C116.1,70.6,123.9,63.9,126.5,54.9Z" fill-rule="evenodd" fill="url(#af)"/><path d="M124.7,53.2,122,49.9l-9.3,9.7-6.2-3.5-2.1-6.8,11.4-7L113.1,39c-9.4.6-17.5,6.8-17.5,6.8-2.4,4.5-2.2,15.9-2.2,15.9L51.1,89.6c-.4,3.7,7.2,13.1,10.9,13.5l39-35s8.3,2.1,13.3.7C114.3,68.9,122.1,62.3,124.7,53.2Z" fill-rule="evenodd" fill="url(#ag)"/><path d="M114.3,68.9l1.8,1.7a29.628,29.628,0,0,0,6.7-7.8l-1.7-1.9A60.891,60.891,0,0,1,114.3,68.9Z" fill-rule="evenodd" fill="url(#ah)"/><path d="M120.2,62.1,93.6,55.8l-.1,6-5.6,3.9,11.7,3.8,1.4-1.2s8,2.4,13.3.7A58.456,58.456,0,0,0,120.2,62.1Z" fill="#bdafd2" fill-rule="evenodd"/><path d="M112.6,69.3l3-1.6s-.4,1.3-1,1.6A4.2,4.2,0,0,1,112.6,69.3Z" fill="#fff" fill-rule="evenodd"/><path d="M101,68.2l-7.4-9.3-.1,2.8,6.1,7.7,3.2.4Z" fill-rule="evenodd" fill="url(#ai)"/><path d="M56.8,90.3l35-24.6,2.7,3.4L62.6,96.7S59.2,95.7,56.8,90.3Z" fill="#601734" fill-rule="evenodd" opacity="0.2"/><path d="M62.6,96.7a11.525,11.525,0,0,1-4.2-5.2L91.8,67.3l2.7,1.8-2.7-3.4-35,24.6A10.309,10.309,0,0,0,62.6,96.7Z" fill-rule="evenodd" fill="url(#aj)"/></g></svg>