<svg xmlns="http://www.w3.org/2000/svg" xmlns:xlink="http://www.w3.org/1999/xlink" width="243.8" height="44.3" viewBox="0 0 243.8 44.3"><defs><linearGradient id="a" x1="-0.011" y1="0.955" x2="0.993" y2="0.955" gradientUnits="objectBoundingBox"><stop offset="0" stop-color="#603082"/><stop offset="0.994" stop-color="#2a0e51"/></linearGradient><radialGradient id="b" cx="0.238" cy="0.126" r="2.809" gradientTransform="matrix(0.162, 0.074, -0.012, 0.997, 0.192, -0.015)" gradientUnits="objectBoundingBox"><stop offset="0" stop-color="#6d47d3"/><stop offset="0.994" stop-color="#713592"/></radialGradient><linearGradient id="c" x1="-0.012" y1="0.755" x2="0.989" y2="0.755" xlink:href="#a"/><radialGradient id="d" cx="0.503" cy="0.455" r="2.516" gradientTransform="matrix(0.141, 0.074, -0.01, 0.997, 0.427, -0.034)" xlink:href="#b"/><linearGradient id="e" x1="0.059" y1="1.098" x2="0.963" y2="1.111" gradientUnits="objectBoundingBox"><stop offset="0.019" stop-color="#ff4c06"/><stop offset="0.168" stop-color="#ff0e59"/><stop offset="0.538" stop-color="#ff12c3"/><stop offset="1" stop-color="#00b3ff"/></linearGradient><linearGradient id="f" x1="0.016" y1="1.158" x2="0.993" y2="1.173" xlink:href="#e"/><linearGradient id="g" x1="-0.018" y1="1.205" x2="1.015" y2="1.221" xlink:href="#e"/><linearGradient id="h" x1="-0.057" y1="1.287" x2="1.04" y2="1.306" xlink:href="#e"/><linearGradient id="i" x1="-0.096" y1="1.297" x2="1.056" y2="1.315" xlink:href="#e"/><linearGradient id="j" x1="-1.832" y1="6.988" x2="32.974" y2="7.082" xlink:href="#e"/><linearGradient id="k" x1="-4.58" y1="7.492" x2="37.036" y2="7.598" xlink:href="#e"/><linearGradient id="l" x1="0.669" y1="5.616" x2="23.459" y2="5.685" xlink:href="#e"/><linearGradient id="m" x1="-23.778" y1="15.6" x2="103.846" y2="15.843" xlink:href="#e"/><linearGradient id="n" x1="-2.467" y1="4.921" x2="26.539" y2="4.987" xlink:href="#e"/><linearGradient id="o" x1="-5.434" y1="5.873" x2="32.853" y2="5.957" xlink:href="#e"/><linearGradient id="p" x1="-48.749" y1="1.659" x2="2.988" y2="1.729" xlink:href="#e"/><linearGradient id="q" x1="-75.725" y1="2.508" x2="7.506" y2="2.614" xlink:href="#e"/><linearGradient id="r" x1="-31.464" y1="1.134" x2="0.441" y2="1.18" xlink:href="#e"/><linearGradient id="s" x1="-45.343" y1="1.728" x2="6.395" y2="1.787" xlink:href="#e"/><linearGradient id="t" x1="-39.541" y1="1.42" x2="3.967" y2="1.47" xlink:href="#e"/><linearGradient id="u" x1="-117.834" y1="3.836" x2="18.905" y2="3.988" xlink:href="#e"/><linearGradient id="v" x1="-73.94" y1="2.112" x2="13.071" y2="2.183" xlink:href="#e"/><linearGradient id="w" x1="-106.241" y1="3.382" x2="21.375" y2="3.503" xlink:href="#e"/><linearGradient id="x" x1="-50.63" y1="1.551" x2="7.378" y2="1.601" xlink:href="#e"/><linearGradient id="y" x1="-168.724" y1="5.412" x2="43.958" y2="5.599" xlink:href="#e"/><linearGradient id="z" x1="-74.18" y1="1.857" x2="16.977" y2="1.913" xlink:href="#e"/><linearGradient id="aa" x1="-80.562" y1="2.085" x2="20.19" y2="2.147" xlink:href="#e"/><linearGradient id="ab" x1="-104.19" y1="2.751" x2="32.539" y2="2.832" xlink:href="#e"/><linearGradient id="ac" x1="-144.169" y1="3.982" x2="47.265" y2="4.103" xlink:href="#e"/><linearGradient id="ad" x1="-67.357" y1="1.953" x2="19.658" y2="2.007" xlink:href="#e"/><linearGradient id="ae" x1="-113.719" y1="2.641" x2="45.798" y2="2.71" xlink:href="#e"/><linearGradient id="af" x1="-226.583" y1="19.415" x2="92.431" y2="20.023" xlink:href="#e"/><linearGradient id="ag" x1="-105.977" y1="2.222" x2="41.268" y2="2.278" xlink:href="#e"/><linearGradient id="ah" x1="-213.271" y1="4.819" x2="105.769" y2="4.947" xlink:href="#e"/><linearGradient id="ai" x1="-183.674" y1="2.381" x2="89.772" y2="2.437" xlink:href="#e"/><linearGradient id="aj" x1="-213.781" y1="3.303" x2="105.256" y2="3.387" xlink:href="#e"/><linearGradient id="ak" x1="-9.629" y1="5.318" x2="33.879" y2="5.399" xlink:href="#e"/><linearGradient id="al" x1="-3.897" y1="4.459" x2="28.008" y2="4.52" xlink:href="#e"/><linearGradient id="am" x1="-8.619" y1="5.887" x2="39.239" y2="5.974" xlink:href="#e"/><linearGradient id="an" x1="-12.685" y1="5.013" x2="36.4" y2="5.092" xlink:href="#e"/><linearGradient id="ao" x1="-138.917" y1="23.283" x2="339.668" y2="23.688" xlink:href="#e"/><linearGradient id="ap" x1="-8.506" y1="4.22" x2="30.563" y2="4.282" xlink:href="#e"/><linearGradient id="aq" x1="-24.708" y1="6.452" x2="51.867" y2="6.562" xlink:href="#e"/><linearGradient id="ar" x1="-11.557" y1="3.934" x2="35.135" y2="3.993" xlink:href="#e"/><linearGradient id="as" x1="-16.811" y1="5.163" x2="41.199" y2="5.248" xlink:href="#e"/><linearGradient id="at" x1="-22.257" y1="4.457" x2="41.553" y2="4.533" xlink:href="#e"/><linearGradient id="au" x1="-14.776" y1="3.623" x2="31.916" y2="3.681" xlink:href="#e"/><linearGradient id="av" x1="-32.207" y1="4.839" x2="51.026" y2="4.926" xlink:href="#e"/><linearGradient id="aw" x1="-142.572" y1="124.872" x2="240.316" y2="127.302" xlink:href="#e"/><linearGradient id="ax" x1="-43.427" y1="6.164" x2="62.925" y2="6.28" xlink:href="#e"/><linearGradient id="ay" x1="-176.712" y1="37.788" x2="206.104" y2="38.598" xlink:href="#e"/><linearGradient id="az" x1="-34.242" y1="3.532" x2="45.523" y2="3.596" xlink:href="#e"/><linearGradient id="ba" x1="-40.797" y1="4.026" x2="50.364" y2="4.102" xlink:href="#e"/><linearGradient id="bb" x1="-62.387" y1="4.333" x2="65.241" y2="4.42" xlink:href="#e"/><linearGradient id="bc" x1="-79.814" y1="5.318" x2="79.728" y2="5.428" xlink:href="#e"/><linearGradient id="bd" x1="-79.291" y1="3.627" x2="67.974" y2="3.703" xlink:href="#e"/><linearGradient id="be" x1="-208.766" y1="50.197" x2="174.16" y2="51.412" xlink:href="#e"/><linearGradient id="bf" x1="-67.587" y1="3.031" x2="60.035" y2="3.091" xlink:href="#e"/><linearGradient id="bg" x1="-187.29" y1="4.947" x2="131.782" y2="5.062" xlink:href="#e"/><linearGradient id="bh" x1="-159.786" y1="3.966" x2="113.628" y2="4.056" xlink:href="#e"/><linearGradient id="bi" x1="-241.718" y1="44.224" x2="141.122" y2="45.439" xlink:href="#e"/><linearGradient id="bj" x1="-201.121" y1="2.734" x2="117.915" y2="2.796" xlink:href="#e"/><linearGradient id="bk" x1="-241.526" y1="3.128" x2="141.312" y2="3.202" xlink:href="#e"/><linearGradient id="bl" x1="-0.012" y1="1.053" x2="0.991" y2="1.053" xlink:href="#e"/></defs><path d="M75.9,273,74,268l243.8,20.7-1.1,3.8Z" transform="translate(-74 -248.2)" fill-rule="evenodd" fill="url(#a)"/><path d="M74,268l46.6-18.9L288,261.5l29.8,27.2Z" transform="translate(-74 -248.2)" fill-rule="evenodd" fill="url(#b)"/><path d="M84.1,266.6l226.1,19,1.3-5.3L285,260.1,123.8,248.2,84.5,260.8Z" transform="translate(-74 -248.2)" fill-rule="evenodd" fill="url(#c)"/><path d="M84.5,260.8l227,19.5L285,260.1,123.8,248.2Z" transform="translate(-74 -248.2)" fill-rule="evenodd" fill="url(#d)"/><g transform="translate(-74 -248.2)"><path d="M305.2,275.5,93.4,257.9l1.2-.4L304.5,275Z" fill="url(#e)"/><path d="M298.8,270.7,102.7,254.9l1.1-.3,194.3,15.5Z" fill="url(#f)"/><path d="M294.6,267.5,109.2,252.9l1.1-.4L294,267Z" fill="url(#g)"/><path d="M290.3,263.6,115.9,250.7l1.3-.4,172.5,12.8Z" fill="url(#h)"/><path d="M288,261.5,121.9,248.8l.8-.3,164,12.7Z" fill="url(#i)"/><path d="M116.2,256l-.2-.4,5.4-2.2v.2l.1.2Z" fill="url(#j)"/><path d="M127.1,251.5l-.1-.5,4.4-1.8.2.4Z" fill="url(#k)"/><path d="M101.5,262.2l-1.2-.1,8.2-3.4.2.5Z" fill="url(#l)"/><path d="M141.8,250.4l-.2-.4,1.2-.6.3.4Z" fill="url(#m)"/><path d="M122.4,260.3h-.1v-.2l-.1-.2,6.5-3.3h0v.2l.1.2Z" fill="url(#n)"/><path d="M133.2,254.8h0v-.3l-.1-.2,4.8-2.4.2.4Z" fill="url(#o)"/><path d="M289.7,270l-3.4-3.2.3-.3,3.4,3.1Z" fill="url(#p)"/><path d="M282.1,263l-2-1.9.3-.4,2,1.9Z" fill="url(#q)"/><path d="M299.5,279.4l-4.8-4.8.3-.4,5.7,5.3Z" fill="url(#r)"/><path d="M277.1,266.1l-3.4-3.8.3-.3,3.4,3.8Z" fill="url(#s)"/><path d="M283.9,273.7l-4-4.5.1-.2.1-.2h.1v.1l4.1,4.4Z" fill="url(#t)"/><path d="M272,260.5l-1.1-1.3.3-.3,1.1,1.2Z" fill="url(#u)"/><path d="M270.6,268.5h-.1l-1.9-3.1.4-.3,1.8,3-.2.1Z" fill="url(#v)"/><path d="M266.4,261.7l-1.1-1.8.4-.2,1.1,1.8Z" fill="url(#w)"/><path d="M275.6,277.2l-2.6-4.5.4-.2,2.9,4.8Z" fill="url(#x)"/><path d="M258.3,259.3l-.5-1.1.5-.2.4,1.1Z" fill="url(#y)"/><path d="M263.4,271.9l-1.7-4.3.4-.1,1.7,4.2Z" fill="url(#z)"/><path d="M260.7,264.9h-.2l-1.5-3.7.5-.2,1.4,3.5-.2.1Z" fill="url(#aa)"/><path d="M252.8,266.9l-1-2.9.5-.1.9,2.9Z" fill="url(#ab)"/><path d="M250.7,260.5l-.6-1.8.4-.2.6,1.9Z" fill="url(#ac)"/><path d="M255.5,275.5l-1.4-4.4.5-.1,1.7,4.5Z" fill="url(#ad)"/><path d="M243.1,263.3l-.7-3.4.5-.1.7,3.4Z" fill="url(#ae)"/><path d="M242,258l-.1-.3.5-.1.1.3Z" fill="url(#af)"/><path d="M244.5,270.3l-.8-4.2.4-.1.9,4.2Z" fill="url(#ag)"/><path d="M234,259.2l-.1-1.8.5-.1.1,1.9Z" fill="url(#ah)"/><path d="M234.7,273.7l-.2-4.3h.5l.2,4.3Z" fill="url(#ai)"/><path d="M234.3,265.4l-.1-2.8.4-.1.2,2.8Z" fill="url(#aj)"/><path d="M148.6,253.1l-.3-.5,4.2-2.5.2.4Z" fill="url(#ak)"/><path d="M129.6,264.9l-.3-.4,5.7-3.6.3.5Z" fill="url(#al)"/><path d="M140.7,258l-.3-.4,3.8-2.4.2.4Z" fill="url(#am)"/><path d="M155.7,256.5l-.3-.4,3.6-2.7.3.4Z" fill="url(#an)"/><path d="M161.7,252h-.1v-.3l-.1-.1.1-.2.3.4Z" fill="url(#ao)"/><path d="M147.9,262.4l-.3-.4,4.6-3.5.3.4Z" fill="url(#ap)"/><path d="M168,254.5l-.3-.4,2.2-1.8.3.4Z" fill="url(#aq)"/><path d="M153.6,266.9l-.3-.4,3.7-3.7.4.4Z" fill="url(#ar)"/><path d="M161.7,259.7l-.3-.4,3-2.5.3.4Z" fill="url(#as)"/><path d="M173,257.9l-.3-.4,2.7-2.8.3.3Z" fill="url(#at)"/><path d="M166.8,264.2l-.3-.3.2-.3,3.5-3.6.4.4Z" fill="url(#au)"/><path d="M180.4,261.1l-.4-.3,1.9-2.5.4.3Z" fill="url(#av)"/><path d="M177.2,264.7v-.1l.5.1Z" fill="url(#aw)"/><path d="M184.5,255.6l-.4-.2,1.4-1.9.2.1.2.1Z" fill="url(#ax)"/><path d="M194.7,254.4l-.4-.2v-.1l.5.3Z" fill="url(#ay)"/><path d="M188.5,265.5l-.4-.2,2-3.6.4.2Z" fill="url(#az)"/><path d="M192,259.3l-.4-.2,1.6-3,.5.2Z" fill="url(#ba)"/><path d="M200,262.6l-.5-.1,1.1-2.7.4.2Z" fill="url(#bb)"/><path d="M202.2,256.9l-.5-.2.8-2,.4.2v.1Z" fill="url(#bc)"/><path d="M209.5,260.6l-.5-.1.8-3.1.5.1Z" fill="url(#bd)"/><path d="M210.8,255.6l-.5-.1v-.1l.5.1Z" fill="url(#be)"/><path d="M207.8,267.2l-.5-.1,1-3.9.5.1Z" fill="url(#bf)"/><path d="M218.8,258.1l-.5-.1.1-2h.5Z" fill="url(#bg)"/><path d="M218.3,264h-.5l.2-2.7h.5Z" fill="url(#bh)"/><path d="M226.8,256.8v-.2l.5.1v.1Z" fill="url(#bi)"/><path d="M226.6,268.6l.1-3.9h.5l-.1,3.9Z" fill="url(#bj)"/><path d="M226.7,261.9l.1-3.2h.4V262Z" fill="url(#bk)"/></g><path d="M86.7,266.8l.1,1.5,219.6,18.5,1.1-1.4Z" transform="translate(-74 -248.2)" fill="url(#bl)"/><path d="M288.1,283.7l1.9-5.3,16.9,1.5-3.2,5Z" transform="translate(-74 -248.2)" fill="#fbf9fa" fill-rule="evenodd" opacity="0.5"/><path d="M282.4,285.7l-1.2,3.9,21.7,1.7,1.7-3.7Z" transform="translate(-74 -248.2)" fill="#fbf9fa" fill-rule="evenodd" opacity="0.5"/></svg>