<svg xmlns="http://www.w3.org/2000/svg" xmlns:xlink="http://www.w3.org/1999/xlink" width="204.943" height="142.335" viewBox="0 0 204.943 142.335"><defs><linearGradient id="a" x1="0.53" y1="1.238" x2="0.47" y2="-0.177" gradientUnits="objectBoundingBox"><stop offset="0" stop-color="#603082"/><stop offset="0.994" stop-color="#2a0e51"/></linearGradient></defs><g transform="matrix(0.883, -0.469, 0.469, 0.883, -319.554, 113.606)"><path d="M398.1,187c-10.7,0-24.1-1.8-37.6-5.2-17.6-4.5-50-15.7-70-40.2l1.1-.9c34.1,41.8,110.2,50.2,124.8,41.7a47.541,47.541,0,0,0,13.4-11.5c-.1-.1-.3-.1-.4-.2-12-5.6-17.3-14.6-14-24.2,2.6-7.5,10-13.3,15.7-12,4.4,1,7.4,4.8,8.2,10.6,1.1,7.3-1.2,16.7-7.3,25.1,26.8,11.6,62.3,12,62.6,12v1.5c-.4,0-36.4-.4-63.5-12.3a47.967,47.967,0,0,1-14,12.2C413.3,185.9,406.5,187,398.1,187Zm31.2-51.2c-4.8,0-10.5,4.9-12.6,11.2-1.4,4.2-3,14.8,13.2,22.4a4.875,4.875,0,0,0,.7.3c6-8.1,8.3-17.2,7.2-24.3-.8-5.1-3.4-8.5-7.1-9.4A5.9,5.9,0,0,0,429.3,135.8Z" fill="url(#a)"/></g></svg>