<svg xmlns="http://www.w3.org/2000/svg" width="30.657" height="22.626" viewBox="0 0 30.657 22.626"><path d="M89.824,69.176A12.133,12.133,0,0,0,82.929,66.6l-.343.393A16.328,16.328,0,0,1,88.7,70.108a20,20,0,0,0-7.385-2.355,20.759,20.759,0,0,0-4.956.049,2.417,2.417,0,0,0-.417.049A18.424,18.424,0,0,0,70.368,69.4c-.908.417-1.448.712-1.448.712a16.552,16.552,0,0,1,6.453-3.214l-.245-.294a12.133,12.133,0,0,0-6.894,2.576,32.856,32.856,0,0,0-3.533,14.3s2.061,3.558,7.483,3.729c0,0,.908-1.1,1.644-2.036a7.631,7.631,0,0,1-4.294-2.9s.245.172.687.417a.339.339,0,0,0,.1.074c.074.049.147.074.221.123a14.378,14.378,0,0,0,1.791.834,20.6,20.6,0,0,0,3.607,1.055,17.187,17.187,0,0,0,6.355.025,16.148,16.148,0,0,0,3.558-1.055A14.04,14.04,0,0,0,88.671,82.3a7.742,7.742,0,0,1-4.441,2.92c.736.932,1.619,1.987,1.619,1.987,5.422-.172,7.508-3.729,7.508-3.729A32.856,32.856,0,0,0,89.824,69.176ZM74.44,81.2a2.733,2.733,0,0,1,0-5.447,2.733,2.733,0,0,1,0,5.447Zm8.955,0a2.733,2.733,0,1,1,2.5-2.723A2.63,2.63,0,0,1,83.4,81.2Z" transform="translate(-63.7 -65.597)" fill="none" stroke="#fff" stroke-width="2"/></svg>