<svg xmlns="http://www.w3.org/2000/svg" width="22" height="22" viewBox="0 0 22 22"><defs><style>.a{fill:none;stroke:#fff;stroke-linecap:round;stroke-linejoin:round;stroke-width:2px;}</style></defs><g transform="translate(1 1)"><path class="a" d="M14.5,10A1.5,1.5,0,0,1,13,8.5v-5a1.5,1.5,0,0,1,3,0v5A1.5,1.5,0,0,1,14.5,10Z" transform="translate(-2 -2)"/><path class="a" d="M20.5,10H19V8.5A1.5,1.5,0,1,1,20.5,10Z" transform="translate(-2 -2)"/><path class="a" d="M9.5,14A1.5,1.5,0,0,1,11,15.5v5a1.5,1.5,0,0,1-3,0v-5A1.5,1.5,0,0,1,9.5,14Z" transform="translate(-2 -2)"/><path class="a" d="M3.5,14H5v1.5A1.5,1.5,0,1,1,3.5,14Z" transform="translate(-2 -2)"/><path class="a" d="M14,14.5A1.5,1.5,0,0,1,15.5,13h5a1.5,1.5,0,0,1,0,3h-5A1.5,1.5,0,0,1,14,14.5Z" transform="translate(-2 -2)"/><path class="a" d="M15.5,19H14v1.5A1.5,1.5,0,1,0,15.5,19Z" transform="translate(-2 -2)"/><path class="a" d="M10,9.5A1.5,1.5,0,0,0,8.5,8h-5a1.5,1.5,0,0,0,0,3h5A1.5,1.5,0,0,0,10,9.5Z" transform="translate(-2 -2)"/><path class="a" d="M8.5,5H10V3.5A1.5,1.5,0,1,0,8.5,5Z" transform="translate(-2 -2)"/></g></svg>